<?xml version="1.0" encoding="UTF-8"?>

<!DOCTYPE svg PUBLIC '-//W3C//DTD SVG 1.0//EN' 'http://www.w3.org/TR/2001/REC-SVG-20010904/DTD/svg10.dtd'>
<svg style="fill-opacity:1; color-rendering:auto; color-interpolation:auto; stroke:black; text-rendering:auto; stroke-linecap:square; stroke-miterlimit:10; stroke-opacity:1; shape-rendering:auto; fill:black; stroke-dasharray:none; font-weight:normal; stroke-width:1; font-family:&apos;Dialog&apos;; font-style:normal; stroke-linejoin:miter; font-size:12; stroke-dashoffset:0; image-rendering:auto;" xmlns="http://www.w3.org/2000/svg" width="556" xmlns:xlink="http://www.w3.org/1999/xlink" height="226">
  <defs id="genericDefs" />
  <g>
    <defs id="defs1">
      <clipPath clipPathUnits="userSpaceOnUse" id="clipPath1">
        <path d="M-3 -3 L117 -3 L117 67 L-3 67 L-3 -3 Z" />
      </clipPath>
      <clipPath clipPathUnits="userSpaceOnUse" id="clipPath2">
        <path d="M0 0 L0 60 L110 60 L110 0 Z" />
      </clipPath>
      <clipPath clipPathUnits="userSpaceOnUse" id="clipPath3">
        <path d="M-3 -3 L77 -3 L77 47 L-3 47 L-3 -3 Z" />
      </clipPath>
      <clipPath clipPathUnits="userSpaceOnUse" id="clipPath4">
        <path d="M0 0 L0 40 L70 40 L70 0 Z" />
      </clipPath>
      <clipPath clipPathUnits="userSpaceOnUse" id="clipPath5">
        <path d="M-3 -3 L87 -3 L87 47 L-3 47 L-3 -3 Z" />
      </clipPath>
      <clipPath clipPathUnits="userSpaceOnUse" id="clipPath6">
        <path d="M0 0 L0 40 L80 40 L80 0 Z" />
      </clipPath>
      <clipPath clipPathUnits="userSpaceOnUse" id="clipPath7">
        <path d="M-3 -3 L97 -3 L97 47 L-3 47 L-3 -3 Z" />
      </clipPath>
      <clipPath clipPathUnits="userSpaceOnUse" id="clipPath8">
        <path d="M0 0 L0 40 L90 40 L90 0 Z" />
      </clipPath>
      <clipPath clipPathUnits="userSpaceOnUse" id="clipPath9">
        <path d="M-3 -3 L117 -3 L117 227 L-3 227 L-3 -3 Z" />
      </clipPath>
      <clipPath clipPathUnits="userSpaceOnUse" id="clipPath10">
        <path d="M0 0 L0 220 L110 220 L110 0 Z" />
      </clipPath>
      <clipPath clipPathUnits="userSpaceOnUse" id="clipPath11">
        <path d="M-3 -3 L77 -3 L77 57 L-3 57 L-3 -3 Z" />
      </clipPath>
      <clipPath clipPathUnits="userSpaceOnUse" id="clipPath12">
        <path d="M0 0 L0 50 L70 50 L70 0 Z" />
      </clipPath>
      <clipPath clipPathUnits="userSpaceOnUse" id="clipPath13">
        <path d="M-3 -3 L85 -3 L85 35 L-3 35 L-3 -3 Z" />
      </clipPath>
      <clipPath clipPathUnits="userSpaceOnUse" id="clipPath14">
        <path d="M0 0 L0 28 L78 28 L78 0 Z" />
      </clipPath>
      <clipPath clipPathUnits="userSpaceOnUse" id="clipPath15">
        <path d="M-3 -3 L47 -3 L47 147 L-3 147 L-3 -3 Z" />
      </clipPath>
      <clipPath clipPathUnits="userSpaceOnUse" id="clipPath16">
        <path d="M0 40 L0 0 L140 0 L140 40 L0 40 Z" />
      </clipPath>
      <clipPath clipPathUnits="userSpaceOnUse" id="clipPath17">
        <path d="M0 40 L140 40 L140 0 L0 0 Z" />
      </clipPath>
    </defs>
    <g style="fill:white; text-rendering:geometricPrecision; stroke:white;">
      <rect x="0" y="0" width="556" style="stroke:none;" height="226" />
    </g>
    <g transform="translate(2,82)" style="font-size:11; fill:rgb(243,231,248); text-rendering:geometricPrecision; font-family:sans-serif; stroke:rgb(243,231,248);">
      <path d="M0 0 L20 30 L0 59 L90 59 L109 30 L90 0 Z" style="clip-path:url(#clipPath2); stroke:none;" />
    </g>
    <g transform="translate(2,82)" style="stroke-linecap:butt; font-size:11; fill:rgb(204,147,225); text-rendering:geometricPrecision; font-family:sans-serif; stroke-linejoin:bevel; stroke:rgb(204,147,225); stroke-miterlimit:0;">
      <path d="M0 0 L20 30 L0 59 L90 59 L109 30 L90 0 Z" style="fill:none; clip-path:url(#clipPath2);" />
    </g>
    <g transform="translate(322,2)" style="font-size:11; fill:rgb(243,231,248); text-rendering:geometricPrecision; font-family:sans-serif; stroke:rgb(243,231,248);">
      <path d="M0 0 L20 30 L0 59 L90 59 L109 30 L90 0 Z" style="clip-path:url(#clipPath2); stroke:none;" />
    </g>
    <g transform="translate(322,2)" style="stroke-linecap:butt; font-size:11; fill:rgb(204,147,225); text-rendering:geometricPrecision; font-family:sans-serif; stroke-linejoin:bevel; stroke:rgb(204,147,225); stroke-miterlimit:0;">
      <path d="M0 0 L20 30 L0 59 L90 59 L109 30 L90 0 Z" style="fill:none; clip-path:url(#clipPath2);" />
    </g>
    <g transform="translate(442,2)" style="font-size:11; fill:rgb(243,231,248); text-rendering:geometricPrecision; font-family:sans-serif; stroke:rgb(243,231,248);">
      <path d="M0 0 L20 30 L0 59 L90 59 L109 30 L90 0 Z" style="clip-path:url(#clipPath2); stroke:none;" />
    </g>
    <g transform="translate(442,2)" style="stroke-linecap:butt; font-size:11; fill:rgb(204,147,225); text-rendering:geometricPrecision; font-family:sans-serif; stroke-linejoin:bevel; stroke:rgb(204,147,225); stroke-miterlimit:0;">
      <path d="M0 0 L20 30 L0 59 L90 59 L109 30 L90 0 Z" style="fill:none; clip-path:url(#clipPath2);" />
    </g>
    <g style="text-rendering:geometricPrecision; font-size:13; font-family:&apos;Lucida Grande&apos;;" transform="translate(22,92)">
      <path d="M8.0649 14.1553 L8.0649 6.9438 L5.1803 6.9438 L5.1803 5.8621 L12.7524 5.8621 L12.7524 6.9438 L9.8678 6.9438 L9.8678 14.1553 ZM14.0817 14.1553 L14.0817 8.0255 L15.7043 8.0255 L15.7043 9.1073 Q16.4255 7.8453 17.6875 7.8453 Q17.8678 7.8453 18.0481 7.8453 L18.0481 9.2876 Q17.6875 9.2876 17.3269 9.2876 Q16.4255 9.2876 15.7043 10.189 L15.7043 14.1553 ZM22.1466 13.4342 Q21.2452 14.3356 20.3438 14.3356 Q19.4423 14.3356 18.9916 13.7948 Q18.5409 13.2539 18.5409 12.5328 Q18.5409 11.451 19.3522 10.9102 Q20.1635 10.3693 21.6058 10.3693 L22.1466 10.3693 L22.1466 9.8284 Q22.1466 8.927 21.0649 8.927 Q19.9832 8.927 19.0817 9.4678 L19.0817 8.2058 Q20.1635 7.8453 21.2452 7.8453 Q23.5889 7.8453 23.5889 9.8284 L23.5889 12.5328 Q23.5889 13.2539 24.1298 13.2539 Q24.3101 13.2539 24.3101 13.2539 L24.4904 14.1553 Q23.9495 14.3356 23.4087 14.3356 Q22.5072 14.3356 22.1466 13.4342 ZM22.1466 12.5328 L22.1466 11.2707 L21.6058 11.2707 Q19.9832 11.2707 19.9832 12.3525 Q19.9832 12.713 20.2536 12.8933 Q20.524 13.0736 20.8846 13.0736 Q21.4255 13.0736 22.1466 12.5328 ZM26.0817 14.1553 L26.0817 8.0255 L27.7043 8.0255 L27.7043 9.1073 Q28.6058 7.8453 29.8678 7.8453 Q30.5889 7.8453 31.1298 8.3861 Q31.6707 8.927 31.6707 9.8284 L31.6707 14.1553 L29.8678 14.1553 L29.8678 10.189 Q29.8678 9.1073 29.3269 9.1073 Q28.4255 9.1073 27.7043 10.189 L27.7043 14.1553 ZM33.9014 13.9751 L33.9014 12.713 Q35.1635 13.2539 36.0649 13.2539 Q36.9663 13.2539 36.9663 12.5328 Q36.9663 12.1722 36.2452 11.8116 L35.7043 11.451 Q34.6226 11.0904 34.262 10.7299 Q33.9014 10.3693 33.9014 9.6481 Q33.9014 8.7467 34.5325 8.296 Q35.1635 7.8453 36.4255 7.8453 Q37.1466 7.8453 38.2284 8.0255 L38.2284 9.2876 Q37.3269 8.927 36.6058 8.927 Q35.524 8.927 35.524 9.4678 Q35.524 10.0087 36.2452 10.189 L36.7861 10.3693 Q37.8678 10.9102 38.3185 11.2707 Q38.7692 11.6313 38.7692 12.3525 Q38.7692 13.2539 38.0481 13.7948 Q37.3269 14.3356 36.0649 14.3356 Q34.9832 14.3356 33.9014 13.9751 ZM41.0817 16.3188 L41.0817 8.0255 L42.7043 8.0255 L42.7043 9.1073 Q43.4255 7.8453 44.6875 7.8453 Q45.7692 7.8453 46.4904 8.6566 Q47.2115 9.4678 47.2115 10.9102 Q47.2115 12.5328 46.4904 13.4342 Q45.7692 14.3356 44.5072 14.3356 Q43.4255 14.3356 42.7043 13.6145 L42.7043 16.3188 ZM42.7043 12.5328 Q43.2452 13.2539 43.9663 13.2539 Q44.6875 13.2539 45.0481 12.6229 Q45.4087 11.9919 45.4087 11.0904 Q45.4087 9.1073 44.1466 9.1073 Q43.4255 9.1073 42.7043 10.0087 ZM51.6058 14.3356 Q50.1635 14.3356 49.3522 13.4342 Q48.5409 12.5328 48.5409 11.0904 Q48.5409 9.6481 49.3522 8.7467 Q50.1635 7.8453 51.6058 7.8453 Q53.2284 7.8453 54.0397 8.7467 Q54.851 9.6481 54.851 11.0904 Q54.851 12.5328 54.0397 13.4342 Q53.2284 14.3356 51.6058 14.3356 ZM51.6058 13.2539 Q53.0481 13.2539 53.0481 11.0904 Q53.0481 10.0087 52.6875 9.4678 Q52.3269 8.927 51.6058 8.927 Q51.0649 8.927 50.7043 9.4678 Q50.3438 10.0087 50.3438 11.0904 Q50.3438 11.9919 50.7043 12.6229 Q51.0649 13.2539 51.6058 13.2539 ZM56.0817 14.1553 L56.0817 8.0255 L57.7043 8.0255 L57.7043 9.1073 Q58.4255 7.8453 59.6875 7.8453 Q59.8678 7.8453 60.0481 7.8453 L60.0481 9.2876 Q59.6875 9.2876 59.3269 9.2876 Q58.4255 9.2876 57.7043 10.189 L57.7043 14.1553 ZM64.1466 14.1553 Q63.6058 14.3356 63.2452 14.3356 Q61.0817 14.3356 61.0817 12.3525 L61.0817 8.927 L60.3606 8.927 L60.3606 8.0255 L61.0817 8.0255 L61.0817 6.9438 L62.7043 6.7635 L62.7043 8.0255 L64.1466 8.0255 L64.1466 8.927 L62.7043 8.927 L62.7043 11.9919 Q62.7043 13.2539 63.7861 13.2539 Q63.9663 13.2539 64.1466 13.0736 Z" style="clip-path:url(#clipPath4); stroke:none;" />
      <path d="M20.0817 27.1553 L20.0817 18.8621 L25.3101 18.8621 L25.3101 19.9438 L21.7043 19.9438 L21.7043 22.4678 L24.5889 22.4678 L24.5889 23.7299 L21.7043 23.7299 L21.7043 27.1553 ZM27.0817 27.1553 L27.0817 21.0255 L28.7043 21.0255 L28.7043 27.1553 ZM27.0817 19.9438 L27.0817 18.5015 L28.7043 18.5015 L28.7043 19.9438 ZM31.0817 27.1553 L31.0817 18.3212 L32.7043 18.3212 L32.7043 27.1553 ZM38.1466 27.1553 Q37.6058 27.3356 37.2452 27.3356 Q35.0817 27.3356 35.0817 25.3525 L35.0817 21.927 L34.3606 21.927 L34.3606 21.0255 L35.0817 21.0255 L35.0817 19.9438 L36.7043 19.7635 L36.7043 21.0255 L38.1466 21.0255 L38.1466 21.927 L36.7043 21.927 L36.7043 24.9919 Q36.7043 26.2539 37.7861 26.2539 Q37.9663 26.2539 38.1466 26.0736 ZM45.1298 26.9751 Q43.8678 27.3356 42.7861 27.3356 Q41.3438 27.3356 40.4423 26.4342 Q39.5409 25.5328 39.5409 24.0904 Q39.5409 22.6481 40.3522 21.7467 Q41.1635 20.8453 42.4255 20.8453 Q43.8678 20.8453 44.4988 21.6566 Q45.1298 22.4678 45.1298 24.451 L41.1635 24.451 Q41.3438 26.0736 43.1466 26.0736 Q44.0481 26.0736 45.1298 25.713 ZM41.1635 23.3693 L43.5072 23.3693 Q43.5072 21.927 42.4255 21.927 Q41.3438 21.927 41.1635 23.3693 ZM47.0817 27.1553 L47.0817 21.0255 L48.7043 21.0255 L48.7043 22.1073 Q49.4255 20.8453 50.6875 20.8453 Q50.8678 20.8453 51.0481 20.8453 L51.0481 22.2876 Q50.6875 22.2876 50.3269 22.2876 Q49.4255 22.2876 48.7043 23.189 L48.7043 27.1553 Z" style="clip-path:url(#clipPath4); stroke:none;" />
    </g>
    <g style="text-rendering:geometricPrecision; font-size:13; font-family:&apos;Lucida Grande&apos;;" transform="translate(342,12)">
      <path d="M20.0817 14.1553 L20.0817 5.8621 L21.7043 5.8621 L21.7043 9.2876 L25.3101 9.2876 L25.3101 5.8621 L26.9327 5.8621 L26.9327 14.1553 L25.3101 14.1553 L25.3101 10.3693 L21.7043 10.3693 L21.7043 14.1553 ZM31.0649 14.1553 L31.0649 6.9438 L28.1803 6.9438 L28.1803 5.8621 L35.7524 5.8621 L35.7524 6.9438 L32.8678 6.9438 L32.8678 14.1553 ZM39.0649 14.1553 L39.0649 6.9438 L36.1803 6.9438 L36.1803 5.8621 L43.7524 5.8621 L43.7524 6.9438 L40.8678 6.9438 L40.8678 14.1553 ZM45.0817 14.1553 L45.0817 5.8621 L47.9663 5.8621 Q49.4087 5.8621 50.1298 6.3128 Q50.851 6.7635 50.851 8.0255 Q50.851 9.4678 49.9495 10.189 Q49.0481 10.9102 47.4255 10.9102 L46.7043 10.9102 L46.7043 14.1553 ZM46.7043 9.8284 L47.0649 9.8284 Q47.9663 9.8284 48.5072 9.3777 Q49.0481 8.927 49.0481 8.2058 Q49.0481 6.9438 47.4255 6.9438 L46.7043 6.9438 Z" style="clip-path:url(#clipPath4); stroke:none;" />
      <path d="M20.0817 27.1553 L20.0817 18.8621 L25.3101 18.8621 L25.3101 19.9438 L21.7043 19.9438 L21.7043 22.4678 L24.5889 22.4678 L24.5889 23.7299 L21.7043 23.7299 L21.7043 27.1553 ZM27.0817 27.1553 L27.0817 21.0255 L28.7043 21.0255 L28.7043 27.1553 ZM27.0817 19.9438 L27.0817 18.5015 L28.7043 18.5015 L28.7043 19.9438 ZM31.0817 27.1553 L31.0817 18.3212 L32.7043 18.3212 L32.7043 27.1553 ZM38.1466 27.1553 Q37.6058 27.3356 37.2452 27.3356 Q35.0817 27.3356 35.0817 25.3525 L35.0817 21.927 L34.3606 21.927 L34.3606 21.0255 L35.0817 21.0255 L35.0817 19.9438 L36.7043 19.7635 L36.7043 21.0255 L38.1466 21.0255 L38.1466 21.927 L36.7043 21.927 L36.7043 24.9919 Q36.7043 26.2539 37.7861 26.2539 Q37.9663 26.2539 38.1466 26.0736 ZM45.1298 26.9751 Q43.8678 27.3356 42.7861 27.3356 Q41.3438 27.3356 40.4423 26.4342 Q39.5409 25.5328 39.5409 24.0904 Q39.5409 22.6481 40.3522 21.7467 Q41.1635 20.8453 42.4255 20.8453 Q43.8678 20.8453 44.4988 21.6566 Q45.1298 22.4678 45.1298 24.451 L41.1635 24.451 Q41.3438 26.0736 43.1466 26.0736 Q44.0481 26.0736 45.1298 25.713 ZM41.1635 23.3693 L43.5072 23.3693 Q43.5072 21.927 42.4255 21.927 Q41.3438 21.927 41.1635 23.3693 ZM47.0817 27.1553 L47.0817 21.0255 L48.7043 21.0255 L48.7043 22.1073 Q49.4255 20.8453 50.6875 20.8453 Q50.8678 20.8453 51.0481 20.8453 L51.0481 22.2876 Q50.6875 22.2876 50.3269 22.2876 Q49.4255 22.2876 48.7043 23.189 L48.7043 27.1553 Z" style="clip-path:url(#clipPath4); stroke:none;" />
    </g>
    <g style="text-rendering:geometricPrecision; font-size:13; font-family:&apos;Lucida Grande&apos;;" transform="translate(462,12)">
      <path d="M4.0817 14.1553 L4.0817 5.8621 L5.7043 5.8621 L5.7043 9.2876 L9.3101 9.2876 L9.3101 5.8621 L10.9327 5.8621 L10.9327 14.1553 L9.3101 14.1553 L9.3101 10.3693 L5.7043 10.3693 L5.7043 14.1553 ZM15.0649 14.1553 L15.0649 6.9438 L12.1803 6.9438 L12.1803 5.8621 L19.7524 5.8621 L19.7524 6.9438 L16.8678 6.9438 L16.8678 14.1553 ZM23.0649 14.1553 L23.0649 6.9438 L20.1803 6.9438 L20.1803 5.8621 L27.7524 5.8621 L27.7524 6.9438 L24.8678 6.9438 L24.8678 14.1553 ZM29.0817 14.1553 L29.0817 5.8621 L31.9663 5.8621 Q33.4087 5.8621 34.1298 6.3128 Q34.851 6.7635 34.851 8.0255 Q34.851 9.4678 33.9495 10.189 Q33.0481 10.9102 31.4255 10.9102 L30.7043 10.9102 L30.7043 14.1553 ZM30.7043 9.8284 L31.0649 9.8284 Q31.9663 9.8284 32.5072 9.3777 Q33.0481 8.927 33.0481 8.2058 Q33.0481 6.9438 31.4255 6.9438 L30.7043 6.9438 ZM39.9014 13.9751 L39.9014 12.713 Q41.1635 13.2539 42.0649 13.2539 Q42.9663 13.2539 42.9663 12.5328 Q42.9663 12.1722 42.2452 11.8116 L41.7043 11.451 Q40.6226 11.0904 40.262 10.7299 Q39.9014 10.3693 39.9014 9.6481 Q39.9014 8.7467 40.5325 8.296 Q41.1635 7.8453 42.4255 7.8453 Q43.1466 7.8453 44.2284 8.0255 L44.2284 9.2876 Q43.3269 8.927 42.6058 8.927 Q41.524 8.927 41.524 9.4678 Q41.524 10.0087 42.2452 10.189 L42.7861 10.3693 Q43.8678 10.9102 44.3185 11.2707 Q44.7692 11.6313 44.7692 12.3525 Q44.7692 13.2539 44.0481 13.7948 Q43.3269 14.3356 42.0649 14.3356 Q40.9832 14.3356 39.9014 13.9751 ZM52.1298 13.9751 Q50.8678 14.3356 49.7861 14.3356 Q48.3438 14.3356 47.4423 13.4342 Q46.5409 12.5328 46.5409 11.0904 Q46.5409 9.6481 47.3522 8.7467 Q48.1635 7.8453 49.4255 7.8453 Q50.8678 7.8453 51.4988 8.6566 Q52.1298 9.4678 52.1298 11.451 L48.1635 11.451 Q48.3438 13.0736 50.1466 13.0736 Q51.0481 13.0736 52.1298 12.713 ZM48.1635 10.3693 L50.5072 10.3693 Q50.5072 8.927 49.4255 8.927 Q48.3438 8.927 48.1635 10.3693 ZM54.0817 14.1553 L54.0817 8.0255 L55.7043 8.0255 L55.7043 9.1073 Q56.4255 7.8453 57.6875 7.8453 Q57.8678 7.8453 58.0481 7.8453 L58.0481 9.2876 Q57.6875 9.2876 57.3269 9.2876 Q56.4255 9.2876 55.7043 10.189 L55.7043 14.1553 ZM60.524 14.1553 L58.1803 8.0255 L59.9832 8.0255 L61.7861 12.3525 L63.4087 8.0255 L64.6707 8.0255 L62.3269 14.1553 ZM71.1298 13.9751 Q69.8678 14.3356 68.7861 14.3356 Q67.3438 14.3356 66.4423 13.4342 Q65.5409 12.5328 65.5409 11.0904 Q65.5409 9.6481 66.3522 8.7467 Q67.1635 7.8453 68.4255 7.8453 Q69.8678 7.8453 70.4988 8.6566 Q71.1298 9.4678 71.1298 11.451 L67.1635 11.451 Q67.3438 13.0736 69.1466 13.0736 Q70.0481 13.0736 71.1298 12.713 ZM67.1635 10.3693 L69.5072 10.3693 Q69.5072 8.927 68.4255 8.927 Q67.3438 8.927 67.1635 10.3693 ZM73.0817 14.1553 L73.0817 8.0255 L74.7043 8.0255 L74.7043 9.1073 Q75.4255 7.8453 76.6875 7.8453 Q76.8678 7.8453 77.0481 7.8453 L77.0481 9.2876 Q76.6875 9.2876 76.3269 9.2876 Q75.4255 9.2876 74.7043 10.189 L74.7043 14.1553 Z" style="clip-path:url(#clipPath6); stroke:none;" />
      <path d="M25.0817 27.1553 L25.0817 18.8621 L30.3101 18.8621 L30.3101 19.9438 L26.7043 19.9438 L26.7043 22.4678 L29.5889 22.4678 L29.5889 23.7299 L26.7043 23.7299 L26.7043 27.1553 ZM32.0817 27.1553 L32.0817 21.0255 L33.7043 21.0255 L33.7043 27.1553 ZM32.0817 19.9438 L32.0817 18.5015 L33.7043 18.5015 L33.7043 19.9438 ZM36.0817 27.1553 L36.0817 18.3212 L37.7043 18.3212 L37.7043 27.1553 ZM43.1466 27.1553 Q42.6058 27.3356 42.2452 27.3356 Q40.0817 27.3356 40.0817 25.3525 L40.0817 21.927 L39.3606 21.927 L39.3606 21.0255 L40.0817 21.0255 L40.0817 19.9438 L41.7043 19.7635 L41.7043 21.0255 L43.1466 21.0255 L43.1466 21.927 L41.7043 21.927 L41.7043 24.9919 Q41.7043 26.2539 42.7861 26.2539 Q42.9663 26.2539 43.1466 26.0736 ZM50.1298 26.9751 Q48.8678 27.3356 47.7861 27.3356 Q46.3438 27.3356 45.4423 26.4342 Q44.5409 25.5328 44.5409 24.0904 Q44.5409 22.6481 45.3522 21.7467 Q46.1635 20.8453 47.4255 20.8453 Q48.8678 20.8453 49.4988 21.6566 Q50.1298 22.4678 50.1298 24.451 L46.1635 24.451 Q46.3438 26.0736 48.1466 26.0736 Q49.0481 26.0736 50.1298 25.713 ZM46.1635 23.3693 L48.5072 23.3693 Q48.5072 21.927 47.4255 21.927 Q46.3438 21.927 46.1635 23.3693 ZM52.0817 27.1553 L52.0817 21.0255 L53.7043 21.0255 L53.7043 22.1073 Q54.4255 20.8453 55.6875 20.8453 Q55.8678 20.8453 56.0481 20.8453 L56.0481 22.2876 Q55.6875 22.2876 55.3269 22.2876 Q54.4255 22.2876 53.7043 23.189 L53.7043 27.1553 Z" style="clip-path:url(#clipPath6); stroke:none;" />
    </g>
    <g transform="translate(322,82)" style="font-size:11; fill:rgb(243,231,248); text-rendering:geometricPrecision; font-family:sans-serif; stroke:rgb(243,231,248);">
      <path d="M0 0 L20 30 L0 59 L90 59 L109 30 L90 0 Z" style="clip-path:url(#clipPath2); stroke:none;" />
    </g>
    <g transform="translate(322,82)" style="stroke-linecap:butt; font-size:11; fill:rgb(204,147,225); text-rendering:geometricPrecision; font-family:sans-serif; stroke-linejoin:bevel; stroke:rgb(204,147,225); stroke-miterlimit:0;">
      <path d="M0 0 L20 30 L0 59 L90 59 L109 30 L90 0 Z" style="fill:none; clip-path:url(#clipPath2);" />
    </g>
    <g transform="translate(442,82)" style="font-size:11; fill:rgb(243,231,248); text-rendering:geometricPrecision; font-family:sans-serif; stroke:rgb(243,231,248);">
      <path d="M0 0 L20 30 L0 59 L90 59 L109 30 L90 0 Z" style="clip-path:url(#clipPath2); stroke:none;" />
    </g>
    <g transform="translate(442,82)" style="stroke-linecap:butt; font-size:11; fill:rgb(204,147,225); text-rendering:geometricPrecision; font-family:sans-serif; stroke-linejoin:bevel; stroke:rgb(204,147,225); stroke-miterlimit:0;">
      <path d="M0 0 L20 30 L0 59 L90 59 L109 30 L90 0 Z" style="fill:none; clip-path:url(#clipPath2);" />
    </g>
    <g style="text-rendering:geometricPrecision; font-size:13; font-family:&apos;Lucida Grande&apos;;" transform="translate(342,92)">
      <path d="M27.7524 13.9751 Q26.1298 14.3356 25.0481 14.3356 Q22.8846 14.3356 21.7127 13.2539 Q20.5409 12.1722 20.5409 10.0087 Q20.5409 7.8453 21.7127 6.7635 Q22.8846 5.6818 25.0481 5.6818 Q26.3101 5.6818 27.7524 5.8621 L27.7524 7.3044 Q26.1298 6.7635 25.0481 6.7635 Q23.7861 6.7635 23.0649 7.5748 Q22.3438 8.3861 22.3438 10.0087 Q22.3438 11.451 23.155 12.3525 Q23.9663 13.2539 25.2284 13.2539 Q25.5889 13.2539 25.9495 13.0736 L25.9495 10.3693 L27.7524 10.3693 ZM30.0817 14.1553 L30.0817 5.8621 L31.7043 5.8621 L31.7043 14.1553 ZM37.6875 14.3356 Q35.8846 14.3356 34.7127 13.1638 Q33.5409 11.9919 33.5409 10.0087 Q33.5409 8.0255 34.7127 6.8537 Q35.8846 5.6818 37.6875 5.6818 Q39.6707 5.6818 40.8425 6.8537 Q42.0144 8.0255 42.0144 10.0087 Q42.0144 11.9919 40.8425 13.1638 Q39.6707 14.3356 37.6875 14.3356 ZM37.6875 13.2539 Q38.7692 13.2539 39.4904 12.3525 Q40.2115 11.451 40.2115 10.0087 Q40.2115 8.5664 39.4904 7.665 Q38.7692 6.7635 37.6875 6.7635 Q36.6058 6.7635 35.9748 7.665 Q35.3438 8.5664 35.3438 10.0087 Q35.3438 11.451 35.9748 12.3525 Q36.6058 13.2539 37.6875 13.2539 ZM43.0817 14.1553 L43.0817 5.8621 L45.9663 5.8621 Q47.4087 5.8621 48.1298 6.3128 Q48.851 6.7635 48.851 8.0255 Q48.851 9.4678 47.9495 10.189 Q47.0481 10.9102 45.4255 10.9102 L44.7043 10.9102 L44.7043 14.1553 ZM44.7043 9.8284 L45.0649 9.8284 Q45.9663 9.8284 46.5072 9.3777 Q47.0481 8.927 47.0481 8.2058 Q47.0481 6.9438 45.4255 6.9438 L44.7043 6.9438 Z" style="clip-path:url(#clipPath4); stroke:none;" />
      <path d="M20.0817 27.1553 L20.0817 18.8621 L25.3101 18.8621 L25.3101 19.9438 L21.7043 19.9438 L21.7043 22.4678 L24.5889 22.4678 L24.5889 23.7299 L21.7043 23.7299 L21.7043 27.1553 ZM27.0817 27.1553 L27.0817 21.0255 L28.7043 21.0255 L28.7043 27.1553 ZM27.0817 19.9438 L27.0817 18.5015 L28.7043 18.5015 L28.7043 19.9438 ZM31.0817 27.1553 L31.0817 18.3212 L32.7043 18.3212 L32.7043 27.1553 ZM38.1466 27.1553 Q37.6058 27.3356 37.2452 27.3356 Q35.0817 27.3356 35.0817 25.3525 L35.0817 21.927 L34.3606 21.927 L34.3606 21.0255 L35.0817 21.0255 L35.0817 19.9438 L36.7043 19.7635 L36.7043 21.0255 L38.1466 21.0255 L38.1466 21.927 L36.7043 21.927 L36.7043 24.9919 Q36.7043 26.2539 37.7861 26.2539 Q37.9663 26.2539 38.1466 26.0736 ZM45.1298 26.9751 Q43.8678 27.3356 42.7861 27.3356 Q41.3438 27.3356 40.4423 26.4342 Q39.5409 25.5328 39.5409 24.0904 Q39.5409 22.6481 40.3522 21.7467 Q41.1635 20.8453 42.4255 20.8453 Q43.8678 20.8453 44.4988 21.6566 Q45.1298 22.4678 45.1298 24.451 L41.1635 24.451 Q41.3438 26.0736 43.1466 26.0736 Q44.0481 26.0736 45.1298 25.713 ZM41.1635 23.3693 L43.5072 23.3693 Q43.5072 21.927 42.4255 21.927 Q41.3438 21.927 41.1635 23.3693 ZM47.0817 27.1553 L47.0817 21.0255 L48.7043 21.0255 L48.7043 22.1073 Q49.4255 20.8453 50.6875 20.8453 Q50.8678 20.8453 51.0481 20.8453 L51.0481 22.2876 Q50.6875 22.2876 50.3269 22.2876 Q49.4255 22.2876 48.7043 23.189 L48.7043 27.1553 Z" style="clip-path:url(#clipPath4); stroke:none;" />
    </g>
    <g style="text-rendering:geometricPrecision; font-size:13; font-family:&apos;Lucida Grande&apos;;" transform="translate(452,92)">
      <path d="M13.7524 13.7948 Q12.4904 14.3356 10.8678 14.3356 Q8.8846 14.3356 7.7127 13.1638 Q6.5409 11.9919 6.5409 10.0087 Q6.5409 7.8453 7.7127 6.7635 Q8.8846 5.6818 11.0481 5.6818 Q12.3101 5.6818 13.7524 5.8621 L13.7524 7.3044 Q12.1298 6.7635 11.0481 6.7635 Q9.7861 6.7635 9.0649 7.5748 Q8.3438 8.3861 8.3438 10.0087 Q8.3438 11.451 9.155 12.2623 Q9.9663 13.0736 11.2284 13.0736 Q12.4904 13.0736 13.7524 12.5328 ZM17.6058 14.3356 Q16.1635 14.3356 15.3522 13.4342 Q14.5409 12.5328 14.5409 11.0904 Q14.5409 9.6481 15.3522 8.7467 Q16.1635 7.8453 17.6058 7.8453 Q19.2284 7.8453 20.0397 8.7467 Q20.851 9.6481 20.851 11.0904 Q20.851 12.5328 20.0397 13.4342 Q19.2284 14.3356 17.6058 14.3356 ZM17.6058 13.2539 Q19.0481 13.2539 19.0481 11.0904 Q19.0481 10.0087 18.6875 9.4678 Q18.3269 8.927 17.6058 8.927 Q17.0649 8.927 16.7043 9.4678 Q16.3438 10.0087 16.3438 11.0904 Q16.3438 11.9919 16.7043 12.6229 Q17.0649 13.2539 17.6058 13.2539 ZM22.0817 14.1553 L22.0817 8.0255 L23.7043 8.0255 L23.7043 9.1073 Q24.4255 7.8453 25.6875 7.8453 Q25.8678 7.8453 26.0481 7.8453 L26.0481 9.2876 Q25.6875 9.2876 25.3269 9.2876 Q24.4255 9.2876 23.7043 10.189 L23.7043 14.1553 ZM27.0817 14.1553 L27.0817 5.3212 L28.7043 5.3212 L28.7043 9.1073 Q29.4255 7.8453 30.6875 7.8453 Q31.7692 7.8453 32.4904 8.6566 Q33.2115 9.4678 33.2115 10.9102 Q33.2115 12.3525 32.4904 13.3441 Q31.7692 14.3356 30.5072 14.3356 Q29.4255 14.3356 28.7043 13.6145 L28.3438 14.1553 ZM28.7043 12.5328 Q29.2452 13.2539 29.9663 13.2539 Q30.6875 13.2539 31.0481 12.6229 Q31.4087 11.9919 31.4087 11.0904 Q31.4087 9.1073 30.1466 9.1073 Q29.4255 9.1073 28.7043 10.0087 ZM38.1466 13.4342 Q37.2452 14.3356 36.3438 14.3356 Q35.4423 14.3356 34.9916 13.7948 Q34.5409 13.2539 34.5409 12.5328 Q34.5409 11.451 35.3522 10.9102 Q36.1635 10.3693 37.6058 10.3693 L38.1466 10.3693 L38.1466 9.8284 Q38.1466 8.927 37.0649 8.927 Q35.9832 8.927 35.0817 9.4678 L35.0817 8.2058 Q36.1635 7.8453 37.2452 7.8453 Q39.5889 7.8453 39.5889 9.8284 L39.5889 12.5328 Q39.5889 13.2539 40.1298 13.2539 Q40.3101 13.2539 40.3101 13.2539 L40.4904 14.1553 Q39.9495 14.3356 39.4087 14.3356 Q38.5072 14.3356 38.1466 13.4342 ZM38.1466 12.5328 L38.1466 11.2707 L37.6058 11.2707 Q35.9832 11.2707 35.9832 12.3525 Q35.9832 12.713 36.2536 12.8933 Q36.524 13.0736 36.8846 13.0736 Q37.4255 13.0736 38.1466 12.5328 ZM45.9014 13.9751 L45.9014 12.713 Q47.1635 13.2539 48.0649 13.2539 Q48.9663 13.2539 48.9663 12.5328 Q48.9663 12.1722 48.2452 11.8116 L47.7043 11.451 Q46.6226 11.0904 46.262 10.7299 Q45.9014 10.3693 45.9014 9.6481 Q45.9014 8.7467 46.5325 8.296 Q47.1635 7.8453 48.4255 7.8453 Q49.1466 7.8453 50.2284 8.0255 L50.2284 9.2876 Q49.3269 8.927 48.6058 8.927 Q47.524 8.927 47.524 9.4678 Q47.524 10.0087 48.2452 10.189 L48.7861 10.3693 Q49.8678 10.9102 50.3185 11.2707 Q50.7692 11.6313 50.7692 12.3525 Q50.7692 13.2539 50.0481 13.7948 Q49.3269 14.3356 48.0649 14.3356 Q46.9832 14.3356 45.9014 13.9751 ZM58.1298 13.9751 Q56.8678 14.3356 55.7861 14.3356 Q54.3438 14.3356 53.4423 13.4342 Q52.5409 12.5328 52.5409 11.0904 Q52.5409 9.6481 53.3522 8.7467 Q54.1635 7.8453 55.4255 7.8453 Q56.8678 7.8453 57.4988 8.6566 Q58.1298 9.4678 58.1298 11.451 L54.1635 11.451 Q54.3438 13.0736 56.1466 13.0736 Q57.0481 13.0736 58.1298 12.713 ZM54.1635 10.3693 L56.5072 10.3693 Q56.5072 8.927 55.4255 8.927 Q54.3438 8.927 54.1635 10.3693 ZM60.0817 14.1553 L60.0817 8.0255 L61.7043 8.0255 L61.7043 9.1073 Q62.4255 7.8453 63.6875 7.8453 Q63.8678 7.8453 64.0481 7.8453 L64.0481 9.2876 Q63.6875 9.2876 63.3269 9.2876 Q62.4255 9.2876 61.7043 10.189 L61.7043 14.1553 ZM66.524 14.1553 L64.1803 8.0255 L65.9832 8.0255 L67.7861 12.3525 L69.4087 8.0255 L70.6707 8.0255 L68.3269 14.1553 ZM77.1298 13.9751 Q75.8678 14.3356 74.7861 14.3356 Q73.3438 14.3356 72.4423 13.4342 Q71.5409 12.5328 71.5409 11.0904 Q71.5409 9.6481 72.3522 8.7467 Q73.1635 7.8453 74.4255 7.8453 Q75.8678 7.8453 76.4988 8.6566 Q77.1298 9.4678 77.1298 11.451 L73.1635 11.451 Q73.3438 13.0736 75.1466 13.0736 Q76.0481 13.0736 77.1298 12.713 ZM73.1635 10.3693 L75.5072 10.3693 Q75.5072 8.927 74.4255 8.927 Q73.3438 8.927 73.1635 10.3693 ZM79.0817 14.1553 L79.0817 8.0255 L80.7043 8.0255 L80.7043 9.1073 Q81.4255 7.8453 82.6875 7.8453 Q82.8678 7.8453 83.0481 7.8453 L83.0481 9.2876 Q82.6875 9.2876 82.3269 9.2876 Q81.4255 9.2876 80.7043 10.189 L80.7043 14.1553 Z" style="clip-path:url(#clipPath8); stroke:none;" />
      <path d="M30.0817 27.1553 L30.0817 18.8621 L35.3101 18.8621 L35.3101 19.9438 L31.7043 19.9438 L31.7043 22.4678 L34.5889 22.4678 L34.5889 23.7299 L31.7043 23.7299 L31.7043 27.1553 ZM37.0817 27.1553 L37.0817 21.0255 L38.7043 21.0255 L38.7043 27.1553 ZM37.0817 19.9438 L37.0817 18.5015 L38.7043 18.5015 L38.7043 19.9438 ZM41.0817 27.1553 L41.0817 18.3212 L42.7043 18.3212 L42.7043 27.1553 ZM48.1466 27.1553 Q47.6058 27.3356 47.2452 27.3356 Q45.0817 27.3356 45.0817 25.3525 L45.0817 21.927 L44.3606 21.927 L44.3606 21.0255 L45.0817 21.0255 L45.0817 19.9438 L46.7043 19.7635 L46.7043 21.0255 L48.1466 21.0255 L48.1466 21.927 L46.7043 21.927 L46.7043 24.9919 Q46.7043 26.2539 47.7861 26.2539 Q47.9663 26.2539 48.1466 26.0736 ZM55.1298 26.9751 Q53.8678 27.3356 52.7861 27.3356 Q51.3438 27.3356 50.4423 26.4342 Q49.5409 25.5328 49.5409 24.0904 Q49.5409 22.6481 50.3522 21.7467 Q51.1635 20.8453 52.4255 20.8453 Q53.8678 20.8453 54.4988 21.6566 Q55.1298 22.4678 55.1298 24.451 L51.1635 24.451 Q51.3438 26.0736 53.1466 26.0736 Q54.0481 26.0736 55.1298 25.713 ZM51.1635 23.3693 L53.5072 23.3693 Q53.5072 21.927 52.4255 21.927 Q51.3438 21.927 51.1635 23.3693 ZM57.0817 27.1553 L57.0817 21.0255 L58.7043 21.0255 L58.7043 22.1073 Q59.4255 20.8453 60.6875 20.8453 Q60.8678 20.8453 61.0481 20.8453 L61.0481 22.2876 Q60.6875 22.2876 60.3269 22.2876 Q59.4255 22.2876 58.7043 23.189 L58.7043 27.1553 Z" style="clip-path:url(#clipPath8); stroke:none;" />
    </g>
    <g transform="translate(322,162)" style="font-size:11; fill:rgb(243,231,248); text-rendering:geometricPrecision; font-family:sans-serif; stroke:rgb(243,231,248);">
      <path d="M0 0 L20 30 L0 59 L90 59 L109 30 L90 0 Z" style="clip-path:url(#clipPath2); stroke:none;" />
    </g>
    <g transform="translate(322,162)" style="stroke-linecap:butt; font-size:11; fill:rgb(204,147,225); text-rendering:geometricPrecision; font-family:sans-serif; stroke-linejoin:bevel; stroke:rgb(204,147,225); stroke-miterlimit:0;">
      <path d="M0 0 L20 30 L0 59 L90 59 L109 30 L90 0 Z" style="fill:none; clip-path:url(#clipPath2);" />
    </g>
    <g transform="translate(342,172)" style="text-rendering:geometricPrecision; font-size:11.5385; font-weight:bold; font-family:sans-serif;">
      <text x="3" y="15" style="clip-path:url(#clipPath4); stroke:none;" xml:space="preserve">MyCustom</text>
      <path d="M22.0817 29.1553 L22.0817 20.8621 L27.3101 20.8621 L27.3101 21.9438 L23.7043 21.9438 L23.7043 24.4678 L26.5889 24.4678 L26.5889 25.7299 L23.7043 25.7299 L23.7043 29.1553 ZM29.0817 29.1553 L29.0817 23.0255 L30.7043 23.0255 L30.7043 29.1553 ZM29.0817 21.9438 L29.0817 20.5015 L30.7043 20.5015 L30.7043 21.9438 ZM33.0817 29.1553 L33.0817 20.3212 L34.7043 20.3212 L34.7043 29.1553 ZM40.1466 29.1553 Q39.6058 29.3356 39.2452 29.3356 Q37.0817 29.3356 37.0817 27.3525 L37.0817 23.927 L36.3606 23.927 L36.3606 23.0255 L37.0817 23.0255 L37.0817 21.9438 L38.7043 21.7635 L38.7043 23.0255 L40.1466 23.0255 L40.1466 23.927 L38.7043 23.927 L38.7043 26.9919 Q38.7043 28.2539 39.7861 28.2539 Q39.9663 28.2539 40.1466 28.0736 ZM47.1298 28.9751 Q45.8678 29.3356 44.7861 29.3356 Q43.3438 29.3356 42.4423 28.4342 Q41.5409 27.5328 41.5409 26.0904 Q41.5409 24.6481 42.3522 23.7467 Q43.1635 22.8453 44.4255 22.8453 Q45.8678 22.8453 46.4988 23.6566 Q47.1298 24.4678 47.1298 26.451 L43.1635 26.451 Q43.3438 28.0736 45.1466 28.0736 Q46.0481 28.0736 47.1298 27.713 ZM43.1635 25.3693 L45.5072 25.3693 Q45.5072 23.927 44.4255 23.927 Q43.3438 23.927 43.1635 25.3693 ZM49.0817 29.1553 L49.0817 23.0255 L50.7043 23.0255 L50.7043 24.1073 Q51.4255 22.8453 52.6875 22.8453 Q52.8678 22.8453 53.0481 22.8453 L53.0481 24.2876 Q52.6875 24.2876 52.3269 24.2876 Q51.4255 24.2876 50.7043 25.189 L50.7043 29.1553 Z" style="clip-path:url(#clipPath4); stroke:none;" />
    </g>
    <g transform="translate(132,2)" style="font-size:11; fill:rgb(243,231,248); text-rendering:geometricPrecision; font-family:sans-serif; stroke:rgb(243,231,248);">
      <path d="M0 0 L20 110 L0 219 L90 219 L109 110 L90 0 Z" style="clip-path:url(#clipPath10); stroke:none;" />
    </g>
    <g transform="translate(132,2)" style="stroke-linecap:butt; font-size:11; fill:rgb(204,147,225); text-rendering:geometricPrecision; font-family:sans-serif; stroke-linejoin:bevel; stroke:rgb(204,147,225); stroke-miterlimit:0;">
      <path d="M0 0 L20 110 L0 219 L90 219 L109 110 L90 0 Z" style="fill:none; clip-path:url(#clipPath10);" />
    </g>
    <g transform="translate(182,2)" style="font-size:11; fill:rgb(192,192,255); text-rendering:geometricPrecision; font-family:sans-serif; stroke:rgb(192,192,255);">
      <ellipse style="clip-path:url(#clipPath1); stroke:none;" rx="54.5" cx="54.5" ry="29.5" cy="29.5" />
    </g>
    <g transform="translate(182,2)" style="font-size:11; stroke-linecap:butt; fill:rgb(128,128,255); text-rendering:geometricPrecision; font-family:sans-serif; stroke-linejoin:round; stroke:rgb(128,128,255);">
      <ellipse style="clip-path:url(#clipPath1); fill:none;" rx="54.5" cx="54.5" ry="29.5" cy="29.5" />
    </g>
    <g style="text-rendering:geometricPrecision; font-size:13; font-family:&apos;Lucida Grande&apos;;" transform="translate(202,12)">
      <path d="M20.0817 14.1553 L20.0817 5.8621 L21.7043 5.8621 L21.7043 9.2876 L25.3101 9.2876 L25.3101 5.8621 L26.9327 5.8621 L26.9327 14.1553 L25.3101 14.1553 L25.3101 10.3693 L21.7043 10.3693 L21.7043 14.1553 ZM31.0649 14.1553 L31.0649 6.9438 L28.1803 6.9438 L28.1803 5.8621 L35.7524 5.8621 L35.7524 6.9438 L32.8678 6.9438 L32.8678 14.1553 ZM39.0649 14.1553 L39.0649 6.9438 L36.1803 6.9438 L36.1803 5.8621 L43.7524 5.8621 L43.7524 6.9438 L40.8678 6.9438 L40.8678 14.1553 ZM45.0817 14.1553 L45.0817 5.8621 L47.9663 5.8621 Q49.4087 5.8621 50.1298 6.3128 Q50.851 6.7635 50.851 8.0255 Q50.851 9.4678 49.9495 10.189 Q49.0481 10.9102 47.4255 10.9102 L46.7043 10.9102 L46.7043 14.1553 ZM46.7043 9.8284 L47.0649 9.8284 Q47.9663 9.8284 48.5072 9.3777 Q49.0481 8.927 49.0481 8.2058 Q49.0481 6.9438 47.4255 6.9438 L46.7043 6.9438 Z" style="clip-path:url(#clipPath12); stroke:none;" />
      <path d="M16.0817 27.1553 L16.0817 18.8621 L21.3101 18.8621 L21.3101 19.9438 L17.7043 19.9438 L17.7043 22.4678 L20.5889 22.4678 L20.5889 23.7299 L17.7043 23.7299 L17.7043 27.1553 ZM23.0817 27.1553 L23.0817 21.0255 L24.7043 21.0255 L24.7043 27.1553 ZM23.0817 19.9438 L23.0817 18.5015 L24.7043 18.5015 L24.7043 19.9438 ZM27.0817 27.1553 L27.0817 21.0255 L28.7043 21.0255 L28.7043 22.1073 Q29.6058 20.8453 30.8678 20.8453 Q31.5889 20.8453 32.1298 21.3861 Q32.6707 21.927 32.6707 22.8284 L32.6707 27.1553 L30.8678 27.1553 L30.8678 23.189 Q30.8678 22.1073 30.3269 22.1073 Q29.4255 22.1073 28.7043 23.189 L28.7043 27.1553 ZM38.8678 27.1553 L38.8678 26.0736 Q38.3269 27.3356 36.8846 27.3356 Q35.8029 27.3356 35.1719 26.5243 Q34.5409 25.713 34.5409 24.2707 Q34.5409 22.6481 35.262 21.7467 Q35.9832 20.8453 37.2452 20.8453 Q38.1466 20.8453 38.8678 21.5664 L38.8678 18.3212 L40.6707 18.3212 L40.6707 27.1553 ZM38.8678 22.6481 Q38.3269 21.927 37.6058 21.927 Q37.0649 21.927 36.7043 22.4678 Q36.3438 23.0087 36.3438 24.0904 Q36.3438 26.0736 37.6058 26.0736 Q38.3269 26.0736 38.8678 24.9919 ZM48.1298 26.9751 Q46.8678 27.3356 45.7861 27.3356 Q44.3438 27.3356 43.4423 26.4342 Q42.5409 25.5328 42.5409 24.0904 Q42.5409 22.6481 43.3522 21.7467 Q44.1635 20.8453 45.4255 20.8453 Q46.8678 20.8453 47.4988 21.6566 Q48.1298 22.4678 48.1298 24.451 L44.1635 24.451 Q44.3438 26.0736 46.1466 26.0736 Q47.0481 26.0736 48.1298 25.713 ZM44.1635 23.3693 L46.5072 23.3693 Q46.5072 21.927 45.4255 21.927 Q44.3438 21.927 44.1635 23.3693 ZM50.0817 27.1553 L50.0817 21.0255 L51.7043 21.0255 L51.7043 22.1073 Q52.4255 20.8453 53.6875 20.8453 Q53.8678 20.8453 54.0481 20.8453 L54.0481 22.2876 Q53.6875 22.2876 53.3269 22.2876 Q52.4255 22.2876 51.7043 23.189 L51.7043 27.1553 Z" style="clip-path:url(#clipPath12); stroke:none;" />
    </g>
    <g transform="translate(182,82)" style="font-size:11; fill:rgb(192,192,255); text-rendering:geometricPrecision; font-family:sans-serif; stroke:rgb(192,192,255);">
      <ellipse style="clip-path:url(#clipPath1); stroke:none;" rx="54.5" cx="54.5" ry="29.5" cy="29.5" />
    </g>
    <g transform="translate(182,82)" style="font-size:11; stroke-linecap:butt; fill:rgb(128,128,255); text-rendering:geometricPrecision; font-family:sans-serif; stroke-linejoin:round; stroke:rgb(128,128,255);">
      <ellipse style="clip-path:url(#clipPath1); fill:none;" rx="54.5" cx="54.5" ry="29.5" cy="29.5" />
    </g>
    <g style="text-rendering:geometricPrecision; font-size:13; font-family:&apos;Lucida Grande&apos;;" transform="translate(202,92)">
      <path d="M27.7524 13.9751 Q26.1298 14.3356 25.0481 14.3356 Q22.8846 14.3356 21.7127 13.2539 Q20.5409 12.1722 20.5409 10.0087 Q20.5409 7.8453 21.7127 6.7635 Q22.8846 5.6818 25.0481 5.6818 Q26.3101 5.6818 27.7524 5.8621 L27.7524 7.3044 Q26.1298 6.7635 25.0481 6.7635 Q23.7861 6.7635 23.0649 7.5748 Q22.3438 8.3861 22.3438 10.0087 Q22.3438 11.451 23.155 12.3525 Q23.9663 13.2539 25.2284 13.2539 Q25.5889 13.2539 25.9495 13.0736 L25.9495 10.3693 L27.7524 10.3693 ZM30.0817 14.1553 L30.0817 5.8621 L31.7043 5.8621 L31.7043 14.1553 ZM37.6875 14.3356 Q35.8846 14.3356 34.7127 13.1638 Q33.5409 11.9919 33.5409 10.0087 Q33.5409 8.0255 34.7127 6.8537 Q35.8846 5.6818 37.6875 5.6818 Q39.6707 5.6818 40.8425 6.8537 Q42.0144 8.0255 42.0144 10.0087 Q42.0144 11.9919 40.8425 13.1638 Q39.6707 14.3356 37.6875 14.3356 ZM37.6875 13.2539 Q38.7692 13.2539 39.4904 12.3525 Q40.2115 11.451 40.2115 10.0087 Q40.2115 8.5664 39.4904 7.665 Q38.7692 6.7635 37.6875 6.7635 Q36.6058 6.7635 35.9748 7.665 Q35.3438 8.5664 35.3438 10.0087 Q35.3438 11.451 35.9748 12.3525 Q36.6058 13.2539 37.6875 13.2539 ZM43.0817 14.1553 L43.0817 5.8621 L45.9663 5.8621 Q47.4087 5.8621 48.1298 6.3128 Q48.851 6.7635 48.851 8.0255 Q48.851 9.4678 47.9495 10.189 Q47.0481 10.9102 45.4255 10.9102 L44.7043 10.9102 L44.7043 14.1553 ZM44.7043 9.8284 L45.0649 9.8284 Q45.9663 9.8284 46.5072 9.3777 Q47.0481 8.927 47.0481 8.2058 Q47.0481 6.9438 45.4255 6.9438 L44.7043 6.9438 Z" style="clip-path:url(#clipPath12); stroke:none;" />
      <path d="M16.0817 27.1553 L16.0817 18.8621 L21.3101 18.8621 L21.3101 19.9438 L17.7043 19.9438 L17.7043 22.4678 L20.5889 22.4678 L20.5889 23.7299 L17.7043 23.7299 L17.7043 27.1553 ZM23.0817 27.1553 L23.0817 21.0255 L24.7043 21.0255 L24.7043 27.1553 ZM23.0817 19.9438 L23.0817 18.5015 L24.7043 18.5015 L24.7043 19.9438 ZM27.0817 27.1553 L27.0817 21.0255 L28.7043 21.0255 L28.7043 22.1073 Q29.6058 20.8453 30.8678 20.8453 Q31.5889 20.8453 32.1298 21.3861 Q32.6707 21.927 32.6707 22.8284 L32.6707 27.1553 L30.8678 27.1553 L30.8678 23.189 Q30.8678 22.1073 30.3269 22.1073 Q29.4255 22.1073 28.7043 23.189 L28.7043 27.1553 ZM38.8678 27.1553 L38.8678 26.0736 Q38.3269 27.3356 36.8846 27.3356 Q35.8029 27.3356 35.1719 26.5243 Q34.5409 25.713 34.5409 24.2707 Q34.5409 22.6481 35.262 21.7467 Q35.9832 20.8453 37.2452 20.8453 Q38.1466 20.8453 38.8678 21.5664 L38.8678 18.3212 L40.6707 18.3212 L40.6707 27.1553 ZM38.8678 22.6481 Q38.3269 21.927 37.6058 21.927 Q37.0649 21.927 36.7043 22.4678 Q36.3438 23.0087 36.3438 24.0904 Q36.3438 26.0736 37.6058 26.0736 Q38.3269 26.0736 38.8678 24.9919 ZM48.1298 26.9751 Q46.8678 27.3356 45.7861 27.3356 Q44.3438 27.3356 43.4423 26.4342 Q42.5409 25.5328 42.5409 24.0904 Q42.5409 22.6481 43.3522 21.7467 Q44.1635 20.8453 45.4255 20.8453 Q46.8678 20.8453 47.4988 21.6566 Q48.1298 22.4678 48.1298 24.451 L44.1635 24.451 Q44.3438 26.0736 46.1466 26.0736 Q47.0481 26.0736 48.1298 25.713 ZM44.1635 23.3693 L46.5072 23.3693 Q46.5072 21.927 45.4255 21.927 Q44.3438 21.927 44.1635 23.3693 ZM50.0817 27.1553 L50.0817 21.0255 L51.7043 21.0255 L51.7043 22.1073 Q52.4255 20.8453 53.6875 20.8453 Q53.8678 20.8453 54.0481 20.8453 L54.0481 22.2876 Q53.6875 22.2876 53.3269 22.2876 Q52.4255 22.2876 51.7043 23.189 L51.7043 27.1553 Z" style="clip-path:url(#clipPath12); stroke:none;" />
    </g>
    <g transform="translate(182,162)" style="font-size:11; fill:rgb(192,192,255); text-rendering:geometricPrecision; font-family:sans-serif; stroke:rgb(192,192,255);">
      <ellipse style="clip-path:url(#clipPath1); stroke:none;" rx="54.5" cx="54.5" ry="29.5" cy="29.5" />
    </g>
    <g transform="translate(182,162)" style="font-size:11; stroke-linecap:butt; fill:rgb(128,128,255); text-rendering:geometricPrecision; font-family:sans-serif; stroke-linejoin:round; stroke:rgb(128,128,255);">
      <ellipse style="clip-path:url(#clipPath1); fill:none;" rx="54.5" cx="54.5" ry="29.5" cy="29.5" />
    </g>
    <g style="text-rendering:geometricPrecision; font-size:13; font-family:&apos;Lucida Grande&apos;;" transform="translate(202,172)">
      <path d="M4.0817 14.1553 L4.0817 5.8621 L6.4255 5.8621 L8.4087 11.6313 L10.3918 5.8621 L12.375 5.8621 L12.375 14.1553 L10.7524 14.1553 L10.7524 7.8453 L8.7692 13.6145 L7.3269 13.6145 L5.3438 7.8453 L5.3438 14.1553 ZM14.0817 16.3188 L15.524 14.1553 L13.1803 8.0255 L14.9832 8.0255 L16.4255 12.1722 L18.4087 8.0255 L19.6707 8.0255 L15.7043 16.3188 ZM27.7524 13.7948 Q26.4904 14.3356 24.8678 14.3356 Q22.8846 14.3356 21.7127 13.1638 Q20.5409 11.9919 20.5409 10.0087 Q20.5409 7.8453 21.7127 6.7635 Q22.8846 5.6818 25.0481 5.6818 Q26.3101 5.6818 27.7524 5.8621 L27.7524 7.3044 Q26.1298 6.7635 25.0481 6.7635 Q23.7861 6.7635 23.0649 7.5748 Q22.3438 8.3861 22.3438 10.0087 Q22.3438 11.451 23.155 12.2623 Q23.9663 13.0736 25.2284 13.0736 Q26.4904 13.0736 27.7524 12.5328 ZM32.8678 14.1553 L32.8678 13.0736 Q32.1466 14.3356 30.7043 14.3356 Q29.9832 14.3356 29.4423 13.7948 Q28.9014 13.2539 28.9014 12.3525 L28.9014 8.0255 L30.7043 8.0255 L30.7043 11.9919 Q30.7043 12.8933 31.4255 12.8933 Q32.1466 12.8933 32.8678 11.8116 L32.8678 8.0255 L34.4904 8.0255 L34.4904 14.1553 ZM36.9014 13.9751 L36.9014 12.713 Q38.1635 13.2539 39.0649 13.2539 Q39.9663 13.2539 39.9663 12.5328 Q39.9663 12.1722 39.2452 11.8116 L38.7043 11.451 Q37.6226 11.0904 37.262 10.7299 Q36.9014 10.3693 36.9014 9.6481 Q36.9014 8.7467 37.5325 8.296 Q38.1635 7.8453 39.4255 7.8453 Q40.1466 7.8453 41.2284 8.0255 L41.2284 9.2876 Q40.3269 8.927 39.6058 8.927 Q38.524 8.927 38.524 9.4678 Q38.524 10.0087 39.2452 10.189 L39.7861 10.3693 Q40.8678 10.9102 41.3185 11.2707 Q41.7692 11.6313 41.7692 12.3525 Q41.7692 13.2539 41.0481 13.7948 Q40.3269 14.3356 39.0649 14.3356 Q37.9832 14.3356 36.9014 13.9751 ZM47.1466 14.1553 Q46.6058 14.3356 46.2452 14.3356 Q44.0817 14.3356 44.0817 12.3525 L44.0817 8.927 L43.3606 8.927 L43.3606 8.0255 L44.0817 8.0255 L44.0817 6.9438 L45.7043 6.7635 L45.7043 8.0255 L47.1466 8.0255 L47.1466 8.927 L45.7043 8.927 L45.7043 11.9919 Q45.7043 13.2539 46.7861 13.2539 Q46.9663 13.2539 47.1466 13.0736 ZM51.6058 14.3356 Q50.1635 14.3356 49.3522 13.4342 Q48.5409 12.5328 48.5409 11.0904 Q48.5409 9.6481 49.3522 8.7467 Q50.1635 7.8453 51.6058 7.8453 Q53.2284 7.8453 54.0397 8.7467 Q54.851 9.6481 54.851 11.0904 Q54.851 12.5328 54.0397 13.4342 Q53.2284 14.3356 51.6058 14.3356 ZM51.6058 13.2539 Q53.0481 13.2539 53.0481 11.0904 Q53.0481 10.0087 52.6875 9.4678 Q52.3269 8.927 51.6058 8.927 Q51.0649 8.927 50.7043 9.4678 Q50.3438 10.0087 50.3438 11.0904 Q50.3438 11.9919 50.7043 12.6229 Q51.0649 13.2539 51.6058 13.2539 ZM56.0817 14.1553 L56.0817 8.0255 L57.7043 8.0255 L57.7043 9.1073 Q58.4255 7.8453 59.6875 7.8453 Q60.4087 7.8453 60.8594 8.2058 Q61.3101 8.5664 61.4904 9.1073 Q62.2115 7.8453 63.4736 7.8453 Q65.2764 7.8453 65.2764 9.6481 L65.2764 14.1553 L63.6538 14.1553 L63.6538 10.189 Q63.6538 9.1073 62.9327 9.1073 Q62.2115 9.1073 61.4904 10.189 L61.4904 14.1553 L59.8678 14.1553 L59.8678 10.189 Q59.8678 9.1073 59.1466 9.1073 Q58.4255 9.1073 57.7043 10.189 L57.7043 14.1553 Z" style="clip-path:url(#clipPath12); stroke:none;" />
      <path d="M16.0817 27.1553 L16.0817 18.8621 L21.3101 18.8621 L21.3101 19.9438 L17.7043 19.9438 L17.7043 22.4678 L20.5889 22.4678 L20.5889 23.7299 L17.7043 23.7299 L17.7043 27.1553 ZM23.0817 27.1553 L23.0817 21.0255 L24.7043 21.0255 L24.7043 27.1553 ZM23.0817 19.9438 L23.0817 18.5015 L24.7043 18.5015 L24.7043 19.9438 ZM27.0817 27.1553 L27.0817 21.0255 L28.7043 21.0255 L28.7043 22.1073 Q29.6058 20.8453 30.8678 20.8453 Q31.5889 20.8453 32.1298 21.3861 Q32.6707 21.927 32.6707 22.8284 L32.6707 27.1553 L30.8678 27.1553 L30.8678 23.189 Q30.8678 22.1073 30.3269 22.1073 Q29.4255 22.1073 28.7043 23.189 L28.7043 27.1553 ZM38.8678 27.1553 L38.8678 26.0736 Q38.3269 27.3356 36.8846 27.3356 Q35.8029 27.3356 35.1719 26.5243 Q34.5409 25.713 34.5409 24.2707 Q34.5409 22.6481 35.262 21.7467 Q35.9832 20.8453 37.2452 20.8453 Q38.1466 20.8453 38.8678 21.5664 L38.8678 18.3212 L40.6707 18.3212 L40.6707 27.1553 ZM38.8678 22.6481 Q38.3269 21.927 37.6058 21.927 Q37.0649 21.927 36.7043 22.4678 Q36.3438 23.0087 36.3438 24.0904 Q36.3438 26.0736 37.6058 26.0736 Q38.3269 26.0736 38.8678 24.9919 ZM48.1298 26.9751 Q46.8678 27.3356 45.7861 27.3356 Q44.3438 27.3356 43.4423 26.4342 Q42.5409 25.5328 42.5409 24.0904 Q42.5409 22.6481 43.3522 21.7467 Q44.1635 20.8453 45.4255 20.8453 Q46.8678 20.8453 47.4988 21.6566 Q48.1298 22.4678 48.1298 24.451 L44.1635 24.451 Q44.3438 26.0736 46.1466 26.0736 Q47.0481 26.0736 48.1298 25.713 ZM44.1635 23.3693 L46.5072 23.3693 Q46.5072 21.927 45.4255 21.927 Q44.3438 21.927 44.1635 23.3693 ZM50.0817 27.1553 L50.0817 21.0255 L51.7043 21.0255 L51.7043 22.1073 Q52.4255 20.8453 53.6875 20.8453 Q53.8678 20.8453 54.0481 20.8453 L54.0481 22.2876 Q53.6875 22.2876 53.3269 22.2876 Q52.4255 22.2876 51.7043 23.189 L51.7043 27.1553 Z" style="clip-path:url(#clipPath12); stroke:none;" />
    </g>
    <g transform="translate(276,19)" style="font-size:11; stroke-linecap:butt; text-rendering:geometricPrecision; color-rendering:optimizeQuality; font-family:sans-serif; stroke-linejoin:round; stroke-dasharray:4; stroke-miterlimit:1;">
      <path d="M14 14 C26.5 14 51.5 14 64 14" style="fill:none; clip-path:url(#clipPath14); fill-rule:evenodd;" />
    </g>
    <g transform="translate(276,99)" style="font-size:11; stroke-linecap:butt; text-rendering:geometricPrecision; color-rendering:optimizeQuality; font-family:sans-serif; stroke-linejoin:round; stroke-dasharray:4; stroke-miterlimit:1;">
      <path d="M14 14 C26.5 14 51.5 14 64 14" style="fill:none; clip-path:url(#clipPath14); fill-rule:evenodd;" />
    </g>
    <g transform="translate(276,179)" style="font-size:11; stroke-linecap:butt; text-rendering:geometricPrecision; color-rendering:optimizeQuality; font-family:sans-serif; stroke-linejoin:round; stroke-dasharray:4; stroke-miterlimit:1;">
      <path d="M14 14 C26.5 14 51.5 14 64 14" style="fill:none; clip-path:url(#clipPath14); fill-rule:evenodd;" />
    </g>
    <g style="text-rendering:geometricPrecision; font-size:13; font-family:&apos;Lucida Grande&apos;;" transform="translate(102,112) rotate(90) translate(-70,-70)">
      <path d="M4.0817 14.1553 L4.0817 5.8621 L6.9663 5.8621 Q8.4087 5.8621 9.1298 6.3128 Q9.851 6.7635 9.851 8.0255 Q9.851 9.4678 8.9495 10.189 Q8.0481 10.9102 6.4255 10.9102 L5.7043 10.9102 L5.7043 14.1553 ZM5.7043 9.8284 L6.0649 9.8284 Q6.9663 9.8284 7.5072 9.3777 Q8.0481 8.927 8.0481 8.2058 Q8.0481 6.9438 6.4255 6.9438 L5.7043 6.9438 ZM13.6058 14.3356 Q12.1635 14.3356 11.3522 13.4342 Q10.5409 12.5328 10.5409 11.0904 Q10.5409 9.6481 11.3522 8.7467 Q12.1635 7.8453 13.6058 7.8453 Q15.2284 7.8453 16.0397 8.7467 Q16.851 9.6481 16.851 11.0904 Q16.851 12.5328 16.0397 13.4342 Q15.2284 14.3356 13.6058 14.3356 ZM13.6058 13.2539 Q15.0481 13.2539 15.0481 11.0904 Q15.0481 10.0087 14.6875 9.4678 Q14.3269 8.927 13.6058 8.927 Q13.0649 8.927 12.7043 9.4678 Q12.3438 10.0087 12.3438 11.0904 Q12.3438 11.9919 12.7043 12.6229 Q13.0649 13.2539 13.6058 13.2539 ZM18.0817 14.1553 L18.0817 8.0255 L19.7043 8.0255 L19.7043 9.1073 Q20.4255 7.8453 21.6875 7.8453 Q21.8678 7.8453 22.0481 7.8453 L22.0481 9.2876 Q21.6875 9.2876 21.3269 9.2876 Q20.4255 9.2876 19.7043 10.189 L19.7043 14.1553 ZM26.1466 14.1553 Q25.6058 14.3356 25.2452 14.3356 Q23.0817 14.3356 23.0817 12.3525 L23.0817 8.927 L22.3606 8.927 L22.3606 8.0255 L23.0817 8.0255 L23.0817 6.9438 L24.7043 6.7635 L24.7043 8.0255 L26.1466 8.0255 L26.1466 8.927 L24.7043 8.927 L24.7043 11.9919 Q24.7043 13.2539 25.7861 13.2539 Q25.9663 13.2539 26.1466 13.0736 ZM31.9014 5.8621 L33.7043 5.8621 L33.7043 10.9102 Q33.7043 12.1722 34.0649 12.713 Q34.4255 13.2539 35.3269 13.2539 Q36.2284 13.2539 36.5889 12.713 Q36.9495 12.1722 36.9495 11.0904 L36.9495 5.8621 L38.5721 5.8621 L38.5721 10.9102 Q38.5721 12.1722 38.3017 12.713 Q38.0312 13.2539 37.4904 13.7948 Q36.7692 14.3356 35.3269 14.3356 Q33.8846 14.3356 32.9832 13.7948 Q32.4423 13.2539 32.1719 12.6229 Q31.9014 11.9919 31.9014 10.9102 ZM40.0817 14.1553 L40.0817 8.0255 L41.7043 8.0255 L41.7043 9.1073 Q42.6058 7.8453 43.8678 7.8453 Q44.5889 7.8453 45.1298 8.3861 Q45.6707 8.927 45.6707 9.8284 L45.6707 14.1553 L43.8678 14.1553 L43.8678 10.189 Q43.8678 9.1073 43.3269 9.1073 Q42.4255 9.1073 41.7043 10.189 L41.7043 14.1553 ZM48.0817 14.1553 L48.0817 8.0255 L49.7043 8.0255 L49.7043 14.1553 ZM48.0817 6.9438 L48.0817 5.5015 L49.7043 5.5015 L49.7043 6.9438 ZM52.262 14.1553 L52.262 8.927 L51.3606 8.927 L51.3606 8.0255 L52.262 8.0255 L52.262 7.4847 Q52.262 5.1409 54.4255 5.1409 Q55.3269 5.1409 56.0481 5.3212 L56.0481 6.4029 Q55.3269 6.2227 54.7861 6.2227 Q53.8846 6.2227 53.8846 7.4847 L53.8846 8.0255 L55.5072 8.0255 L55.5072 8.927 L53.8846 8.927 L53.8846 14.1553 ZM57.0817 14.1553 L57.0817 8.0255 L58.7043 8.0255 L58.7043 14.1553 ZM57.0817 6.9438 L57.0817 5.5015 L58.7043 5.5015 L58.7043 6.9438 ZM65.5889 13.9751 Q64.5072 14.3356 63.6058 14.3356 Q62.1635 14.3356 61.3522 13.4342 Q60.5409 12.5328 60.5409 11.0904 Q60.5409 9.4678 61.4423 8.6566 Q62.3438 7.8453 63.7861 7.8453 Q64.5072 7.8453 65.5889 8.0255 L65.5889 9.2876 Q64.5072 8.927 63.9663 8.927 Q63.2452 8.927 62.7945 9.4678 Q62.3438 10.0087 62.3438 11.0904 Q62.3438 11.9919 62.7945 12.6229 Q63.2452 13.2539 64.1466 13.2539 Q64.8678 13.2539 65.5889 12.8933 ZM70.1466 13.4342 Q69.2452 14.3356 68.3438 14.3356 Q67.4423 14.3356 66.9916 13.7948 Q66.5409 13.2539 66.5409 12.5328 Q66.5409 11.451 67.3522 10.9102 Q68.1635 10.3693 69.6058 10.3693 L70.1466 10.3693 L70.1466 9.8284 Q70.1466 8.927 69.0649 8.927 Q67.9832 8.927 67.0817 9.4678 L67.0817 8.2058 Q68.1635 7.8453 69.2452 7.8453 Q71.5889 7.8453 71.5889 9.8284 L71.5889 12.5328 Q71.5889 13.2539 72.1298 13.2539 Q72.3101 13.2539 72.3101 13.2539 L72.4904 14.1553 Q71.9495 14.3356 71.4087 14.3356 Q70.5072 14.3356 70.1466 13.4342 ZM70.1466 12.5328 L70.1466 11.2707 L69.6058 11.2707 Q67.9832 11.2707 67.9832 12.3525 Q67.9832 12.713 68.2536 12.8933 Q68.524 13.0736 68.8846 13.0736 Q69.4255 13.0736 70.1466 12.5328 ZM77.1466 14.1553 Q76.6058 14.3356 76.2452 14.3356 Q74.0817 14.3356 74.0817 12.3525 L74.0817 8.927 L73.3606 8.927 L73.3606 8.0255 L74.0817 8.0255 L74.0817 6.9438 L75.7043 6.7635 L75.7043 8.0255 L77.1466 8.0255 L77.1466 8.927 L75.7043 8.927 L75.7043 11.9919 Q75.7043 13.2539 76.7861 13.2539 Q76.9663 13.2539 77.1466 13.0736 ZM79.0817 14.1553 L79.0817 8.0255 L80.7043 8.0255 L80.7043 14.1553 ZM79.0817 6.9438 L79.0817 5.5015 L80.7043 5.5015 L80.7043 6.9438 ZM85.6058 14.3356 Q84.1635 14.3356 83.3522 13.4342 Q82.5409 12.5328 82.5409 11.0904 Q82.5409 9.6481 83.3522 8.7467 Q84.1635 7.8453 85.6058 7.8453 Q87.2284 7.8453 88.0397 8.7467 Q88.851 9.6481 88.851 11.0904 Q88.851 12.5328 88.0397 13.4342 Q87.2284 14.3356 85.6058 14.3356 ZM85.6058 13.2539 Q87.0481 13.2539 87.0481 11.0904 Q87.0481 10.0087 86.6875 9.4678 Q86.3269 8.927 85.6058 8.927 Q85.0649 8.927 84.7043 9.4678 Q84.3438 10.0087 84.3438 11.0904 Q84.3438 11.9919 84.7043 12.6229 Q85.0649 13.2539 85.6058 13.2539 ZM90.0817 14.1553 L90.0817 8.0255 L91.7043 8.0255 L91.7043 9.1073 Q92.6058 7.8453 93.8678 7.8453 Q94.5889 7.8453 95.1298 8.3861 Q95.6707 8.927 95.6707 9.8284 L95.6707 14.1553 L93.8678 14.1553 L93.8678 10.189 Q93.8678 9.1073 93.3269 9.1073 Q92.4255 9.1073 91.7043 10.189 L91.7043 14.1553 ZM102.0817 14.1553 L102.0817 5.8621 L107.3101 5.8621 L107.3101 6.9438 L103.7043 6.9438 L103.7043 9.4678 L106.5889 9.4678 L106.5889 10.7299 L103.7043 10.7299 L103.7043 14.1553 ZM109.0817 14.1553 L109.0817 8.0255 L110.7043 8.0255 L110.7043 14.1553 ZM109.0817 6.9438 L109.0817 5.5015 L110.7043 5.5015 L110.7043 6.9438 ZM113.0817 14.1553 L113.0817 5.3212 L114.7043 5.3212 L114.7043 14.1553 ZM120.1466 14.1553 Q119.6058 14.3356 119.2452 14.3356 Q117.0817 14.3356 117.0817 12.3525 L117.0817 8.927 L116.3606 8.927 L116.3606 8.0255 L117.0817 8.0255 L117.0817 6.9438 L118.7043 6.7635 L118.7043 8.0255 L120.1466 8.0255 L120.1466 8.927 L118.7043 8.927 L118.7043 11.9919 Q118.7043 13.2539 119.7861 13.2539 Q119.9663 13.2539 120.1466 13.0736 ZM127.1298 13.9751 Q125.8678 14.3356 124.7861 14.3356 Q123.3438 14.3356 122.4423 13.4342 Q121.5409 12.5328 121.5409 11.0904 Q121.5409 9.6481 122.3522 8.7467 Q123.1635 7.8453 124.4255 7.8453 Q125.8678 7.8453 126.4988 8.6566 Q127.1298 9.4678 127.1298 11.451 L123.1635 11.451 Q123.3438 13.0736 125.1466 13.0736 Q126.0481 13.0736 127.1298 12.713 ZM123.1635 10.3693 L125.5072 10.3693 Q125.5072 8.927 124.4255 8.927 Q123.3438 8.927 123.1635 10.3693 ZM129.0817 14.1553 L129.0817 8.0255 L130.7043 8.0255 L130.7043 9.1073 Q131.4255 7.8453 132.6875 7.8453 Q132.8678 7.8453 133.0481 7.8453 L133.0481 9.2876 Q132.6875 9.2876 132.3269 9.2876 Q131.4255 9.2876 130.7043 10.189 L130.7043 14.1553 Z" style="clip-path:url(#clipPath17); stroke:none;" />
    </g>
  </g>
</svg>
