<?xml version="1.0" encoding="UTF-8"?>
<svg xmlns="http://www.w3.org/2000/svg" xmlns:xlink="http://www.w3.org/1999/xlink" fill-opacity="1" color-rendering="auto" color-interpolation="auto" text-rendering="auto" stroke="black" stroke-linecap="square" width="983" stroke-miterlimit="10" shape-rendering="auto" stroke-opacity="1" fill="black" stroke-dasharray="none" font-weight="normal" stroke-width="1" height="774" font-family="'Dialog'" font-style="normal" stroke-linejoin="miter" font-size="12" stroke-dashoffset="0" image-rendering="auto">
  <!--Generated by ySVG-->
  <defs id="genericDefs"/>
  <g>
    <defs id="defs1">
      <linearGradient x1="652.5" gradientUnits="userSpaceOnUse" x2="847.5" y1="314.0625" y2="354.0625" id="linearGradient1" spreadMethod="pad">
        <stop stop-opacity="1" stop-color="rgb(232,238,247)" offset="0%"/>
        <stop stop-opacity="1" stop-color="rgb(183,201,227)" offset="100%"/>
      </linearGradient>
      <linearGradient x1="649.25" gradientUnits="userSpaceOnUse" x2="850.75" y1="398.125" y2="438.125" id="linearGradient2" spreadMethod="pad">
        <stop stop-opacity="1" stop-color="rgb(232,238,247)" offset="0%"/>
        <stop stop-opacity="1" stop-color="rgb(183,201,227)" offset="100%"/>
      </linearGradient>
      <linearGradient x1="659" gradientUnits="userSpaceOnUse" x2="841" y1="481.7292" y2="566.3958" id="linearGradient3" spreadMethod="pad">
        <stop stop-opacity="1" stop-color="rgb(232,238,247)" offset="0%"/>
        <stop stop-opacity="1" stop-color="rgb(183,201,227)" offset="100%"/>
      </linearGradient>
      <linearGradient x1="464" gradientUnits="userSpaceOnUse" x2="586" y1="68.8333" y2="108.8333" id="linearGradient4" spreadMethod="pad">
        <stop stop-opacity="1" stop-color="rgb(232,238,247)" offset="0%"/>
        <stop stop-opacity="1" stop-color="rgb(183,201,227)" offset="100%"/>
      </linearGradient>
      <linearGradient x1="434" gradientUnits="userSpaceOnUse" x2="616" y1="157.6667" y2="242.3333" id="linearGradient5" spreadMethod="pad">
        <stop stop-opacity="1" stop-color="rgb(232,238,247)" offset="0%"/>
        <stop stop-opacity="1" stop-color="rgb(183,201,227)" offset="100%"/>
      </linearGradient>
      <linearGradient x1="659" gradientUnits="userSpaceOnUse" x2="841" y1="230" y2="270" id="linearGradient6" spreadMethod="pad">
        <stop stop-opacity="1" stop-color="rgb(232,238,247)" offset="0%"/>
        <stop stop-opacity="1" stop-color="rgb(183,201,227)" offset="100%"/>
      </linearGradient>
      <linearGradient x1="446.25" gradientUnits="userSpaceOnUse" x2="603.75" y1="-20" y2="20" id="linearGradient7" spreadMethod="pad">
        <stop stop-opacity="1" stop-color="rgb(232,238,247)" offset="0%"/>
        <stop stop-opacity="1" stop-color="rgb(183,201,227)" offset="100%"/>
      </linearGradient>
      <linearGradient x1="534" gradientUnits="userSpaceOnUse" x2="716" y1="596.3958" y2="636.3958" id="linearGradient8" spreadMethod="pad">
        <stop stop-opacity="1" stop-color="rgb(232,238,247)" offset="0%"/>
        <stop stop-opacity="1" stop-color="rgb(183,201,227)" offset="100%"/>
      </linearGradient>
      <linearGradient x1="537.5" gradientUnits="userSpaceOnUse" x2="712.5" y1="683.75" y2="723.75" id="linearGradient9" spreadMethod="pad">
        <stop stop-opacity="1" stop-color="rgb(232,238,247)" offset="0%"/>
        <stop stop-opacity="1" stop-color="rgb(183,201,227)" offset="100%"/>
      </linearGradient>
      <linearGradient x1="152.125" gradientUnits="userSpaceOnUse" x2="404" y1="230" y2="270" id="linearGradient10" spreadMethod="pad">
        <stop stop-opacity="1" stop-color="rgb(232,238,247)" offset="0%"/>
        <stop stop-opacity="1" stop-color="rgb(183,201,227)" offset="100%"/>
      </linearGradient>
      <linearGradient x1="152.2812" gradientUnits="userSpaceOnUse" x2="403.8438" y1="504.0625" y2="544.0625" id="linearGradient11" spreadMethod="pad">
        <stop stop-opacity="1" stop-color="rgb(232,238,247)" offset="0%"/>
        <stop stop-opacity="1" stop-color="rgb(183,201,227)" offset="100%"/>
      </linearGradient>
      <linearGradient x1="187.0625" gradientUnits="userSpaceOnUse" x2="369.0625" y1="371.3125" y2="455.9792" id="linearGradient12" spreadMethod="pad">
        <stop stop-opacity="1" stop-color="rgb(232,238,247)" offset="0%"/>
        <stop stop-opacity="1" stop-color="rgb(183,201,227)" offset="100%"/>
      </linearGradient>
      <linearGradient x1="-52.7188" gradientUnits="userSpaceOnUse" x2="122.2812" y1="447.5" y2="487.5" id="linearGradient13" spreadMethod="pad">
        <stop stop-opacity="1" stop-color="rgb(232,238,247)" offset="0%"/>
        <stop stop-opacity="1" stop-color="rgb(183,201,227)" offset="100%"/>
      </linearGradient>
      <linearGradient x1="177.3125" gradientUnits="userSpaceOnUse" x2="378.8125" y1="683.75" y2="723.75" id="linearGradient14" spreadMethod="pad">
        <stop stop-opacity="1" stop-color="rgb(232,238,247)" offset="0%"/>
        <stop stop-opacity="1" stop-color="rgb(183,201,227)" offset="100%"/>
      </linearGradient>
      <clipPath clipPathUnits="userSpaceOnUse" id="clipPath1">
        <path d="M0 0 L983 0 L983 774 L0 774 L0 0 Z"/>
      </clipPath>
      <clipPath clipPathUnits="userSpaceOnUse" id="clipPath2">
        <path d="M-68 -35 L915 -35 L915 739 L-68 739 L-68 -35 Z"/>
      </clipPath>
    </defs>
    <g fill="white" transform="translate(68,35)" stroke="white">
      <rect x="-68" width="983" height="774" y="-35" clip-path="url(#clipPath2)" stroke="none"/>
    </g>
    <g fill="url(#linearGradient1)" stroke-miterlimit="1.45" transform="matrix(1,0,0,1,68,35)" stroke-linecap="butt" stroke="url(#linearGradient1)">
      <path d="M652.5 314.0625 L847.5 314.0625 L847.5 354.0625 L652.5 354.0625 Z" clip-path="url(#clipPath2)" stroke="none"/>
      <path fill="none" d="M652.5 314.0625 L847.5 314.0625 L847.5 354.0625 L652.5 354.0625 Z" clip-path="url(#clipPath2)" stroke="black"/>
    </g>
    <g font-family="sans-serif" transform="matrix(1,0,0,1,68,35)">
      <text x="663.7354" xml:space="preserve" y="338.5977" clip-path="url(#clipPath2)" stroke="none">puProtocol = getPUProtocol(i)</text>
    </g>
    <g fill="url(#linearGradient2)" stroke-miterlimit="1.45" transform="matrix(1,0,0,1,68,35)" stroke-linecap="butt" stroke="url(#linearGradient2)">
      <rect x="649.25" width="201.5" height="40" y="398.125" clip-path="url(#clipPath2)" stroke="none"/>
      <rect x="649.25" y="398.125" clip-path="url(#clipPath2)" fill="none" width="201.5" height="40" stroke="black"/>
      <path fill="none" d="M659.25 398.125 L659.25 438.125 M840.75 398.125 L840.75 438.125 M659.25 398.125 Z" clip-path="url(#clipPath2)" stroke="black"/>
    </g>
    <g font-family="sans-serif" transform="matrix(1,0,0,1,68,35)">
      <text x="662.3057" xml:space="preserve" y="422.6602" clip-path="url(#clipPath2)" stroke="none">puProtocol.getFinder().find(...)</text>
    </g>
    <g fill="url(#linearGradient3)" stroke-miterlimit="1.45" transform="matrix(1,0,0,1,68,35)" stroke-linecap="butt" stroke="url(#linearGradient3)">
      <path d="M750 481.7292 L841 524.0625 L750 566.3958 L659 524.0625 Z" clip-path="url(#clipPath2)" stroke="none"/>
      <path fill="none" d="M750 481.7292 L841 524.0625 L750 566.3958 L659 524.0625 Z" clip-path="url(#clipPath2)" stroke="black"/>
    </g>
    <g font-family="sans-serif" transform="matrix(1,0,0,1,68,35)">
      <text x="707.2705" xml:space="preserve" y="528.5977" clip-path="url(#clipPath2)" stroke="none">Have decision?</text>
    </g>
    <g fill="url(#linearGradient4)" stroke-miterlimit="1.45" transform="matrix(1,0,0,1,68,35)" stroke-linecap="butt" stroke="url(#linearGradient4)">
      <rect x="464" y="68.8333" clip-path="url(#clipPath2)" width="122" rx="20" ry="20" height="40" stroke="none"/>
      <rect x="464" y="68.8333" clip-path="url(#clipPath2)" fill="none" width="122" rx="20" ry="20" height="40" stroke="black"/>
    </g>
    <g font-family="sans-serif" transform="matrix(1,0,0,1,68,35)">
      <text x="493.8105" xml:space="preserve" y="93.3685" clip-path="url(#clipPath2)" stroke="none">Processing</text>
    </g>
    <g fill="url(#linearGradient5)" stroke-miterlimit="1.45" transform="matrix(1,0,0,1,68,35)" stroke-linecap="butt" stroke="url(#linearGradient5)">
      <path d="M525 157.6667 L616 200 L525 242.3333 L434 200 Z" clip-path="url(#clipPath2)" stroke="none"/>
      <path fill="none" d="M525 157.6667 L616 200 L525 242.3333 L434 200 Z" clip-path="url(#clipPath2)" stroke="black"/>
    </g>
    <g font-family="sans-serif" transform="matrix(1,0,0,1,68,35)">
      <text x="455.6982" xml:space="preserve" y="204.5352" clip-path="url(#clipPath2)" stroke="none">isProtocolRecognized(c)</text>
    </g>
    <g fill="url(#linearGradient6)" stroke-miterlimit="1.45" transform="matrix(1,0,0,1,68,35)" stroke-linecap="butt" stroke="url(#linearGradient6)">
      <path d="M659 230 L841 230 L841 270 L659 270 Z" clip-path="url(#clipPath2)" stroke="none"/>
      <path fill="none" d="M659 230 L841 230 L841 270 L659 270 Z" clip-path="url(#clipPath2)" stroke="black"/>
    </g>
    <g font-family="sans-serif" transform="matrix(1,0,0,1,68,35)">
      <text x="660.7617" xml:space="preserve" y="254.5352" clip-path="url(#clipPath2)" stroke="none">i = getCurrentPUProtocolIdx(c)</text>
    </g>
    <g fill="url(#linearGradient7)" stroke-miterlimit="1.45" transform="matrix(1,0,0,1,68,35)" stroke-linecap="butt" stroke="url(#linearGradient7)">
      <rect x="446.25" y="-20" clip-path="url(#clipPath2)" width="157.5" rx="20" ry="20" height="40" stroke="none"/>
      <rect x="446.25" y="-20" clip-path="url(#clipPath2)" fill="none" width="157.5" rx="20" ry="20" height="40" stroke="black"/>
    </g>
    <g font-family="sans-serif" transform="matrix(1,0,0,1,68,35)">
      <text x="458.6836" xml:space="preserve" y="-2.5312" clip-path="url(#clipPath2)" stroke="none">Input data available on</text>
      <text x="486.9404" xml:space="preserve" y="11.6016" clip-path="url(#clipPath2)" stroke="none">Connection c</text>
    </g>
    <g fill="url(#linearGradient8)" stroke-miterlimit="1.45" transform="matrix(1,0,0,1,68,35)" stroke-linecap="butt" stroke="url(#linearGradient8)">
      <path d="M534 596.3958 L716 596.3958 L716 636.3958 L534 636.3958 Z" clip-path="url(#clipPath2)" stroke="none"/>
      <path fill="none" d="M534 596.3958 L716 596.3958 L716 636.3958 L534 636.3958 Z" clip-path="url(#clipPath2)" stroke="black"/>
    </g>
    <g font-family="sans-serif" transform="matrix(1,0,0,1,68,35)">
      <text x="550.0439" xml:space="preserve" y="620.931" clip-path="url(#clipPath2)" stroke="none">saveCurrentProtocolIdx(c)</text>
    </g>
    <g fill="url(#linearGradient9)" stroke-miterlimit="1.45" transform="matrix(1,0,0,1,68,35)" stroke-linecap="butt" stroke="url(#linearGradient9)">
      <rect x="537.5" y="683.75" clip-path="url(#clipPath2)" width="175" rx="20" ry="20" height="40" stroke="none"/>
      <rect x="537.5" y="683.75" clip-path="url(#clipPath2)" fill="none" width="175" rx="20" ry="20" height="40" stroke="black"/>
    </g>
    <g font-family="sans-serif" transform="matrix(1,0,0,1,68,35)">
      <text x="545.2422" xml:space="preserve" y="708.2852" clip-path="url(#clipPath2)" stroke="none">Stop FilterChain processing</text>
    </g>
    <g fill="url(#linearGradient10)" stroke-miterlimit="1.45" transform="matrix(1,0,0,1,68,35)" stroke-linecap="butt" stroke="url(#linearGradient10)">
      <path d="M152.125 230 L404 230 L404 270 L152.125 270 Z" clip-path="url(#clipPath2)" stroke="none"/>
      <path fill="none" d="M152.125 230 L404 230 L404 270 L152.125 270 Z" clip-path="url(#clipPath2)" stroke="black"/>
    </g>
    <g font-family="sans-serif" transform="matrix(1,0,0,1,68,35)">
      <text x="167.3525" xml:space="preserve" y="254.5352" clip-path="url(#clipPath2)" stroke="none">puProtocol = getRecognizedProtocol()</text>
    </g>
    <g fill="url(#linearGradient11)" stroke-miterlimit="1.45" transform="matrix(1,0,0,1,68,35)" stroke-linecap="butt" stroke="url(#linearGradient11)">
      <rect x="152.2812" width="251.5625" height="40" y="504.0625" clip-path="url(#clipPath2)" stroke="none"/>
      <rect x="152.2812" y="504.0625" clip-path="url(#clipPath2)" fill="none" width="251.5625" height="40" stroke="black"/>
      <path fill="none" d="M162.2812 504.0625 L162.2812 544.0625 M393.8438 504.0625 L393.8438 544.0625 M162.2812 504.0625 Z" clip-path="url(#clipPath2)" stroke="black"/>
    </g>
    <g font-family="sans-serif" transform="matrix(1,0,0,1,68,35)">
      <text x="171.4395" xml:space="preserve" y="528.5977" clip-path="url(#clipPath2)" stroke="none">delegate(puProtocol.getFilterChain())</text>
    </g>
    <g fill="url(#linearGradient12)" stroke-miterlimit="1.45" transform="matrix(1,0,0,1,68,35)" stroke-linecap="butt" stroke="url(#linearGradient12)">
      <path d="M278.0625 371.3125 L369.0625 413.6458 L278.0625 455.9792 L187.0625 413.6458 Z" clip-path="url(#clipPath2)" stroke="none"/>
      <path fill="none" d="M278.0625 371.3125 L369.0625 413.6458 L278.0625 455.9792 L187.0625 413.6458 Z" clip-path="url(#clipPath2)" stroke="black"/>
    </g>
    <g font-family="sans-serif" transform="matrix(1,0,0,1,68,35)">
      <text x="221.0625" xml:space="preserve" y="418.181" clip-path="url(#clipPath2)" stroke="none">isSticky(puProtocol)</text>
    </g>
    <g fill="url(#linearGradient13)" stroke-miterlimit="1.45" transform="matrix(1,0,0,1,68,35)" stroke-linecap="butt" stroke="url(#linearGradient13)">
      <path d="M-52.7188 447.5 L122.2812 447.5 L122.2812 487.5 L-52.7188 487.5 Z" clip-path="url(#clipPath2)" stroke="none"/>
      <path fill="none" d="M-52.7188 447.5 L122.2812 447.5 L122.2812 487.5 L-52.7188 487.5 Z" clip-path="url(#clipPath2)" stroke="black"/>
    </g>
    <g font-family="sans-serif" transform="matrix(1,0,0,1,68,35)">
      <text x="-44.1709" xml:space="preserve" y="472.0352" clip-path="url(#clipPath2)" stroke="none">resetRecongizedProtocol(c)</text>
    </g>
    <g fill="url(#linearGradient14)" stroke-miterlimit="1.45" transform="matrix(1,0,0,1,68,35)" stroke-linecap="butt" stroke="url(#linearGradient14)">
      <rect x="177.3125" y="683.75" clip-path="url(#clipPath2)" width="201.5" rx="20" ry="20" height="40" stroke="none"/>
      <rect x="177.3125" y="683.75" clip-path="url(#clipPath2)" fill="none" width="201.5" rx="20" ry="20" height="40" stroke="black"/>
    </g>
    <g font-family="sans-serif" transform="matrix(1,0,0,1,68,35)">
      <text x="186.6094" xml:space="preserve" y="708.2852" clip-path="url(#clipPath2)" stroke="none">Suspend FilterChain processing</text>
    </g>
    <g stroke-linecap="butt" transform="matrix(1,0,0,1,68,35)" stroke-miterlimit="1.45">
      <path fill="none" d="M750 354.0625 L750 390.082" clip-path="url(#clipPath2)"/>
    </g>
    <g stroke-linecap="butt" transform="matrix(1,0,0,1,68,35)" stroke-miterlimit="1.45">
      <path d="M750 398.082 L755 386.082 L750 389.082 L745 386.082 Z" clip-path="url(#clipPath2)" stroke="none"/>
      <path fill="none" d="M750 438.125 L750 473.6866" clip-path="url(#clipPath2)"/>
      <path d="M750 481.6866 L755 469.6866 L750 472.6866 L745 469.6866 Z" clip-path="url(#clipPath2)" stroke="none"/>
      <path fill="none" d="M841 524.0625 L900 524.0625 L900 88.8333 L594 88.8333" clip-path="url(#clipPath2)"/>
      <path d="M586 88.8333 L598 93.8333 L595 88.8333 L598 83.8333 Z" clip-path="url(#clipPath2)" stroke="none"/>
      <text x="853.125" xml:space="preserve" y="517.5312" clip-path="url(#clipPath2)" font-family="sans-serif" stroke="none">yes</text>
      <path fill="none" d="M525 108.8333 L525 149.6667" clip-path="url(#clipPath2)"/>
      <path d="M525 157.6667 L530 145.6667 L525 148.6667 L520 145.6667 Z" clip-path="url(#clipPath2)" stroke="none"/>
      <path fill="none" d="M616 200 L750 200 L750 221.9707" clip-path="url(#clipPath2)"/>
      <path d="M750 229.9707 L755 217.9707 L750 220.9707 L745 217.9707 Z" clip-path="url(#clipPath2)" stroke="none"/>
      <text x="628.125" xml:space="preserve" y="193.4688" clip-path="url(#clipPath2)" font-family="sans-serif" stroke="none">no</text>
      <path fill="none" d="M750 270 L750 306.0195" clip-path="url(#clipPath2)"/>
      <path d="M750 314.0195 L755 302.0195 L750 305.0195 L745 302.0195 Z" clip-path="url(#clipPath2)" stroke="none"/>
      <path fill="none" d="M525 20 L525 60.7856" clip-path="url(#clipPath2)"/>
      <path d="M525 68.7856 L530 56.7856 L525 59.7856 L520 56.7856 Z" clip-path="url(#clipPath2)" stroke="none"/>
      <path fill="none" d="M658.9668 524.0625 L625 524.0625 L625 588.3605" clip-path="url(#clipPath2)"/>
      <path d="M625 596.3605 L630 584.3605 L625 587.3605 L620 584.3605 Z" clip-path="url(#clipPath2)" stroke="none"/>
      <text x="632.0566" xml:space="preserve" y="517.5312" clip-path="url(#clipPath2)" font-family="sans-serif" stroke="none">no</text>
      <path fill="none" d="M625 636.3958 L625 675.7037" clip-path="url(#clipPath2)"/>
      <path d="M625 683.7037 L630 671.7037 L625 674.7037 L620 671.7037 Z" clip-path="url(#clipPath2)" stroke="none"/>
      <path fill="none" d="M433.9619 200 L278.0625 200 L278.0625 221.9707" clip-path="url(#clipPath2)"/>
      <path d="M278.0625 229.9707 L283.0625 217.9707 L278.0625 220.9707 L273.0625 217.9707 Z" clip-path="url(#clipPath2)" stroke="none"/>
      <text x="402.8027" xml:space="preserve" y="193.4688" clip-path="url(#clipPath2)" font-family="sans-serif" stroke="none">yes</text>
      <path fill="none" d="M278.0625 270 L278.0625 363.3125" clip-path="url(#clipPath2)"/>
      <path d="M278.0625 371.3125 L283.0625 359.3125 L278.0625 362.3125 L273.0625 359.3125 Z" clip-path="url(#clipPath2)" stroke="none"/>
      <path fill="none" d="M278.0625 455.9792 L278.0625 496.0155" clip-path="url(#clipPath2)"/>
      <path d="M278.0625 504.0155 L283.0625 492.0155 L278.0625 495.0155 L273.0625 492.0155 Z" clip-path="url(#clipPath2)" stroke="none"/>
      <text x="282.0625" xml:space="preserve" y="479.7057" clip-path="url(#clipPath2)" font-family="sans-serif" stroke="none">yes</text>
      <path fill="none" d="M187.0625 413.6458 L34.7812 413.6458 L34.7812 439.4669" clip-path="url(#clipPath2)"/>
      <path d="M34.7812 447.4669 L39.7812 435.4669 L34.7812 438.4669 L29.7812 435.4669 Z" clip-path="url(#clipPath2)" stroke="none"/>
      <text x="160.1191" xml:space="preserve" y="407.1146" clip-path="url(#clipPath2)" font-family="sans-serif" stroke="none">no</text>
      <path fill="none" d="M34.7812 487.5195 L34.7812 524.0625 L144.2526 524.0625" clip-path="url(#clipPath2)"/>
      <path d="M152.2526 524.0625 L140.2526 519.0625 L143.2526 524.0625 L140.2526 529.0625 Z" clip-path="url(#clipPath2)" stroke="none"/>
      <path fill="none" d="M278.0625 544.0625 L278.0625 675.7159" clip-path="url(#clipPath2)"/>
      <path d="M278.0625 683.7159 L283.0625 671.7159 L278.0625 674.7159 L273.0625 671.7159 Z" clip-path="url(#clipPath2)" stroke="none"/>
    </g>
  </g>
</svg>
