<?xml version="1.0" encoding="UTF-8"?>

<!DOCTYPE svg PUBLIC '-//W3C//DTD SVG 1.0//EN' 'http://www.w3.org/TR/2001/REC-SVG-20010904/DTD/svg10.dtd'>
<svg style="fill-opacity:1; color-rendering:auto; color-interpolation:auto; stroke:black; text-rendering:auto; stroke-linecap:square; stroke-miterlimit:10; stroke-opacity:1; shape-rendering:auto; fill:black; stroke-dasharray:none; font-weight:normal; stroke-width:1; font-family:&apos;Dialog&apos;; font-style:normal; stroke-linejoin:miter; font-size:12; stroke-dashoffset:0; image-rendering:auto;" xmlns="http://www.w3.org/2000/svg" width="856" xmlns:xlink="http://www.w3.org/1999/xlink" height="186">
  <defs id="genericDefs" />
  <g>
    <defs id="defs1">
      <clipPath clipPathUnits="userSpaceOnUse" id="clipPath1">
        <path d="M-3 -3 L117 -3 L117 187 L-3 187 L-3 -3 Z" />
      </clipPath>
      <clipPath clipPathUnits="userSpaceOnUse" id="clipPath2">
        <path d="M-3 -3 L137 -3 L137 187 L-3 187 L-3 -3 Z" />
      </clipPath>
      <clipPath clipPathUnits="userSpaceOnUse" id="clipPath3">
        <path d="M-3 -3 L107 -3 L107 187 L-3 187 L-3 -3 Z" />
      </clipPath>
      <clipPath clipPathUnits="userSpaceOnUse" id="clipPath4">
        <path d="M-3 -3 L15 -3 L15 97 L-3 97 L-3 -3 Z" />
      </clipPath>
      <clipPath clipPathUnits="userSpaceOnUse" id="clipPath5">
        <path d="M-3 -3 L147 -3 L147 187 L-3 187 L-3 -3 Z" />
      </clipPath>
      <clipPath clipPathUnits="userSpaceOnUse" id="clipPath6">
        <path d="M-3 -3 L15 -3 L15 81 L-3 81 L-3 -3 Z" />
      </clipPath>
      <clipPath clipPathUnits="userSpaceOnUse" id="clipPath7">
        <path d="M-3 -3 L15 -3 L15 57 L-3 57 L-3 -3 Z" />
      </clipPath>
      <clipPath clipPathUnits="userSpaceOnUse" id="clipPath8">
        <path d="M-140 -14 L280 -14 L280 28 L-140 28 L-140 -14 Z" />
      </clipPath>
      <clipPath clipPathUnits="userSpaceOnUse" id="clipPath9">
        <path d="M-100 -28 L200 -28 L200 56 L-100 56 L-100 -28 Z" />
      </clipPath>
      <clipPath clipPathUnits="userSpaceOnUse" id="clipPath10">
        <path d="M-130 -28 L260 -28 L260 56 L-130 56 L-130 -28 Z" />
      </clipPath>
      <clipPath clipPathUnits="userSpaceOnUse" id="clipPath11">
        <path d="M-110 -14 L220 -14 L220 28 L-110 28 L-110 -14 Z" />
      </clipPath>
      <clipPath clipPathUnits="userSpaceOnUse" id="clipPath12">
        <path d="M0 0 L281 0 L281 104 L0 104 L0 0 Z" />
      </clipPath>
      <clipPath clipPathUnits="userSpaceOnUse" id="clipPath13">
        <path d="M0 0 L301 0 L301 104 L0 104 L0 0 Z" />
      </clipPath>
      <clipPath clipPathUnits="userSpaceOnUse" id="clipPath14">
        <path d="M0 0 L311 0 L311 104 L0 104 L0 0 Z" />
      </clipPath>
      <clipPath clipPathUnits="userSpaceOnUse" id="clipPath15">
        <path d="M0 0 L125 0 L125 124 L0 124 L0 0 Z" />
      </clipPath>
      <clipPath clipPathUnits="userSpaceOnUse" id="clipPath16">
        <path d="M-170 -14 L340 -14 L340 28 L-170 28 L-170 -14 Z" />
      </clipPath>
      <clipPath clipPathUnits="userSpaceOnUse" id="clipPath17">
        <path d="M-183 -14 L366 -14 L366 28 L-183 28 L-183 -14 Z" />
      </clipPath>
      <clipPath clipPathUnits="userSpaceOnUse" id="clipPath18">
        <path d="M-199 -14 L398 -14 L398 28 L-199 28 L-199 -14 Z" />
      </clipPath>
      <clipPath clipPathUnits="userSpaceOnUse" id="clipPath19">
        <path d="M-220 -14 L440 -14 L440 28 L-220 28 L-220 -14 Z" />
      </clipPath>
      <clipPath clipPathUnits="userSpaceOnUse" id="clipPath20">
        <path d="M-178 -14 L356 -14 L356 28 L-178 28 L-178 -14 Z" />
      </clipPath>
      <clipPath clipPathUnits="userSpaceOnUse" id="clipPath21">
        <path d="M-83 -14 L166 -14 L166 28 L-83 28 L-83 -14 Z" />
      </clipPath>
    </defs>
    <g style="fill:white; text-rendering:geometricPrecision; stroke:white;">
      <rect x="0" y="0" width="856" style="stroke:none;" height="186" />
    </g>
    <g transform="translate(182,2)" style="font-size:11; fill:rgb(122,207,245); text-rendering:geometricPrecision; font-family:sans-serif; stroke:rgb(122,207,245);">
      <rect x="0" y="0" width="109" style="clip-path:url(#clipPath1); stroke:none;" height="35" />
    </g>
    <g transform="translate(182,2)" style="font-size:11; stroke-linecap:butt; text-rendering:geometricPrecision; font-family:sans-serif; stroke-linejoin:round; stroke-miterlimit:0;">
      <rect x="0" y="0" width="109" style="clip-path:url(#clipPath1); fill:none;" height="35" />
      <line x1="54" x2="54" y1="35" style="clip-path:url(#clipPath1); fill:none; stroke-linejoin:bevel; stroke-dasharray:8,3;" y2="180" />
    </g>
    <g transform="translate(592,2)" style="font-size:11; fill:rgb(122,207,245); text-rendering:geometricPrecision; font-family:sans-serif; stroke:rgb(122,207,245);">
      <rect x="0" y="0" width="129" style="clip-path:url(#clipPath2); stroke:none;" height="35" />
    </g>
    <g transform="translate(592,2)" style="font-size:11; stroke-linecap:butt; text-rendering:geometricPrecision; font-family:sans-serif; stroke-linejoin:round; stroke-miterlimit:0;">
      <rect x="0" y="0" width="129" style="clip-path:url(#clipPath2); fill:none;" height="35" />
      <line x1="64" x2="64" y1="35" style="clip-path:url(#clipPath2); fill:none; stroke-linejoin:bevel; stroke-dasharray:8,3;" y2="180" />
    </g>
    <g transform="translate(2,2)" style="font-size:11; fill:rgb(122,207,245); text-rendering:geometricPrecision; font-family:sans-serif; stroke:rgb(122,207,245);">
      <rect x="0" y="0" width="99" style="clip-path:url(#clipPath3); stroke:none;" height="35" />
    </g>
    <g transform="translate(2,2)" style="font-size:11; stroke-linecap:butt; text-rendering:geometricPrecision; font-family:sans-serif; stroke-linejoin:round; stroke-miterlimit:0;">
      <rect x="0" y="0" width="99" style="clip-path:url(#clipPath3); fill:none;" height="35" />
      <line x1="49" x2="49" y1="35" style="clip-path:url(#clipPath3); fill:none; stroke-linejoin:bevel; stroke-dasharray:8,3;" y2="180" />
    </g>
    <g transform="translate(48,72)" style="font-size:11; fill:rgb(122,207,245); text-rendering:geometricPrecision; font-family:sans-serif; stroke:rgb(122,207,245);">
      <rect x="0" y="0" width="8" style="clip-path:url(#clipPath4); stroke:none;" height="90" />
    </g>
    <g transform="translate(48,72)" style="font-size:11; stroke-linecap:butt; text-rendering:geometricPrecision; font-family:sans-serif; stroke-linejoin:round; stroke-miterlimit:0;">
      <rect x="0" y="0" width="8" style="clip-path:url(#clipPath4); fill:none;" height="90" />
    </g>
    <g transform="translate(233,72)" style="font-size:11; fill:rgb(122,207,245); text-rendering:geometricPrecision; font-family:sans-serif; stroke:rgb(122,207,245);">
      <rect x="0" y="0" width="8" style="clip-path:url(#clipPath4); stroke:none;" height="90" />
    </g>
    <g transform="translate(233,72)" style="font-size:11; stroke-linecap:butt; text-rendering:geometricPrecision; font-family:sans-serif; stroke-linejoin:round; stroke-miterlimit:0;">
      <rect x="0" y="0" width="8" style="clip-path:url(#clipPath4); fill:none;" height="90" />
    </g>
    <g transform="translate(372,2)" style="font-size:11; fill:rgb(122,207,245); text-rendering:geometricPrecision; font-family:sans-serif; stroke:rgb(122,207,245);">
      <rect x="0" y="0" width="139" style="clip-path:url(#clipPath5); stroke:none;" height="35" />
    </g>
    <g transform="translate(372,2)" style="font-size:11; stroke-linecap:butt; text-rendering:geometricPrecision; font-family:sans-serif; stroke-linejoin:round; stroke-miterlimit:0;">
      <rect x="0" y="0" width="139" style="clip-path:url(#clipPath5); fill:none;" height="35" />
      <line x1="69" x2="69" y1="35" style="clip-path:url(#clipPath5); fill:none; stroke-linejoin:bevel; stroke-dasharray:8,3;" y2="180" />
    </g>
    <g transform="translate(438,82)" style="font-size:11; fill:rgb(122,207,245); text-rendering:geometricPrecision; font-family:sans-serif; stroke:rgb(122,207,245);">
      <rect x="0" y="0" width="8" style="clip-path:url(#clipPath6); stroke:none;" height="74" />
    </g>
    <g transform="translate(438,82)" style="font-size:11; stroke-linecap:butt; text-rendering:geometricPrecision; font-family:sans-serif; stroke-linejoin:round; stroke-miterlimit:0;">
      <rect x="0" y="0" width="8" style="clip-path:url(#clipPath6); fill:none;" height="74" />
    </g>
    <g transform="translate(653,92)" style="font-size:11; fill:rgb(122,207,245); text-rendering:geometricPrecision; font-family:sans-serif; stroke:rgb(122,207,245);">
      <rect x="0" y="0" width="8" style="clip-path:url(#clipPath7); stroke:none;" height="50" />
    </g>
    <g transform="translate(653,92)" style="font-size:11; stroke-linecap:butt; text-rendering:geometricPrecision; font-family:sans-serif; stroke-linejoin:round; stroke-miterlimit:0;">
      <rect x="0" y="0" width="8" style="clip-path:url(#clipPath7); fill:none;" height="50" />
    </g>
    <g style="text-rendering:geometricPrecision; font-size:11; font-family:sans-serif;" transform="translate(372,2)">
      <text x="8" y="11" style="clip-path:url(#clipPath8); stroke:none;" xml:space="preserve">NIOChannelDistributor</text>
    </g>
    <g style="text-rendering:geometricPrecision; font-size:11; font-family:sans-serif;" transform="translate(2,2)">
      <text x="23" y="11" style="clip-path:url(#clipPath9); stroke:none;" xml:space="preserve">User code</text>
      <text x="7" y="25" style="clip-path:url(#clipPath9); stroke:none;" xml:space="preserve">(custom thread)</text>
    </g>
    <g style="text-rendering:geometricPrecision; font-size:11; font-family:sans-serif;" transform="translate(592,2)">
      <text x="24" y="11" style="clip-path:url(#clipPath10); stroke:none;" xml:space="preserve">SelectorRunner</text>
      <text x="22" y="25" style="clip-path:url(#clipPath10); stroke:none;" xml:space="preserve">(custom thread)</text>
    </g>
    <g style="text-rendering:geometricPrecision; font-size:11; font-family:sans-serif;" transform="translate(182,2)">
      <text x="6" y="11" style="clip-path:url(#clipPath11); stroke:none;" xml:space="preserve">ConnectorHandler</text>
    </g>
    <g transform="translate(6,22)" style="font-size:11; stroke-linecap:butt; text-rendering:geometricPrecision; font-family:sans-serif; stroke-linejoin:round;">
      <line x1="50" x2="227" y1="50" style="clip-path:url(#clipPath12); fill:none;" y2="50" />
      <polygon style="clip-path:url(#clipPath12); stroke:none;" points=" 227 50 215 44 215 56" />
      <polygon style="fill:none; clip-path:url(#clipPath12);" points=" 227 50 215 44 215 56" />
    </g>
    <g transform="translate(191,32)" style="font-size:11; stroke-linecap:butt; text-rendering:geometricPrecision; font-family:sans-serif; stroke-linejoin:round;">
      <line x1="50" x2="247" y1="50" style="clip-path:url(#clipPath13); fill:none;" y2="50" />
      <polygon style="clip-path:url(#clipPath13); stroke:none;" points=" 247 50 235 44 235 56" />
      <polygon style="fill:none; clip-path:url(#clipPath13);" points=" 247 50 235 44 235 56" />
    </g>
    <g transform="translate(396,42)" style="font-size:11; stroke-linecap:butt; text-rendering:geometricPrecision; font-family:sans-serif; stroke-linejoin:round;">
      <line x1="50" x2="257" y1="50" style="clip-path:url(#clipPath14); fill:none;" y2="50" />
      <polygon style="clip-path:url(#clipPath14); stroke:none;" points=" 257 50 245 44 245 56" />
      <polygon style="fill:none; clip-path:url(#clipPath14);" points=" 257 50 245 44 245 56" />
    </g>
    <g transform="translate(396,82)" style="font-size:11; stroke-linecap:butt; text-rendering:geometricPrecision; font-family:sans-serif; stroke-linejoin:round; stroke-dasharray:8,3; stroke-miterlimit:0;">
      <line x1="257" x2="50" y1="50" style="clip-path:url(#clipPath14); fill:none;" y2="50" />
      <line x1="50" x2="62" y1="50" style="clip-path:url(#clipPath14); fill:none; stroke-dasharray:none; stroke-miterlimit:10;" y2="56" />
      <line x1="50" x2="62" y1="50" style="clip-path:url(#clipPath14); fill:none; stroke-dasharray:none; stroke-miterlimit:10;" y2="44" />
    </g>
    <g transform="translate(191,92)" style="font-size:11; stroke-linecap:butt; text-rendering:geometricPrecision; font-family:sans-serif; stroke-linejoin:round; stroke-dasharray:8,3; stroke-miterlimit:0;">
      <line x1="247" x2="50" y1="50" style="clip-path:url(#clipPath13); fill:none;" y2="50" />
      <line x1="50" x2="62" y1="50" style="clip-path:url(#clipPath13); fill:none; stroke-dasharray:none; stroke-miterlimit:10;" y2="56" />
      <line x1="50" x2="62" y1="50" style="clip-path:url(#clipPath13); fill:none; stroke-dasharray:none; stroke-miterlimit:10;" y2="44" />
    </g>
    <g transform="translate(6,102)" style="font-size:11; stroke-linecap:butt; text-rendering:geometricPrecision; font-family:sans-serif; stroke-linejoin:round; stroke-dasharray:8,3; stroke-miterlimit:0;">
      <line x1="227" x2="50" y1="50" style="clip-path:url(#clipPath12); fill:none;" y2="50" />
      <line x1="50" x2="62" y1="50" style="clip-path:url(#clipPath12); fill:none; stroke-dasharray:none; stroke-miterlimit:10;" y2="56" />
      <line x1="50" x2="62" y1="50" style="clip-path:url(#clipPath12); fill:none; stroke-dasharray:none; stroke-miterlimit:10;" y2="44" />
    </g>
    <g transform="translate(611,52)" style="font-size:11; stroke-linecap:butt; text-rendering:geometricPrecision; font-family:sans-serif; stroke-linejoin:round;">
      <line x1="50" x2="71" y1="50" style="clip-path:url(#clipPath15); fill:none;" y2="50" />
      <line x1="71" x2="71" y1="50" style="clip-path:url(#clipPath15); fill:none;" y2="70" />
      <line x1="71" x2="50" y1="70" style="clip-path:url(#clipPath15); fill:none;" y2="70" />
      <polygon style="clip-path:url(#clipPath15); stroke:none;" points=" 50 70 62 76 62 64" />
      <polygon style="fill:none; clip-path:url(#clipPath15);" points=" 50 70 62 76 62 64" />
    </g>
    <g style="text-rendering:geometricPrecision; font-size:11; font-family:sans-serif;" transform="translate(682,102)">
      <text x="9" y="11" style="clip-path:url(#clipPath16); stroke:none;" xml:space="preserve">1.1.1.1: registerAsyncTask()</text>
    </g>
    <g style="text-rendering:geometricPrecision; font-size:11; font-family:sans-serif;" transform="translate(54,133)">
      <text x="9" y="11" style="clip-path:url(#clipPath17); stroke:none;" xml:space="preserve">2: return Future&lt;Connection&gt;</text>
    </g>
    <g style="text-rendering:geometricPrecision; font-size:11; font-family:sans-serif;" transform="translate(239,123)">
      <text x="9" y="11" style="clip-path:url(#clipPath18); stroke:none;" xml:space="preserve">1.2: return Future&lt;SelectionKey&gt;</text>
    </g>
    <g style="text-rendering:geometricPrecision; font-size:11; font-family:sans-serif;" transform="translate(440,113)">
      <text x="10" y="11" style="clip-path:url(#clipPath19); stroke:none;" xml:space="preserve">1.1.1.2: return Future&lt;SelectionKey&gt;</text>
    </g>
    <g style="text-rendering:geometricPrecision; font-size:11; font-family:sans-serif;" transform="translate(464,72)">
      <text x="9" y="11" style="clip-path:url(#clipPath20); stroke:none;" xml:space="preserve">1.1.1: registerChannelAsync()</text>
    </g>
    <g style="text-rendering:geometricPrecision; font-size:11; font-family:sans-serif;" transform="translate(242,62)">
      <text x="9" y="11" style="clip-path:url(#clipPath20); stroke:none;" xml:space="preserve">1.1: distributeChannelAsync()</text>
    </g>
    <g style="text-rendering:geometricPrecision; font-size:11; font-family:sans-serif;" transform="translate(104,52)">
      <text x="9" y="11" style="clip-path:url(#clipPath21); stroke:none;" xml:space="preserve">1: connect()</text>
    </g>
  </g>
</svg>
