<?xml version="1.0" encoding="UTF-8"?>

<!DOCTYPE svg PUBLIC '-//W3C//DTD SVG 1.0//EN' 'http://www.w3.org/TR/2001/REC-SVG-20010904/DTD/svg10.dtd'>
<svg style="fill-opacity:1; color-rendering:auto; color-interpolation:auto; stroke:black; text-rendering:auto; stroke-linecap:square; stroke-miterlimit:10; stroke-opacity:1; shape-rendering:auto; fill:black; stroke-dasharray:none; font-weight:normal; stroke-width:1; font-family:&apos;Dialog&apos;; font-style:normal; stroke-linejoin:miter; font-size:12; stroke-dashoffset:0; image-rendering:auto;" xmlns="http://www.w3.org/2000/svg" width="490" xmlns:xlink="http://www.w3.org/1999/xlink" height="430">
  <defs id="genericDefs" />
  <g>
    <defs id="defs1">
      <clipPath clipPathUnits="userSpaceOnUse" id="clipPath1">
        <path d="M-3 -3 L212 -3 L212 293 L-3 293 L-3 -3 Z" />
      </clipPath>
      <clipPath clipPathUnits="userSpaceOnUse" id="clipPath2">
        <path d="M190.2619 447.3698 L190.2619 521.642 L376.7272 521.642 L376.7272 447.3698 Z" />
      </clipPath>
      <clipPath clipPathUnits="userSpaceOnUse" id="clipPath3">
        <path d="M0 0 L0 286 L205 286 L205 0 Z" />
      </clipPath>
      <clipPath clipPathUnits="userSpaceOnUse" id="clipPath4">
        <path d="M0 0 L0 14 L54 14 L54 0 Z" />
      </clipPath>
      <clipPath clipPathUnits="userSpaceOnUse" id="clipPath5">
        <path d="M-3 -3 L107 -3 L107 77 L-3 77 L-3 -3 Z" />
      </clipPath>
      <clipPath clipPathUnits="userSpaceOnUse" id="clipPath6">
        <path d="M0 0 L0 49 L100 49 L100 0 Z" />
      </clipPath>
      <clipPath clipPathUnits="userSpaceOnUse" id="clipPath7">
        <path d="M0 0 L100 0 L100 28 L0 28 L0 0 Z" />
      </clipPath>
      <clipPath clipPathUnits="userSpaceOnUse" id="clipPath8">
        <path d="M-3 -3 L127 -3 L127 47 L-3 47 L-3 -3 Z" />
      </clipPath>
      <clipPath clipPathUnits="userSpaceOnUse" id="clipPath9">
        <path d="M0 0 L0 33 L120 33 L120 0 Z" />
      </clipPath>
      <clipPath clipPathUnits="userSpaceOnUse" id="clipPath10">
        <path d="M0 0 L120 0 L120 14 L0 14 L0 0 Z" />
      </clipPath>
      <clipPath clipPathUnits="userSpaceOnUse" id="clipPath11">
        <path d="M-3 -3 L137 -3 L137 47 L-3 47 L-3 -3 Z" />
      </clipPath>
      <clipPath clipPathUnits="userSpaceOnUse" id="clipPath12">
        <path d="M0 0 L0 33 L130 33 L130 0 Z" />
      </clipPath>
      <clipPath clipPathUnits="userSpaceOnUse" id="clipPath13">
        <path d="M0 0 L130 0 L130 14 L0 14 L0 0 Z" />
      </clipPath>
      <clipPath clipPathUnits="userSpaceOnUse" id="clipPath14">
        <path d="M-3 -3 L34 -3 L34 21 L-3 21 L-3 -3 Z" />
      </clipPath>
      <clipPath clipPathUnits="userSpaceOnUse" id="clipPath15">
        <path d="M-3 -3 L35 -3 L35 21 L-3 21 L-3 -3 Z" />
      </clipPath>
      <clipPath clipPathUnits="userSpaceOnUse" id="clipPath16">
        <path d="M-3 -3 L46 -3 L46 21 L-3 21 L-3 -3 Z" />
      </clipPath>
      <clipPath clipPathUnits="userSpaceOnUse" id="clipPath17">
        <path d="M-3 -3 L177 -3 L177 47 L-3 47 L-3 -3 Z" />
      </clipPath>
      <clipPath clipPathUnits="userSpaceOnUse" id="clipPath18">
        <path d="M0 0 L0 33 L170 33 L170 0 Z" />
      </clipPath>
      <clipPath clipPathUnits="userSpaceOnUse" id="clipPath19">
        <path d="M0 0 L170 0 L170 14 L0 14 L0 0 Z" />
      </clipPath>
      <clipPath clipPathUnits="userSpaceOnUse" id="clipPath20">
        <path d="M-3 -3 L37 -3 L37 27 L-3 27 L-3 -3 Z" />
      </clipPath>
      <clipPath clipPathUnits="userSpaceOnUse" id="clipPath21">
        <path d="M-30 -20 L60 -20 L60 40 L-30 40 L-30 -20 Z" />
      </clipPath>
      <clipPath clipPathUnits="userSpaceOnUse" id="clipPath22">
        <path d="M0 0 L174 0 L174 163 L0 163 L0 0 Z" />
      </clipPath>
      <clipPath clipPathUnits="userSpaceOnUse" id="clipPath23">
        <path d="M0 0 L153 0 L153 104 L0 104 L0 0 Z" />
      </clipPath>
      <clipPath clipPathUnits="userSpaceOnUse" id="clipPath24">
        <path d="M0 0 L104 0 L104 163 L0 163 L0 0 Z" />
      </clipPath>
      <clipPath clipPathUnits="userSpaceOnUse" id="clipPath25">
        <path d="M0 0 L104 0 L104 143 L0 143 L0 0 Z" />
      </clipPath>
      <clipPath clipPathUnits="userSpaceOnUse" id="clipPath26">
        <path d="M-39 -14 L78 -14 L78 28 L-39 28 L-39 -14 Z" />
      </clipPath>
      <clipPath clipPathUnits="userSpaceOnUse" id="clipPath27">
        <path d="M-28 -14 L56 -14 L56 28 L-28 28 L-28 -14 Z" />
      </clipPath>
      <clipPath clipPathUnits="userSpaceOnUse" id="clipPath28">
        <path d="M-27 -14 L54 -14 L54 28 L-27 28 L-27 -14 Z" />
      </clipPath>
    </defs>
    <g style="fill:white; text-rendering:geometricPrecision; stroke:white;">
      <rect x="0" y="0" width="490" style="stroke:none;" height="430" />
    </g>
    <g transform="translate(2,2) matrix(1.0994,0,0,3.8507,-209.1739,-1722.6866)" style="font-size:11; fill-opacity:0; fill:rgb(122,207,245); text-rendering:geometricPrecision; color-rendering:optimizeQuality; font-family:sans-serif; stroke:rgb(122,207,245); stroke-opacity:0;">
      <path d="M203 451 C243.25 451 323.75 451 364 451 C364 467.75 364 501.25 364 518 C323.75 518 243.25 518 203 518 C203 501.25 203 467.75 203 451 Z" style="clip-path:url(#clipPath2); stroke:none;" />
    </g>
    <g transform="matrix(1,0,0,1,2,2)" style="font-size:11; stroke-linecap:butt; text-rendering:geometricPrecision; color-rendering:optimizeQuality; font-family:sans-serif; stroke-linejoin:round; stroke-dasharray:8,5; stroke-miterlimit:1;">
      <path d="M14 14 C58.25 14 146.75 14 191 14 C191 78.5 191 207.5 191 272 C146.75 272 58.25 272 14 272 C14 207.5 14 78.5 14 14 Z" style="fill:none; clip-path:url(#clipPath3);" />
    </g>
    <g style="stroke-linecap:butt; font-size:11; text-rendering:geometricPrecision; color-rendering:optimizeQuality; image-rendering:optimizeQuality; font-family:sans-serif; stroke-linejoin:round; stroke-dasharray:8,5; color-interpolation:linearRGB; stroke-miterlimit:1;" transform="matrix(1,0,0,1,27,22)">
      <path d="M2.9219 11 L2.9219 3.9531 L0.1719 3.9531 L0.1719 3.0937 L6.875 3.0937 L6.875 3.9531 L4.125 3.9531 L4.125 11 ZM7.9868 11 L7.9868 5.1562 L9.0181 5.1562 L9.0181 6.1875 Q9.7056 4.9844 10.9087 4.9844 Q11.0806 4.9844 11.2524 4.9844 L11.2524 6.0156 Q10.9087 6.0156 10.7368 6.0156 Q9.7056 6.0156 9.0181 7.2188 L9.0181 11 ZM15.5815 10.3125 Q14.5503 11.1719 13.6909 11.1719 Q13.0034 11.1719 12.4878 10.6562 Q11.9722 10.1406 11.9722 9.4531 Q11.9722 8.5938 12.8315 8.0781 Q13.6909 7.5625 15.0659 7.5625 L15.4097 7.5625 L15.4097 6.875 Q15.4097 5.8438 14.3784 5.8438 Q13.519 5.8438 12.4878 6.3594 L12.4878 5.5 Q13.519 4.9844 14.5503 4.9844 Q15.5815 4.9844 16.0112 5.4141 Q16.4409 5.8438 16.4409 6.875 L16.4409 9.4531 Q16.4409 10.3125 16.9565 10.3125 Q17.1284 10.3125 17.1284 10.3125 L17.3003 11 Q16.9565 11.1719 16.4409 11.1719 Q15.7534 11.1719 15.5815 10.3125 ZM15.4097 9.625 L15.4097 8.25 L15.0659 8.0781 Q14.2065 8.0781 13.605 8.4219 Q13.0034 8.7656 13.0034 9.2812 Q13.0034 9.7969 13.3472 10.0547 Q13.6909 10.3125 14.0347 10.3125 Q14.7222 10.3125 15.4097 9.625 ZM18.5625 11 L18.5625 5.1562 L19.5938 5.1562 L19.5938 6.1875 Q20.4531 4.9844 21.6562 4.9844 Q22.5156 4.9844 22.9453 5.5 Q23.375 6.0156 23.375 6.875 L23.375 11 L22.3438 11 L22.3438 7.2188 Q22.3438 6.5312 22.1719 6.2734 Q22 6.0156 21.4844 6.0156 Q20.4531 6.0156 19.5938 7.2188 L19.5938 11 ZM26.936 11.1719 Q26.2485 11.1719 25.2173 10.8281 L25.2173 9.7969 Q26.2485 10.3125 26.936 10.3125 Q27.4517 10.3125 27.7954 10.0547 Q28.1392 9.7969 28.1392 9.4531 Q28.1392 8.9375 27.2798 8.5938 L26.5923 8.25 Q25.2173 7.7344 25.2173 6.7031 Q25.2173 5.8438 25.7329 5.4141 Q26.2485 4.9844 27.2798 4.9844 Q27.7954 4.9844 28.4829 5.1562 L28.6548 5.1562 L28.6548 6.0156 Q27.7954 5.8438 27.2798 5.8438 Q26.2485 5.8438 26.2485 6.5312 Q26.2485 7.0469 27.1079 7.3906 L27.6235 7.5625 Q28.4829 7.9062 28.8267 8.3359 Q29.1704 8.7656 29.1704 9.4531 Q29.1704 10.1406 28.5688 10.6562 Q27.9673 11.1719 26.936 11.1719 ZM30.9966 13.0625 L30.9966 5.1562 L32.0278 5.1562 L32.0278 6.1875 Q32.7153 4.9844 34.0903 4.9844 Q35.1216 4.9844 35.7231 5.7578 Q36.3247 6.5312 36.3247 7.9062 Q36.3247 9.2812 35.6372 10.2266 Q34.9497 11.1719 33.7466 11.1719 Q32.7153 11.1719 32.0278 10.3125 L32.0278 13.0625 ZM32.0278 9.625 Q32.8872 10.3125 33.5747 10.3125 Q35.1216 10.3125 35.1216 8.0781 Q35.1216 6.0156 33.7466 6.0156 Q32.8872 6.0156 32.0278 6.875 ZM40.1543 11.1719 Q38.9512 11.1719 38.1777 10.3125 Q37.4043 9.4531 37.4043 8.0781 Q37.4043 6.7031 38.1777 5.8438 Q38.9512 4.9844 40.3262 4.9844 Q41.5293 4.9844 42.3027 5.8438 Q43.0762 6.7031 43.0762 8.0781 Q43.0762 9.4531 42.3027 10.3125 Q41.5293 11.1719 40.1543 11.1719 ZM40.3262 10.3125 Q41.873 10.3125 41.873 8.0781 Q41.873 5.8438 40.3262 5.8438 Q38.6074 5.8438 38.6074 8.0781 Q38.6074 10.3125 40.3262 10.3125 ZM44.6768 11 L44.6768 5.1562 L45.708 5.1562 L45.708 6.1875 Q46.3955 4.9844 47.5986 4.9844 Q47.7705 4.9844 47.9424 4.9844 L47.9424 6.0156 Q47.5986 6.0156 47.4268 6.0156 Q46.3955 6.0156 45.708 7.2188 L45.708 11 ZM50.8965 11.1719 Q50.209 11.1719 49.6934 10.6562 Q49.1777 10.1406 49.1777 9.4531 L49.1777 6.0156 L48.4902 6.0156 L48.4902 5.1562 L49.1777 5.1562 L49.1777 4.125 L50.3809 3.9531 L50.3809 5.1562 L51.7559 5.1562 L51.7559 6.0156 L50.3809 6.0156 L50.3809 9.1094 Q50.3809 10.3125 51.2402 10.3125 Q51.584 10.3125 51.7559 10.3125 L51.7559 11 Q51.2402 11.1719 50.8965 11.1719 Z" style="clip-path:url(#clipPath4); stroke:none;" />
    </g>
    <g transform="translate(216,46)" style="font-size:11; fill:rgb(122,207,245); text-rendering:geometricPrecision; font-family:sans-serif; stroke:rgb(122,207,245); font-weight:bold;">
      <rect x="0" y="0" width="100" style="clip-path:url(#clipPath5); stroke:none;" height="70" />
    </g>
    <g transform="translate(216,46)" style="font-size:11; stroke-linecap:butt; text-rendering:geometricPrecision; font-family:sans-serif; stroke-linejoin:round; font-weight:bold; stroke-miterlimit:0;">
      <rect x="0" y="0" width="100" style="clip-path:url(#clipPath5); fill:none;" height="70" />
      <line x1="0" x2="100" y1="28" style="clip-path:url(#clipPath5); fill:none;" y2="28" />
    </g>
    <g style="text-rendering:geometricPrecision; font-size:11; font-family:sans-serif;" transform="translate(216,46)">
      <text x="9" y="11" style="clip-path:url(#clipPath7); stroke:none;" xml:space="preserve">&lt;&lt;Interface&gt;&gt;</text>
      <text x="18" y="25" style="clip-path:url(#clipPath7); stroke:none; font-weight:bold;" xml:space="preserve">Connection</text>
    </g>
    <g transform="translate(216,176)" style="font-size:11; fill:rgb(122,207,245); text-rendering:geometricPrecision; font-family:sans-serif; stroke:rgb(122,207,245); font-weight:bold;">
      <rect x="0" y="0" width="100" style="clip-path:url(#clipPath5); stroke:none;" height="70" />
    </g>
    <g transform="translate(216,176)" style="font-size:11; stroke-linecap:butt; text-rendering:geometricPrecision; font-family:sans-serif; stroke-linejoin:round; font-weight:bold; stroke-miterlimit:0;">
      <rect x="0" y="0" width="100" style="clip-path:url(#clipPath5); fill:none;" height="70" />
      <line x1="0" x2="100" y1="28" style="clip-path:url(#clipPath5); fill:none;" y2="28" />
    </g>
    <g style="text-rendering:geometricPrecision; font-size:11; font-family:sans-serif;" transform="translate(216,176)">
      <text x="9" y="11" style="clip-path:url(#clipPath7); stroke:none;" xml:space="preserve">&lt;&lt;abstract&gt;&gt;</text>
      <text x="6" y="25" style="clip-path:url(#clipPath7); font-style:italic; stroke:none; font-weight:bold;" xml:space="preserve">NIOConnection</text>
    </g>
    <g transform="translate(136,306)" style="font-size:11; fill:rgb(122,207,245); text-rendering:geometricPrecision; font-family:sans-serif; stroke:rgb(122,207,245); font-weight:bold;">
      <rect x="0" y="0" width="120" style="clip-path:url(#clipPath8); stroke:none;" height="40" />
    </g>
    <g transform="translate(136,306)" style="font-size:11; stroke-linecap:butt; text-rendering:geometricPrecision; font-family:sans-serif; stroke-linejoin:round; font-weight:bold; stroke-miterlimit:0;">
      <rect x="0" y="0" width="120" style="clip-path:url(#clipPath8); fill:none;" height="40" />
      <line x1="0" x2="120" y1="14" style="clip-path:url(#clipPath8); fill:none;" y2="14" />
    </g>
    <g transform="translate(136,306)" style="text-rendering:geometricPrecision; font-size:11; font-weight:bold; font-family:sans-serif;">
      <text x="5" y="11" style="clip-path:url(#clipPath10); stroke:none;" xml:space="preserve">TCPNIOConnection</text>
    </g>
    <g transform="translate(276,306)" style="font-size:11; fill:rgb(122,207,245); text-rendering:geometricPrecision; font-family:sans-serif; stroke:rgb(122,207,245); font-weight:bold;">
      <rect x="0" y="0" width="130" style="clip-path:url(#clipPath11); stroke:none;" height="40" />
    </g>
    <g transform="translate(276,306)" style="font-size:11; stroke-linecap:butt; text-rendering:geometricPrecision; font-family:sans-serif; stroke-linejoin:round; font-weight:bold; stroke-miterlimit:0;">
      <rect x="0" y="0" width="130" style="clip-path:url(#clipPath11); fill:none;" height="40" />
      <line x1="0" x2="130" y1="14" style="clip-path:url(#clipPath11); fill:none;" y2="14" />
    </g>
    <g transform="translate(276,306)" style="text-rendering:geometricPrecision; font-size:11; font-weight:bold; font-family:sans-serif;">
      <text x="10" y="11" style="clip-path:url(#clipPath13); stroke:none;" xml:space="preserve">UDPNIOConnection</text>
    </g>
    <g transform="translate(46,46)" style="font-size:11; fill:rgb(122,207,245); text-rendering:geometricPrecision; font-family:sans-serif; stroke:rgb(122,207,245); font-weight:bold;">
      <rect x="0" y="0" width="120" style="clip-path:url(#clipPath8); stroke:none;" height="40" />
    </g>
    <g transform="translate(46,46)" style="font-size:11; stroke-linecap:butt; text-rendering:geometricPrecision; font-family:sans-serif; stroke-linejoin:round; font-weight:bold; stroke-miterlimit:0;">
      <rect x="0" y="0" width="120" style="clip-path:url(#clipPath8); fill:none;" height="40" />
      <line x1="0" x2="120" y1="14" style="clip-path:url(#clipPath8); fill:none;" y2="14" />
    </g>
    <g transform="translate(46,46)" style="text-rendering:geometricPrecision; font-size:11; font-weight:bold; font-family:sans-serif;">
      <text x="31" y="11" style="clip-path:url(#clipPath10); stroke:none;" xml:space="preserve">Transport</text>
    </g>
    <g transform="translate(366,206)" style="font-size:11; fill:rgb(122,207,245); text-rendering:geometricPrecision; font-family:sans-serif; stroke:rgb(122,207,245); font-weight:bold;">
      <rect x="0" y="0" width="120" style="clip-path:url(#clipPath8); stroke:none;" height="40" />
    </g>
    <g transform="translate(366,206)" style="font-size:11; stroke-linecap:butt; text-rendering:geometricPrecision; font-family:sans-serif; stroke-linejoin:round; font-weight:bold; stroke-miterlimit:0;">
      <rect x="0" y="0" width="120" style="clip-path:url(#clipPath8); fill:none;" height="40" />
      <line x1="0" x2="120" y1="14" style="clip-path:url(#clipPath8); fill:none;" y2="14" />
    </g>
    <g transform="translate(366,206)" style="text-rendering:geometricPrecision; font-size:11; font-weight:bold; font-family:sans-serif;">
      <text x="24" y="11" style="clip-path:url(#clipPath10); stroke:none;" xml:space="preserve">SelectionKey</text>
    </g>
    <g transform="translate(46,206)" style="font-size:11; fill:rgb(122,207,245); text-rendering:geometricPrecision; font-family:sans-serif; stroke:rgb(122,207,245); font-weight:bold;">
      <rect x="0" y="0" width="120" style="clip-path:url(#clipPath8); stroke:none;" height="40" />
    </g>
    <g transform="translate(46,206)" style="font-size:11; stroke-linecap:butt; text-rendering:geometricPrecision; font-family:sans-serif; stroke-linejoin:round; font-weight:bold; stroke-miterlimit:0;">
      <rect x="0" y="0" width="120" style="clip-path:url(#clipPath8); fill:none;" height="40" />
      <line x1="0" x2="120" y1="14" style="clip-path:url(#clipPath8); fill:none;" y2="14" />
    </g>
    <g transform="translate(46,206)" style="text-rendering:geometricPrecision; font-size:11; font-weight:bold; font-family:sans-serif;">
      <text x="17" y="11" style="clip-path:url(#clipPath10); stroke:none;" xml:space="preserve">SelectorRunner</text>
    </g>
    <g transform="translate(366,46)" style="font-size:11; fill:rgb(122,207,245); text-rendering:geometricPrecision; font-family:sans-serif; stroke:rgb(122,207,245); font-weight:bold;">
      <rect x="0" y="0" width="120" style="clip-path:url(#clipPath8); stroke:none;" height="40" />
    </g>
    <g transform="translate(366,46)" style="font-size:11; stroke-linecap:butt; text-rendering:geometricPrecision; font-family:sans-serif; stroke-linejoin:round; font-weight:bold; stroke-miterlimit:0;">
      <rect x="0" y="0" width="120" style="clip-path:url(#clipPath8); fill:none;" height="40" />
      <line x1="0" x2="120" y1="14" style="clip-path:url(#clipPath8); fill:none;" y2="14" />
    </g>
    <g transform="translate(366,46)" style="text-rendering:geometricPrecision; font-size:11; font-weight:bold; font-family:sans-serif;">
      <text x="32" y="11" style="clip-path:url(#clipPath10); stroke:none;" xml:space="preserve">Processor</text>
    </g>
    <g transform="translate(86,386)" style="font-size:11; fill:rgb(122,207,245); text-rendering:geometricPrecision; font-family:sans-serif; stroke:rgb(122,207,245); font-weight:bold;">
      <rect x="0" y="0" width="170" style="clip-path:url(#clipPath17); stroke:none;" height="40" />
    </g>
    <g transform="translate(86,386)" style="font-size:11; stroke-linecap:butt; text-rendering:geometricPrecision; font-family:sans-serif; stroke-linejoin:round; font-weight:bold; stroke-miterlimit:0;">
      <rect x="0" y="0" width="170" style="clip-path:url(#clipPath17); fill:none;" height="40" />
      <line x1="0" x2="170" y1="14" style="clip-path:url(#clipPath17); fill:none;" y2="14" />
    </g>
    <g transform="translate(86,386)" style="text-rendering:geometricPrecision; font-size:11; font-weight:bold; font-family:sans-serif;">
      <text x="13" y="11" style="clip-path:url(#clipPath19); stroke:none;" xml:space="preserve">TCPNIOServerConnection</text>
    </g>
    <g transform="translate(276,386)" style="font-size:11; fill:rgb(122,207,245); text-rendering:geometricPrecision; font-family:sans-serif; stroke:rgb(122,207,245); font-weight:bold;">
      <rect x="0" y="0" width="170" style="clip-path:url(#clipPath17); stroke:none;" height="40" />
    </g>
    <g transform="translate(276,386)" style="font-size:11; stroke-linecap:butt; text-rendering:geometricPrecision; font-family:sans-serif; stroke-linejoin:round; font-weight:bold; stroke-miterlimit:0;">
      <rect x="0" y="0" width="170" style="clip-path:url(#clipPath17); fill:none;" height="40" />
      <line x1="0" x2="170" y1="14" style="clip-path:url(#clipPath17); fill:none;" y2="14" />
    </g>
    <g transform="translate(276,386)" style="text-rendering:geometricPrecision; font-size:11; font-weight:bold; font-family:sans-serif;">
      <text x="12" y="11" style="clip-path:url(#clipPath19); stroke:none;" xml:space="preserve">UDPNIOServerConnection</text>
    </g>
    <g transform="translate(46,126)" style="font-size:11; fill:rgb(122,207,245); text-rendering:geometricPrecision; font-family:sans-serif; stroke:rgb(122,207,245); font-weight:bold;">
      <rect x="0" y="0" width="120" style="clip-path:url(#clipPath8); stroke:none;" height="40" />
    </g>
    <g transform="translate(46,126)" style="font-size:11; stroke-linecap:butt; text-rendering:geometricPrecision; font-family:sans-serif; stroke-linejoin:round; font-weight:bold; stroke-miterlimit:0;">
      <rect x="0" y="0" width="120" style="clip-path:url(#clipPath8); fill:none;" height="40" />
      <line x1="0" x2="120" y1="14" style="clip-path:url(#clipPath8); fill:none;" y2="14" />
    </g>
    <g transform="translate(46,126)" style="text-rendering:geometricPrecision; font-size:11; font-weight:bold; font-family:sans-serif;">
      <text x="20" y="11" style="clip-path:url(#clipPath10); stroke:none;" xml:space="preserve">NIOTransport</text>
    </g>
    <g transform="translate(216,196)" style="font-size:11; stroke-linecap:butt; text-rendering:geometricPrecision; font-family:sans-serif; stroke-linejoin:round;">
      <line x1="50" x2="50" y1="50" style="clip-path:url(#clipPath22); fill:none;" y2="90" />
      <line x1="50" x2="120" y1="90" style="clip-path:url(#clipPath22); fill:none;" y2="90" />
      <line x1="120" x2="120" y1="90" style="clip-path:url(#clipPath22); fill:none;" y2="109" />
      <polygon style="fill:white; clip-path:url(#clipPath22); stroke:none;" points=" 50 50 44 62 56 62" />
      <polygon style="fill:none; clip-path:url(#clipPath22);" points=" 50 50 44 62 56 62" />
    </g>
    <g transform="translate(116,176)" style="font-size:11; stroke-linecap:butt; text-rendering:geometricPrecision; font-family:sans-serif; stroke-linejoin:round;">
      <line x1="50" x2="99" y1="50" style="clip-path:url(#clipPath23); fill:none;" y2="50" />
    </g>
    <g transform="translate(266,6)" style="font-size:11; stroke-linecap:butt; text-rendering:geometricPrecision; font-family:sans-serif; stroke-linejoin:round;">
      <line x1="99" x2="50" y1="50" style="clip-path:url(#clipPath23); fill:none;" y2="50" />
    </g>
    <g transform="translate(266,176)" style="font-size:11; stroke-linecap:butt; text-rendering:geometricPrecision; font-family:sans-serif; stroke-linejoin:round;">
      <line x1="75" x2="50" y1="50" style="clip-path:url(#clipPath23); fill:none;" y2="50" />
      <polygon style="clip-path:url(#clipPath23); stroke:none;" points=" 99 50 87 44 75 50 87 56" />
      <polygon style="fill:none; clip-path:url(#clipPath23);" points=" 99 50 87 44 75 50 87 56" />
    </g>
    <g transform="translate(146,196)" style="font-size:11; stroke-linecap:butt; text-rendering:geometricPrecision; font-family:sans-serif; stroke-linejoin:round;">
      <line x1="120" x2="120" y1="50" style="clip-path:url(#clipPath22); fill:none;" y2="90" />
      <line x1="120" x2="50" y1="90" style="clip-path:url(#clipPath22); fill:none;" y2="90" />
      <line x1="50" x2="50" y1="90" style="clip-path:url(#clipPath22); fill:none;" y2="109" />
      <polygon style="fill:white; clip-path:url(#clipPath22); stroke:none;" points=" 120 50 114 62 126 62" />
      <polygon style="fill:none; clip-path:url(#clipPath22);" points=" 120 50 114 62 126 62" />
    </g>
    <g transform="translate(116,6)" style="font-size:11; stroke-linecap:butt; text-rendering:geometricPrecision; font-family:sans-serif; stroke-linejoin:round;">
      <line x1="50" x2="75" y1="50" style="clip-path:url(#clipPath23); fill:none;" y2="50" />
      <polygon style="clip-path:url(#clipPath23); stroke:none;" points=" 99 50 87 44 75 50 87 56" />
      <polygon style="fill:none; clip-path:url(#clipPath23);" points=" 99 50 87 44 75 50 87 56" />
    </g>
    <g transform="translate(216,66)" style="font-size:11; stroke-linecap:butt; text-rendering:geometricPrecision; font-family:sans-serif; stroke-linejoin:round;">
      <line x1="50" x2="50" y1="50" style="clip-path:url(#clipPath24); fill:none;" y2="109" />
      <polygon style="fill:white; clip-path:url(#clipPath24); stroke:none;" points=" 50 50 44 62 56 62" />
      <polygon style="fill:none; clip-path:url(#clipPath24);" points=" 50 50 44 62 56 62" />
    </g>
    <g transform="translate(146,296)" style="font-size:11; stroke-linecap:butt; text-rendering:geometricPrecision; font-family:sans-serif; stroke-linejoin:round;">
      <line x1="50" x2="50" y1="50" style="clip-path:url(#clipPath25); fill:none;" y2="89" />
      <polygon style="fill:white; clip-path:url(#clipPath25); stroke:none;" points=" 50 50 44 62 56 62" />
      <polygon style="fill:none; clip-path:url(#clipPath25);" points=" 50 50 44 62 56 62" />
    </g>
    <g transform="translate(291,296)" style="font-size:11; stroke-linecap:butt; text-rendering:geometricPrecision; font-family:sans-serif; stroke-linejoin:round;">
      <line x1="50" x2="50" y1="50" style="clip-path:url(#clipPath25); fill:none;" y2="89" />
      <polygon style="fill:white; clip-path:url(#clipPath25); stroke:none;" points=" 50 50 44 62 56 62" />
      <polygon style="fill:none; clip-path:url(#clipPath25);" points=" 50 50 44 62 56 62" />
    </g>
    <g transform="translate(56,36)" style="font-size:11; stroke-linecap:butt; text-rendering:geometricPrecision; font-family:sans-serif; stroke-linejoin:round;">
      <line x1="50" x2="50" y1="50" style="clip-path:url(#clipPath25); fill:none;" y2="89" />
      <polygon style="fill:white; clip-path:url(#clipPath25); stroke:none;" points=" 50 50 44 62 56 62" />
      <polygon style="fill:none; clip-path:url(#clipPath25);" points=" 50 50 44 62 56 62" />
    </g>
    <g transform="translate(56,116)" style="font-size:11; stroke-linecap:butt; text-rendering:geometricPrecision; font-family:sans-serif; stroke-linejoin:round;">
      <line x1="50" x2="50" y1="74" style="clip-path:url(#clipPath25); fill:none;" y2="89" />
      <polygon style="clip-path:url(#clipPath25); stroke:none;" points=" 50 50 44 62 50 74 56 62" />
      <polygon style="fill:none; clip-path:url(#clipPath25);" points=" 50 50 44 62 50 74 56 62" />
    </g>
    <g style="text-rendering:geometricPrecision; font-size:11; font-family:sans-serif;" transform="translate(106,169)">
      <text x="10" y="11" style="clip-path:url(#clipPath26); stroke:none;" xml:space="preserve">1..*</text>
    </g>
    <g style="text-rendering:geometricPrecision; font-size:11; font-family:sans-serif;" transform="translate(336,36)">
      <text x="10" y="11" style="clip-path:url(#clipPath27); stroke:none;" xml:space="preserve">1</text>
    </g>
    <g style="text-rendering:geometricPrecision; font-size:11; font-family:sans-serif;" transform="translate(156,36)">
      <text x="10" y="11" style="clip-path:url(#clipPath26); stroke:none;" xml:space="preserve">1..*</text>
    </g>
    <g style="text-rendering:geometricPrecision; font-size:11; font-family:sans-serif;" transform="translate(336,206)">
      <text x="10" y="11" style="clip-path:url(#clipPath27); stroke:none;" xml:space="preserve">1</text>
    </g>
    <g style="text-rendering:geometricPrecision; font-size:11; font-family:sans-serif;" transform="translate(176,206)">
      <text x="10" y="11" style="clip-path:url(#clipPath28); stroke:none;" xml:space="preserve">1</text>
    </g>
  </g>
</svg>
