<?xml version="1.0" encoding="UTF-8"?>

<!DOCTYPE svg PUBLIC '-//W3C//DTD SVG 1.0//EN' 'http://www.w3.org/TR/2001/REC-SVG-20010904/DTD/svg10.dtd'>
<svg style="fill-opacity:1; color-rendering:auto; color-interpolation:auto; stroke:black; text-rendering:auto; stroke-linecap:square; stroke-miterlimit:10; stroke-opacity:1; shape-rendering:auto; fill:black; stroke-dasharray:none; font-weight:normal; stroke-width:1; font-family:&apos;Dialog&apos;; font-style:normal; stroke-linejoin:miter; font-size:12; stroke-dashoffset:0; image-rendering:auto;" xmlns="http://www.w3.org/2000/svg" width="666" xmlns:xlink="http://www.w3.org/1999/xlink" height="316">
  <defs id="genericDefs" />
  <g>
    <defs id="defs1">
      <clipPath clipPathUnits="userSpaceOnUse" id="clipPath1">
        <path d="M-3 -3 L117 -3 L117 317 L-3 317 L-3 -3 Z" />
      </clipPath>
      <clipPath clipPathUnits="userSpaceOnUse" id="clipPath2">
        <path d="M-3 -3 L67 -3 L67 317 L-3 317 L-3 -3 Z" />
      </clipPath>
      <clipPath clipPathUnits="userSpaceOnUse" id="clipPath3">
        <path d="M-3 -3 L15 -3 L15 27 L-3 27 L-3 -3 Z" />
      </clipPath>
      <clipPath clipPathUnits="userSpaceOnUse" id="clipPath4">
        <path d="M-3 -3 L77 -3 L77 317 L-3 317 L-3 -3 Z" />
      </clipPath>
      <clipPath clipPathUnits="userSpaceOnUse" id="clipPath5">
        <path d="M-3 -3 L15 -3 L15 47 L-3 47 L-3 -3 Z" />
      </clipPath>
      <clipPath clipPathUnits="userSpaceOnUse" id="clipPath6">
        <path d="M-3 -3 L87 -3 L87 317 L-3 317 L-3 -3 Z" />
      </clipPath>
      <clipPath clipPathUnits="userSpaceOnUse" id="clipPath7">
        <path d="M-3 -3 L15 -3 L15 19 L-3 19 L-3 -3 Z" />
      </clipPath>
      <clipPath clipPathUnits="userSpaceOnUse" id="clipPath8">
        <path d="M-3 -3 L147 -3 L147 57 L-3 57 L-3 -3 Z" />
      </clipPath>
      <clipPath clipPathUnits="userSpaceOnUse" id="clipPath9">
        <path d="M0 0 L0 50 L140 50 L140 0 Z" />
      </clipPath>
      <clipPath clipPathUnits="userSpaceOnUse" id="clipPath10">
        <path d="M-3 -3 L327 -3 L327 97 L-3 97 L-3 -3 Z" />
      </clipPath>
      <clipPath clipPathUnits="userSpaceOnUse" id="clipPath11">
        <path d="M0 0 L35 0 L35 17 L0 17 L0 0 Z" />
      </clipPath>
      <clipPath clipPathUnits="userSpaceOnUse" id="clipPath12">
        <path d="M-3 -3 L15 -3 L15 157 L-3 157 L-3 -3 Z" />
      </clipPath>
      <clipPath clipPathUnits="userSpaceOnUse" id="clipPath13">
        <path d="M-3 -3 L327 -3 L327 80 L-3 80 L-3 -3 Z" />
      </clipPath>
      <clipPath clipPathUnits="userSpaceOnUse" id="clipPath14">
        <path d="M0 0 L139 0 L139 14 L0 14 L0 0 Z" />
      </clipPath>
      <clipPath clipPathUnits="userSpaceOnUse" id="clipPath15">
        <path d="M0 0 L0 4 L320 4 L320 0 Z" />
      </clipPath>
      <clipPath clipPathUnits="userSpaceOnUse" id="clipPath16">
        <path d="M-3 -3 L167 -3 L167 47 L-3 47 L-3 -3 Z" />
      </clipPath>
      <clipPath clipPathUnits="userSpaceOnUse" id="clipPath17">
        <path d="M0 0 L0 40 L160 40 L160 0 Z" />
      </clipPath>
      <clipPath clipPathUnits="userSpaceOnUse" id="clipPath18">
        <path d="M-3 -3 L15 -3 L15 57 L-3 57 L-3 -3 Z" />
      </clipPath>
      <clipPath clipPathUnits="userSpaceOnUse" id="clipPath19">
        <path d="M-80 -14 L160 -14 L160 28 L-80 28 L-80 -14 Z" />
      </clipPath>
      <clipPath clipPathUnits="userSpaceOnUse" id="clipPath20">
        <path d="M-70 -14 L140 -14 L140 28 L-70 28 L-70 -14 Z" />
      </clipPath>
      <clipPath clipPathUnits="userSpaceOnUse" id="clipPath21">
        <path d="M-110 -14 L220 -14 L220 28 L-110 28 L-110 -14 Z" />
      </clipPath>
      <clipPath clipPathUnits="userSpaceOnUse" id="clipPath22">
        <path d="M-60 -14 L120 -14 L120 28 L-60 28 L-60 -14 Z" />
      </clipPath>
      <clipPath clipPathUnits="userSpaceOnUse" id="clipPath23">
        <path d="M-110 -28 L220 -28 L220 56 L-110 56 L-110 -28 Z" />
      </clipPath>
      <clipPath clipPathUnits="userSpaceOnUse" id="clipPath24">
        <path d="M0 0 L386 0 L386 104 L0 104 L0 0 Z" />
      </clipPath>
      <clipPath clipPathUnits="userSpaceOnUse" id="clipPath25">
        <path d="M0 0 L226 0 L226 104 L0 104 L0 0 Z" />
      </clipPath>
      <clipPath clipPathUnits="userSpaceOnUse" id="clipPath26">
        <path d="M0 0 L341 0 L341 104 L0 104 L0 0 Z" />
      </clipPath>
      <clipPath clipPathUnits="userSpaceOnUse" id="clipPath27">
        <path d="M0 0 L194 0 L194 184 L0 184 L0 0 Z" />
      </clipPath>
      <clipPath clipPathUnits="userSpaceOnUse" id="clipPath28">
        <path d="M0 0 L125 0 L125 125 L0 125 L0 0 Z" />
      </clipPath>
      <clipPath clipPathUnits="userSpaceOnUse" id="clipPath29">
        <path d="M0 0 L231 0 L231 104 L0 104 L0 0 Z" />
      </clipPath>
      <clipPath clipPathUnits="userSpaceOnUse" id="clipPath30">
        <path d="M-126 -14 L252 -14 L252 28 L-126 28 L-126 -14 Z" />
      </clipPath>
      <clipPath clipPathUnits="userSpaceOnUse" id="clipPath31">
        <path d="M-72 -14 L144 -14 L144 28 L-72 28 L-72 -14 Z" />
      </clipPath>
      <clipPath clipPathUnits="userSpaceOnUse" id="clipPath32">
        <path d="M-198 -14 L396 -14 L396 28 L-198 28 L-198 -14 Z" />
      </clipPath>
      <clipPath clipPathUnits="userSpaceOnUse" id="clipPath33">
        <path d="M-104 -14 L208 -14 L208 28 L-104 28 L-104 -14 Z" />
      </clipPath>
      <clipPath clipPathUnits="userSpaceOnUse" id="clipPath34">
        <path d="M-102 -14 L204 -14 L204 28 L-102 28 L-102 -14 Z" />
      </clipPath>
      <clipPath clipPathUnits="userSpaceOnUse" id="clipPath35">
        <path d="M-122 -14 L244 -14 L244 28 L-122 28 L-122 -14 Z" />
      </clipPath>
    </defs>
    <g style="fill:white; text-rendering:geometricPrecision; stroke:white;">
      <rect x="0" y="0" width="666" style="stroke:none;" height="316" />
    </g>
    <g transform="translate(2,2)" style="font-size:11; fill:rgb(122,207,245); text-rendering:geometricPrecision; font-family:sans-serif; stroke:rgb(122,207,245);">
      <rect x="0" y="0" width="109" style="clip-path:url(#clipPath1); stroke:none;" height="35" />
    </g>
    <g transform="translate(2,2)" style="font-size:11; stroke-linecap:butt; text-rendering:geometricPrecision; font-family:sans-serif; stroke-linejoin:round; stroke-miterlimit:0;">
      <rect x="0" y="0" width="109" style="clip-path:url(#clipPath1); fill:none;" height="35" />
      <line x1="54" x2="54" y1="35" style="clip-path:url(#clipPath1); fill:none; stroke-linejoin:bevel; stroke-dasharray:8,3;" y2="310" />
    </g>
    <g transform="translate(162,2)" style="font-size:11; fill:rgb(122,207,245); text-rendering:geometricPrecision; font-family:sans-serif; stroke:rgb(122,207,245);">
      <rect x="0" y="0" width="59" style="clip-path:url(#clipPath2); stroke:none;" height="35" />
    </g>
    <g transform="translate(162,2)" style="font-size:11; stroke-linecap:butt; text-rendering:geometricPrecision; font-family:sans-serif; stroke-linejoin:round; stroke-miterlimit:0;">
      <rect x="0" y="0" width="59" style="clip-path:url(#clipPath2); fill:none;" height="35" />
      <line x1="29" x2="29" y1="35" style="clip-path:url(#clipPath2); fill:none; stroke-linejoin:bevel; stroke-dasharray:8,3;" y2="310" />
    </g>
    <g transform="translate(292,2)" style="font-size:11; fill:rgb(122,207,245); text-rendering:geometricPrecision; font-family:sans-serif; stroke:rgb(122,207,245);">
      <rect x="0" y="0" width="109" style="clip-path:url(#clipPath1); stroke:none;" height="35" />
    </g>
    <g transform="translate(292,2)" style="font-size:11; stroke-linecap:butt; text-rendering:geometricPrecision; font-family:sans-serif; stroke-linejoin:round; stroke-miterlimit:0;">
      <rect x="0" y="0" width="109" style="clip-path:url(#clipPath1); fill:none;" height="35" />
      <line x1="54" x2="54" y1="35" style="clip-path:url(#clipPath1); fill:none; stroke-linejoin:bevel; stroke-dasharray:8,3;" y2="310" />
    </g>
    <g transform="translate(343,191)" style="font-size:11; fill:rgb(122,207,245); text-rendering:geometricPrecision; font-family:sans-serif; stroke:rgb(122,207,245);">
      <rect x="0" y="0" width="8" style="clip-path:url(#clipPath3); stroke:none;" height="20" />
    </g>
    <g transform="translate(343,191)" style="font-size:11; stroke-linecap:butt; text-rendering:geometricPrecision; font-family:sans-serif; stroke-linejoin:round; stroke-miterlimit:0;">
      <rect x="0" y="0" width="8" style="clip-path:url(#clipPath3); fill:none;" height="20" />
    </g>
    <g transform="translate(442,2)" style="font-size:11; fill:rgb(122,207,245); text-rendering:geometricPrecision; font-family:sans-serif; stroke:rgb(122,207,245);">
      <rect x="0" y="0" width="69" style="clip-path:url(#clipPath4); stroke:none;" height="35" />
    </g>
    <g transform="translate(442,2)" style="font-size:11; stroke-linecap:butt; text-rendering:geometricPrecision; font-family:sans-serif; stroke-linejoin:round; stroke-miterlimit:0;">
      <rect x="0" y="0" width="69" style="clip-path:url(#clipPath4); fill:none;" height="35" />
      <line x1="34" x2="34" y1="35" style="clip-path:url(#clipPath4); fill:none; stroke-linejoin:bevel; stroke-dasharray:8,3;" y2="310" />
    </g>
    <g transform="translate(473,199)" style="font-size:11; fill:rgb(122,207,245); text-rendering:geometricPrecision; font-family:sans-serif; stroke:rgb(122,207,245);">
      <rect x="0" y="0" width="8" style="clip-path:url(#clipPath5); stroke:none;" height="40" />
    </g>
    <g transform="translate(473,199)" style="font-size:11; stroke-linecap:butt; text-rendering:geometricPrecision; font-family:sans-serif; stroke-linejoin:round; stroke-miterlimit:0;">
      <rect x="0" y="0" width="8" style="clip-path:url(#clipPath5); fill:none;" height="40" />
    </g>
    <g transform="translate(552,2)" style="font-size:11; fill:rgb(122,207,245); text-rendering:geometricPrecision; font-family:sans-serif; stroke:rgb(122,207,245);">
      <rect x="0" y="0" width="79" style="clip-path:url(#clipPath6); stroke:none;" height="35" />
    </g>
    <g transform="translate(552,2)" style="font-size:11; stroke-linecap:butt; text-rendering:geometricPrecision; font-family:sans-serif; stroke-linejoin:round; stroke-miterlimit:0;">
      <rect x="0" y="0" width="79" style="clip-path:url(#clipPath6); fill:none;" height="35" />
      <line x1="39" x2="39" y1="35" style="clip-path:url(#clipPath6); fill:none; stroke-linejoin:bevel; stroke-dasharray:8,3;" y2="310" />
    </g>
    <g transform="translate(588,272)" style="font-size:11; fill:rgb(122,207,245); text-rendering:geometricPrecision; font-family:sans-serif; stroke:rgb(122,207,245);">
      <rect x="0" y="0" width="8" style="clip-path:url(#clipPath7); stroke:none;" height="12" />
    </g>
    <g transform="translate(588,272)" style="font-size:11; stroke-linecap:butt; text-rendering:geometricPrecision; font-family:sans-serif; stroke-linejoin:round; stroke-miterlimit:0;">
      <rect x="0" y="0" width="8" style="clip-path:url(#clipPath7); fill:none;" height="12" />
    </g>
    <g transform="translate(502,152)" style="font-size:11; fill:rgb(122,207,245); text-rendering:geometricPrecision; font-family:sans-serif; stroke:rgb(122,207,245);">
      <polygon style="clip-path:url(#clipPath8); stroke:none;" points=" 0 0 124 0 139 15 124 15 124 0 139 15 139 49 0 49" />
    </g>
    <g transform="translate(502,152)" style="font-size:11; stroke-linecap:butt; text-rendering:geometricPrecision; font-family:sans-serif; stroke-linejoin:round; stroke-miterlimit:0;">
      <polygon style="fill:none; clip-path:url(#clipPath8);" points=" 0 0 124 0 139 15 124 15 124 0 139 15 139 49 0 49" />
    </g>
    <g style="text-rendering:geometricPrecision; font-size:13; font-family:&apos;Lucida Grande&apos;;" transform="translate(502,152)">
      <path d="M4.0817 14.1553 L4.0817 5.8621 L6.4255 5.8621 Q7.8678 5.8621 8.4988 6.3128 Q9.1298 6.7635 9.1298 8.0255 Q9.1298 9.2876 8.2284 10.0989 Q7.3269 10.9102 5.7043 10.9102 L5.1635 10.9102 L5.1635 14.1553 ZM5.1635 10.0087 L5.7043 10.0087 Q6.7861 10.0087 7.3269 9.4678 Q7.8678 8.927 7.8678 8.0255 Q7.8678 7.3044 7.4171 7.034 Q6.9663 6.7635 6.0649 6.7635 L5.1635 6.7635 ZM10.0817 14.1553 L10.0817 8.0255 L11.1635 8.0255 L11.1635 9.1073 Q11.8846 7.8453 13.1466 7.8453 Q13.3269 7.8453 13.5072 7.8453 L13.5072 8.927 Q13.1466 8.927 12.9663 8.927 Q11.8846 8.927 11.1635 10.189 L11.1635 14.1553 ZM17.4255 14.3356 Q16.1635 14.3356 15.3522 13.4342 Q14.5409 12.5328 14.5409 11.0904 Q14.5409 9.6481 15.3522 8.7467 Q16.1635 7.8453 17.6058 7.8453 Q18.8678 7.8453 19.6791 8.7467 Q20.4904 9.6481 20.4904 11.0904 Q20.4904 12.5328 19.6791 13.4342 Q18.8678 14.3356 17.4255 14.3356 ZM17.6058 13.4342 Q19.2284 13.4342 19.2284 11.0904 Q19.2284 8.7467 17.6058 8.7467 Q15.8029 8.7467 15.8029 11.0904 Q15.8029 13.4342 17.6058 13.4342 ZM24.4255 14.3356 Q23.3438 14.3356 22.4423 13.4342 Q21.5409 12.5328 21.5409 11.0904 Q21.5409 9.6481 22.3522 8.7467 Q23.1635 7.8453 24.6058 7.8453 Q25.3269 7.8453 26.2284 8.0255 L26.2284 9.1073 Q25.3269 8.7467 24.7861 8.7467 Q23.8846 8.7467 23.3438 9.3777 Q22.8029 10.0087 22.8029 11.0904 Q22.8029 12.1722 23.3438 12.8032 Q23.8846 13.4342 24.7861 13.4342 Q25.5072 13.4342 26.4087 13.0736 L26.4087 13.9751 Q25.3269 14.3356 24.4255 14.3356 ZM32.5889 13.9751 Q31.5072 14.3356 30.6058 14.3356 Q29.3438 14.3356 28.4423 13.4342 Q27.5409 12.5328 27.5409 11.0904 Q27.5409 9.6481 28.3522 8.7467 Q29.1635 7.8453 30.2452 7.8453 Q31.3269 7.8453 31.9579 8.6566 Q32.5889 9.4678 32.5889 10.9102 L32.5889 11.2707 L28.8029 11.2707 Q28.9832 13.4342 30.9663 13.4342 Q31.5072 13.4342 32.5889 13.0736 ZM28.8029 10.3693 L31.5072 10.3693 Q31.5072 8.7467 30.2452 8.7467 Q28.9832 8.7467 28.8029 10.3693 ZM35.7043 14.3356 Q34.9832 14.3356 33.9014 13.9751 L33.9014 12.8933 Q34.9832 13.4342 35.7043 13.4342 Q36.2452 13.4342 36.6058 13.1638 Q36.9663 12.8933 36.9663 12.5328 Q36.9663 11.9919 36.0649 11.6313 L35.3438 11.2707 Q33.9014 10.7299 33.9014 9.6481 Q33.9014 8.7467 34.4423 8.296 Q34.9832 7.8453 36.0649 7.8453 Q36.6058 7.8453 37.3269 8.0255 L37.5072 8.0255 L37.5072 8.927 Q36.6058 8.7467 36.0649 8.7467 Q34.9832 8.7467 34.9832 9.4678 Q34.9832 10.0087 35.8846 10.3693 L36.4255 10.5496 Q37.3269 10.9102 37.6875 11.3609 Q38.0481 11.8116 38.0481 12.5328 Q38.0481 13.2539 37.4171 13.7948 Q36.7861 14.3356 35.7043 14.3356 ZM41.7043 14.3356 Q40.9832 14.3356 39.9014 13.9751 L39.9014 12.8933 Q40.9832 13.4342 41.7043 13.4342 Q42.2452 13.4342 42.6058 13.1638 Q42.9663 12.8933 42.9663 12.5328 Q42.9663 11.9919 42.0649 11.6313 L41.3438 11.2707 Q39.9014 10.7299 39.9014 9.6481 Q39.9014 8.7467 40.4423 8.296 Q40.9832 7.8453 42.0649 7.8453 Q42.6058 7.8453 43.3269 8.0255 L43.5072 8.0255 L43.5072 8.927 Q42.6058 8.7467 42.0649 8.7467 Q40.9832 8.7467 40.9832 9.4678 Q40.9832 10.0087 41.8846 10.3693 L42.4255 10.5496 Q43.3269 10.9102 43.6875 11.3609 Q44.0481 11.8116 44.0481 12.5328 Q44.0481 13.2539 43.4171 13.7948 Q42.7861 14.3356 41.7043 14.3356 ZM48.4255 14.3356 Q47.1635 14.3356 46.3522 13.4342 Q45.5409 12.5328 45.5409 11.0904 Q45.5409 9.6481 46.3522 8.7467 Q47.1635 7.8453 48.6058 7.8453 Q49.8678 7.8453 50.6791 8.7467 Q51.4904 9.6481 51.4904 11.0904 Q51.4904 12.5328 50.6791 13.4342 Q49.8678 14.3356 48.4255 14.3356 ZM48.6058 13.4342 Q50.2284 13.4342 50.2284 11.0904 Q50.2284 8.7467 48.6058 8.7467 Q46.8029 8.7467 46.8029 11.0904 Q46.8029 13.4342 48.6058 13.4342 ZM53.0817 14.1553 L53.0817 8.0255 L54.1635 8.0255 L54.1635 9.1073 Q54.8846 7.8453 56.1466 7.8453 Q56.3269 7.8453 56.5072 7.8453 L56.5072 8.927 Q56.1466 8.927 55.9663 8.927 Q54.8846 8.927 54.1635 10.189 L54.1635 14.1553 ZM62.0817 14.1553 L62.0817 8.0255 L63.1635 8.0255 L63.1635 9.1073 Q64.0649 7.8453 65.3269 7.8453 Q66.5889 7.8453 66.9495 9.1073 Q67.851 7.8453 69.113 7.8453 Q69.8341 7.8453 70.2849 8.3861 Q70.7356 8.927 70.7356 9.6481 L70.7356 14.1553 L69.6538 14.1553 L69.6538 9.8284 Q69.6538 8.7467 68.7524 8.7467 Q67.851 8.7467 66.9495 10.0087 L66.9495 14.1553 L65.8678 14.1553 L65.8678 9.8284 Q65.8678 8.7467 64.9663 8.7467 Q64.2452 8.7467 63.1635 10.0087 L63.1635 14.1553 ZM76.3269 13.4342 Q75.2452 14.3356 74.3438 14.3356 Q73.6226 14.3356 73.0817 13.7948 Q72.5409 13.2539 72.5409 12.5328 Q72.5409 11.6313 73.4423 11.0904 Q74.3438 10.5496 75.7861 10.5496 L76.1466 10.5496 L76.1466 9.8284 Q76.1466 8.7467 75.0649 8.7467 Q74.1635 8.7467 73.0817 9.2876 L73.0817 8.3861 Q74.1635 7.8453 75.2452 7.8453 Q76.3269 7.8453 76.7776 8.296 Q77.2284 8.7467 77.2284 9.8284 L77.2284 12.5328 Q77.2284 13.4342 77.7692 13.4342 Q77.9495 13.4342 77.9495 13.4342 L78.1298 14.1553 Q77.7692 14.3356 77.2284 14.3356 Q76.5072 14.3356 76.3269 13.4342 ZM76.1466 12.713 L76.1466 11.2707 L75.7861 11.0904 Q74.8846 11.0904 74.2536 11.451 Q73.6226 11.8116 73.6226 12.3525 Q73.6226 12.8933 73.9832 13.1638 Q74.3438 13.4342 74.7043 13.4342 Q75.4255 13.4342 76.1466 12.713 ZM79.4423 16.3188 L80.524 14.1553 L78.1803 8.0255 L79.262 8.0255 L81.0649 12.713 L82.8678 8.0255 L83.9495 8.0255 L80.7043 16.3188 ZM89.8029 14.1553 L88 8.0255 L89.0817 8.0255 L90.524 12.713 L91.9663 8.0255 L93.0481 8.0255 L94.3101 12.713 L95.9327 8.0255 L96.8341 8.0255 L94.851 14.1553 L93.7692 14.1553 L92.3269 9.4678 L90.8846 14.1553 ZM101.3269 13.4342 Q100.2452 14.3356 99.3438 14.3356 Q98.6226 14.3356 98.0817 13.7948 Q97.5409 13.2539 97.5409 12.5328 Q97.5409 11.6313 98.4423 11.0904 Q99.3438 10.5496 100.7861 10.5496 L101.1466 10.5496 L101.1466 9.8284 Q101.1466 8.7467 100.0649 8.7467 Q99.1635 8.7467 98.0817 9.2876 L98.0817 8.3861 Q99.1635 7.8453 100.2452 7.8453 Q101.3269 7.8453 101.7776 8.296 Q102.2284 8.7467 102.2284 9.8284 L102.2284 12.5328 Q102.2284 13.4342 102.7692 13.4342 Q102.9495 13.4342 102.9495 13.4342 L103.1298 14.1553 Q102.7692 14.3356 102.2284 14.3356 Q101.5072 14.3356 101.3269 13.4342 ZM101.1466 12.713 L101.1466 11.2707 L100.7861 11.0904 Q99.8846 11.0904 99.2536 11.451 Q98.6226 11.8116 98.6226 12.3525 Q98.6226 12.8933 98.9832 13.1638 Q99.3438 13.4342 99.7043 13.4342 Q100.4255 13.4342 101.1466 12.713 ZM104.0817 14.1553 L104.0817 8.0255 L105.1635 8.0255 L105.1635 9.1073 Q106.0649 7.8453 107.3269 7.8453 Q108.2284 7.8453 108.6791 8.3861 Q109.1298 8.927 109.1298 9.8284 L109.1298 14.1553 L108.0481 14.1553 L108.0481 10.189 Q108.0481 9.4678 107.8678 9.1974 Q107.6875 8.927 107.1466 8.927 Q106.0649 8.927 105.1635 10.189 L105.1635 14.1553 ZM112.8846 14.3356 Q112.1635 14.3356 111.6226 13.7948 Q111.0817 13.2539 111.0817 12.5328 L111.0817 8.927 L110.3606 8.927 L110.3606 8.0255 L111.0817 8.0255 L111.0817 6.9438 L112.3438 6.7635 L112.3438 8.0255 L113.7861 8.0255 L113.7861 8.927 L112.3438 8.927 L112.3438 12.1722 Q112.3438 13.4342 113.2452 13.4342 Q113.6058 13.4342 113.7861 13.4342 L113.7861 14.1553 Q113.2452 14.3356 112.8846 14.3356 ZM120.8846 14.3356 Q120.1635 14.3356 119.6226 13.7948 Q119.0817 13.2539 119.0817 12.5328 L119.0817 8.927 L118.3606 8.927 L118.3606 8.0255 L119.0817 8.0255 L119.0817 6.9438 L120.3438 6.7635 L120.3438 8.0255 L121.7861 8.0255 L121.7861 8.927 L120.3438 8.927 L120.3438 12.1722 Q120.3438 13.4342 121.2452 13.4342 Q121.6058 13.4342 121.7861 13.4342 L121.7861 14.1553 Q121.2452 14.3356 120.8846 14.3356 ZM125.4255 14.3356 Q124.1635 14.3356 123.3522 13.4342 Q122.5409 12.5328 122.5409 11.0904 Q122.5409 9.6481 123.3522 8.7467 Q124.1635 7.8453 125.6058 7.8453 Q126.8678 7.8453 127.6791 8.7467 Q128.4904 9.6481 128.4904 11.0904 Q128.4904 12.5328 127.6791 13.4342 Q126.8678 14.3356 125.4255 14.3356 ZM125.6058 13.4342 Q127.2284 13.4342 127.2284 11.0904 Q127.2284 8.7467 125.6058 8.7467 Q123.8029 8.7467 123.8029 11.0904 Q123.8029 13.4342 125.6058 13.4342 Z" style="clip-path:url(#clipPath9); stroke:none;" />
      <path d="M4.0817 29.3188 L4.0817 21.0255 L5.1635 21.0255 L5.1635 22.1073 Q5.8846 20.8453 7.3269 20.8453 Q8.4087 20.8453 9.0397 21.6566 Q9.6707 22.4678 9.6707 23.9102 Q9.6707 25.3525 8.9495 26.3441 Q8.2284 27.3356 6.9663 27.3356 Q5.8846 27.3356 5.1635 26.4342 L5.1635 29.3188 ZM5.1635 25.713 Q6.0649 26.4342 6.7861 26.4342 Q8.4087 26.4342 8.4087 24.0904 Q8.4087 21.927 6.9663 21.927 Q6.0649 21.927 5.1635 22.8284 ZM11.0817 27.1553 L11.0817 21.0255 L12.1635 21.0255 L12.1635 22.1073 Q12.8846 20.8453 14.1466 20.8453 Q14.3269 20.8453 14.5072 20.8453 L14.5072 21.927 Q14.1466 21.927 13.9663 21.927 Q12.8846 21.927 12.1635 23.189 L12.1635 27.1553 ZM18.4255 27.3356 Q17.1635 27.3356 16.3522 26.4342 Q15.5409 25.5328 15.5409 24.0904 Q15.5409 22.6481 16.3522 21.7467 Q17.1635 20.8453 18.6058 20.8453 Q19.8678 20.8453 20.6791 21.7467 Q21.4904 22.6481 21.4904 24.0904 Q21.4904 25.5328 20.6791 26.4342 Q19.8678 27.3356 18.4255 27.3356 ZM18.6058 26.4342 Q20.2284 26.4342 20.2284 24.0904 Q20.2284 21.7467 18.6058 21.7467 Q16.8029 21.7467 16.8029 24.0904 Q16.8029 26.4342 18.6058 26.4342 ZM25.4255 27.3356 Q24.3438 27.3356 23.4423 26.4342 Q22.5409 25.5328 22.5409 24.0904 Q22.5409 22.6481 23.3522 21.7467 Q24.1635 20.8453 25.6058 20.8453 Q26.3269 20.8453 27.2284 21.0255 L27.2284 22.1073 Q26.3269 21.7467 25.7861 21.7467 Q24.8846 21.7467 24.3438 22.3777 Q23.8029 23.0087 23.8029 24.0904 Q23.8029 25.1722 24.3438 25.8032 Q24.8846 26.4342 25.7861 26.4342 Q26.5072 26.4342 27.4087 26.0736 L27.4087 26.9751 Q26.3269 27.3356 25.4255 27.3356 ZM33.5889 26.9751 Q32.5072 27.3356 31.6058 27.3356 Q30.3438 27.3356 29.4423 26.4342 Q28.5409 25.5328 28.5409 24.0904 Q28.5409 22.6481 29.3522 21.7467 Q30.1635 20.8453 31.2452 20.8453 Q32.3269 20.8453 32.9579 21.6566 Q33.5889 22.4678 33.5889 23.9102 L33.5889 24.2707 L29.8029 24.2707 Q29.9832 26.4342 31.9663 26.4342 Q32.5072 26.4342 33.5889 26.0736 ZM29.8029 23.3693 L32.5072 23.3693 Q32.5072 21.7467 31.2452 21.7467 Q29.9832 21.7467 29.8029 23.3693 ZM36.7043 27.3356 Q35.9832 27.3356 34.9014 26.9751 L34.9014 25.8933 Q35.9832 26.4342 36.7043 26.4342 Q37.2452 26.4342 37.6058 26.1638 Q37.9663 25.8933 37.9663 25.5328 Q37.9663 24.9919 37.0649 24.6313 L36.3438 24.2707 Q34.9014 23.7299 34.9014 22.6481 Q34.9014 21.7467 35.4423 21.296 Q35.9832 20.8453 37.0649 20.8453 Q37.6058 20.8453 38.3269 21.0255 L38.5072 21.0255 L38.5072 21.927 Q37.6058 21.7467 37.0649 21.7467 Q35.9832 21.7467 35.9832 22.4678 Q35.9832 23.0087 36.8846 23.3693 L37.4255 23.5496 Q38.3269 23.9102 38.6875 24.3609 Q39.0481 24.8116 39.0481 25.5328 Q39.0481 26.2539 38.4171 26.7948 Q37.7861 27.3356 36.7043 27.3356 ZM42.7043 27.3356 Q41.9832 27.3356 40.9014 26.9751 L40.9014 25.8933 Q41.9832 26.4342 42.7043 26.4342 Q43.2452 26.4342 43.6058 26.1638 Q43.9663 25.8933 43.9663 25.5328 Q43.9663 24.9919 43.0649 24.6313 L42.3438 24.2707 Q40.9014 23.7299 40.9014 22.6481 Q40.9014 21.7467 41.4423 21.296 Q41.9832 20.8453 43.0649 20.8453 Q43.6058 20.8453 44.3269 21.0255 L44.5072 21.0255 L44.5072 21.927 Q43.6058 21.7467 43.0649 21.7467 Q41.9832 21.7467 41.9832 22.4678 Q41.9832 23.0087 42.8846 23.3693 L43.4255 23.5496 Q44.3269 23.9102 44.6875 24.3609 Q45.0481 24.8116 45.0481 25.5328 Q45.0481 26.2539 44.4171 26.7948 Q43.7861 27.3356 42.7043 27.3356 ZM52.8846 27.3356 Q52.1635 27.3356 51.6226 26.7948 Q51.0817 26.2539 51.0817 25.5328 L51.0817 21.927 L50.3606 21.927 L50.3606 21.0255 L51.0817 21.0255 L51.0817 19.9438 L52.3438 19.7635 L52.3438 21.0255 L53.7861 21.0255 L53.7861 21.927 L52.3438 21.927 L52.3438 25.1722 Q52.3438 26.4342 53.2452 26.4342 Q53.6058 26.4342 53.7861 26.4342 L53.7861 27.1553 Q53.2452 27.3356 52.8846 27.3356 ZM55.0817 27.1553 L55.0817 18.3212 L56.1635 18.3212 L56.1635 22.1073 Q57.0649 20.8453 58.3269 20.8453 Q59.2284 20.8453 59.6791 21.3861 Q60.1298 21.927 60.1298 22.8284 L60.1298 27.1553 L59.0481 27.1553 L59.0481 23.189 Q59.0481 22.4678 58.8678 22.1974 Q58.6875 21.927 58.1466 21.927 Q57.0649 21.927 56.1635 23.189 L56.1635 27.1553 ZM66.5889 26.9751 Q65.5072 27.3356 64.6058 27.3356 Q63.3438 27.3356 62.4423 26.4342 Q61.5409 25.5328 61.5409 24.0904 Q61.5409 22.6481 62.3522 21.7467 Q63.1635 20.8453 64.2452 20.8453 Q65.3269 20.8453 65.9579 21.6566 Q66.5889 22.4678 66.5889 23.9102 L66.5889 24.2707 L62.8029 24.2707 Q62.9832 26.4342 64.9663 26.4342 Q65.5072 26.4342 66.5889 26.0736 ZM62.8029 23.3693 L65.5072 23.3693 Q65.5072 21.7467 64.2452 21.7467 Q62.9832 21.7467 62.8029 23.3693 ZM75.6875 27.3356 Q73.7043 27.3356 72.6226 26.1638 Q71.5409 24.9919 71.5409 23.0087 Q71.5409 20.8453 72.6226 19.7635 Q73.7043 18.6818 75.6875 18.6818 Q76.7692 18.6818 78.3918 19.0424 L78.3918 20.1241 Q76.5889 19.4029 75.6875 19.4029 Q74.2452 19.4029 73.524 20.3945 Q72.8029 21.3861 72.8029 23.0087 Q72.8029 24.6313 73.6142 25.5328 Q74.4255 26.4342 75.8678 26.4342 Q76.9495 26.4342 78.3918 25.713 L78.3918 26.7948 Q77.1298 27.3356 75.6875 27.3356 ZM83.5072 27.3356 Q81.7043 27.3356 80.6226 26.1638 Q79.5409 24.9919 79.5409 23.0087 Q79.5409 21.0255 80.6226 19.8537 Q81.7043 18.6818 83.5072 18.6818 Q85.3101 18.6818 86.3918 19.8537 Q87.4736 21.0255 87.4736 23.0087 Q87.4736 24.9919 86.3918 26.1638 Q85.3101 27.3356 83.5072 27.3356 ZM83.5072 26.4342 Q84.7692 26.4342 85.4904 25.5328 Q86.2115 24.6313 86.2115 23.0087 Q86.2115 21.3861 85.4904 20.3945 Q84.7692 19.4029 83.5072 19.4029 Q82.2452 19.4029 81.524 20.3945 Q80.8029 21.3861 80.8029 23.0087 Q80.8029 24.6313 81.524 25.5328 Q82.2452 26.4342 83.5072 26.4342 ZM89.0817 27.1553 L89.0817 18.8621 L90.1635 18.8621 L94.4904 25.1722 L94.4904 18.8621 L95.3918 18.8621 L95.3918 27.1553 L94.3101 27.1553 L90.1635 20.665 L90.1635 27.1553 ZM98.0817 27.1553 L98.0817 18.8621 L99.1635 18.8621 L103.4904 25.1722 L103.4904 18.8621 L104.3918 18.8621 L104.3918 27.1553 L103.3101 27.1553 L99.1635 20.665 L99.1635 27.1553 ZM107.0817 27.1553 L107.0817 18.8621 L111.7692 18.8621 L111.7692 19.7635 L108.3438 19.7635 L108.3438 22.2876 L111.2284 22.2876 L111.2284 23.189 L108.3438 23.189 L108.3438 26.2539 L111.9495 26.2539 L111.9495 27.1553 ZM116.6875 27.3356 Q114.7043 27.3356 113.6226 26.1638 Q112.5409 24.9919 112.5409 23.0087 Q112.5409 20.8453 113.6226 19.7635 Q114.7043 18.6818 116.6875 18.6818 Q117.7692 18.6818 119.3918 19.0424 L119.3918 20.1241 Q117.5889 19.4029 116.6875 19.4029 Q115.2452 19.4029 114.524 20.3945 Q113.8029 21.3861 113.8029 23.0087 Q113.8029 24.6313 114.6142 25.5328 Q115.4255 26.4342 116.8678 26.4342 Q117.9495 26.4342 119.3918 25.713 L119.3918 26.7948 Q118.1298 27.3356 116.6875 27.3356 ZM123.0649 27.1553 L123.0649 19.7635 L120.1803 19.7635 L120.1803 18.8621 L127.2115 18.8621 L127.2115 19.7635 L124.3269 19.7635 L124.3269 27.1553 Z" style="clip-path:url(#clipPath9); stroke:none;" />
      <path d="M8.5889 39.9751 Q7.5072 40.3356 6.6058 40.3356 Q5.3438 40.3356 4.4423 39.4342 Q3.5409 38.5328 3.5409 37.0904 Q3.5409 35.6481 4.3522 34.7467 Q5.1635 33.8453 6.2452 33.8453 Q7.3269 33.8453 7.9579 34.6566 Q8.5889 35.4678 8.5889 36.9102 L8.5889 37.2707 L4.8029 37.2707 Q4.9832 39.4342 6.9663 39.4342 Q7.5072 39.4342 8.5889 39.0736 ZM4.8029 36.3693 L7.5072 36.3693 Q7.5072 34.7467 6.2452 34.7467 Q4.9832 34.7467 4.8029 36.3693 ZM11.3438 40.1553 L9.1803 34.0255 L10.262 34.0255 L12.0649 38.713 L13.8678 34.0255 L14.9495 34.0255 L12.4255 40.1553 ZM20.5889 39.9751 Q19.5072 40.3356 18.6058 40.3356 Q17.3438 40.3356 16.4423 39.4342 Q15.5409 38.5328 15.5409 37.0904 Q15.5409 35.6481 16.3522 34.7467 Q17.1635 33.8453 18.2452 33.8453 Q19.3269 33.8453 19.9579 34.6566 Q20.5889 35.4678 20.5889 36.9102 L20.5889 37.2707 L16.8029 37.2707 Q16.9832 39.4342 18.9663 39.4342 Q19.5072 39.4342 20.5889 39.0736 ZM16.8029 36.3693 L19.5072 36.3693 Q19.5072 34.7467 18.2452 34.7467 Q16.9832 34.7467 16.8029 36.3693 ZM22.0817 40.1553 L22.0817 34.0255 L23.1635 34.0255 L23.1635 35.1073 Q24.0649 33.8453 25.3269 33.8453 Q26.2284 33.8453 26.6791 34.3861 Q27.1298 34.927 27.1298 35.8284 L27.1298 40.1553 L26.0481 40.1553 L26.0481 36.189 Q26.0481 35.4678 25.8678 35.1974 Q25.6875 34.927 25.1466 34.927 Q24.0649 34.927 23.1635 36.189 L23.1635 40.1553 ZM30.8846 40.3356 Q30.1635 40.3356 29.6226 39.7948 Q29.0817 39.2539 29.0817 38.5328 L29.0817 34.927 L28.3606 34.927 L28.3606 34.0255 L29.0817 34.0255 L29.0817 32.9438 L30.3438 32.7635 L30.3438 34.0255 L31.7861 34.0255 L31.7861 34.927 L30.3438 34.927 L30.3438 38.1722 Q30.3438 39.4342 31.2452 39.4342 Q31.6058 39.4342 31.7861 39.4342 L31.7861 40.1553 Q31.2452 40.3356 30.8846 40.3356 ZM40.3269 39.4342 Q39.2452 40.3356 38.3438 40.3356 Q37.6226 40.3356 37.0817 39.7948 Q36.5409 39.2539 36.5409 38.5328 Q36.5409 37.6313 37.4423 37.0904 Q38.3438 36.5496 39.7861 36.5496 L40.1466 36.5496 L40.1466 35.8284 Q40.1466 34.7467 39.0649 34.7467 Q38.1635 34.7467 37.0817 35.2876 L37.0817 34.3861 Q38.1635 33.8453 39.2452 33.8453 Q40.3269 33.8453 40.7776 34.296 Q41.2284 34.7467 41.2284 35.8284 L41.2284 38.5328 Q41.2284 39.4342 41.7692 39.4342 Q41.9495 39.4342 41.9495 39.4342 L42.1298 40.1553 Q41.7692 40.3356 41.2284 40.3356 Q40.5072 40.3356 40.3269 39.4342 ZM40.1466 38.713 L40.1466 37.2707 L39.7861 37.0904 Q38.8846 37.0904 38.2536 37.451 Q37.6226 37.8116 37.6226 38.3525 Q37.6226 38.8933 37.9832 39.1638 Q38.3438 39.4342 38.7043 39.4342 Q39.4255 39.4342 40.1466 38.713 ZM44.7043 40.3356 Q43.9832 40.3356 42.9014 39.9751 L42.9014 38.8933 Q43.9832 39.4342 44.7043 39.4342 Q45.2452 39.4342 45.6058 39.1638 Q45.9663 38.8933 45.9663 38.5328 Q45.9663 37.9919 45.0649 37.6313 L44.3438 37.2707 Q42.9014 36.7299 42.9014 35.6481 Q42.9014 34.7467 43.4423 34.296 Q43.9832 33.8453 45.0649 33.8453 Q45.6058 33.8453 46.3269 34.0255 L46.5072 34.0255 L46.5072 34.927 Q45.6058 34.7467 45.0649 34.7467 Q43.9832 34.7467 43.9832 35.4678 Q43.9832 36.0087 44.8846 36.3693 L45.4255 36.5496 Q46.3269 36.9102 46.6875 37.3609 Q47.0481 37.8116 47.0481 38.5328 Q47.0481 39.2539 46.4171 39.7948 Q45.7861 40.3356 44.7043 40.3356 ZM49.4423 42.3188 L50.524 40.1553 L48.1803 34.0255 L49.262 34.0255 L51.0649 38.713 L52.8678 34.0255 L53.9495 34.0255 L50.7043 42.3188 ZM55.0817 40.1553 L55.0817 34.0255 L56.1635 34.0255 L56.1635 35.1073 Q57.0649 33.8453 58.3269 33.8453 Q59.2284 33.8453 59.6791 34.3861 Q60.1298 34.927 60.1298 35.8284 L60.1298 40.1553 L59.0481 40.1553 L59.0481 36.189 Q59.0481 35.4678 58.8678 35.1974 Q58.6875 34.927 58.1466 34.927 Q57.0649 34.927 56.1635 36.189 L56.1635 40.1553 ZM64.4255 40.3356 Q63.3438 40.3356 62.4423 39.4342 Q61.5409 38.5328 61.5409 37.0904 Q61.5409 35.6481 62.3522 34.7467 Q63.1635 33.8453 64.6058 33.8453 Q65.3269 33.8453 66.2284 34.0255 L66.2284 35.1073 Q65.3269 34.7467 64.7861 34.7467 Q63.8846 34.7467 63.3438 35.3777 Q62.8029 36.0087 62.8029 37.0904 Q62.8029 38.1722 63.3438 38.8032 Q63.8846 39.4342 64.7861 39.4342 Q65.5072 39.4342 66.4087 39.0736 L66.4087 39.9751 Q65.3269 40.3356 64.4255 40.3356 ZM68.0817 40.1553 L68.0817 31.3212 L69.1635 31.3212 L69.1635 35.1073 Q70.0649 33.8453 71.3269 33.8453 Q72.2284 33.8453 72.6791 34.3861 Q73.1298 34.927 73.1298 35.8284 L73.1298 40.1553 L72.0481 40.1553 L72.0481 36.189 Q72.0481 35.4678 71.8678 35.1974 Q71.6875 34.927 71.1466 34.927 Q70.0649 34.927 69.1635 36.189 L69.1635 40.1553 ZM75.0817 40.1553 L75.0817 34.0255 L76.1635 34.0255 L76.1635 35.1073 Q76.8846 33.8453 78.1466 33.8453 Q78.3269 33.8453 78.5072 33.8453 L78.5072 34.927 Q78.1466 34.927 77.9663 34.927 Q76.8846 34.927 76.1635 36.189 L76.1635 40.1553 ZM82.4255 40.3356 Q81.1635 40.3356 80.3522 39.4342 Q79.5409 38.5328 79.5409 37.0904 Q79.5409 35.6481 80.3522 34.7467 Q81.1635 33.8453 82.6058 33.8453 Q83.8678 33.8453 84.6791 34.7467 Q85.4904 35.6481 85.4904 37.0904 Q85.4904 38.5328 84.6791 39.4342 Q83.8678 40.3356 82.4255 40.3356 ZM82.6058 39.4342 Q84.2284 39.4342 84.2284 37.0904 Q84.2284 34.7467 82.6058 34.7467 Q80.8029 34.7467 80.8029 37.0904 Q80.8029 39.4342 82.6058 39.4342 ZM87.0817 40.1553 L87.0817 34.0255 L88.1635 34.0255 L88.1635 35.1073 Q89.0649 33.8453 90.3269 33.8453 Q91.2284 33.8453 91.6791 34.3861 Q92.1298 34.927 92.1298 35.8284 L92.1298 40.1553 L91.0481 40.1553 L91.0481 36.189 Q91.0481 35.4678 90.8678 35.1974 Q90.6875 34.927 90.1466 34.927 Q89.0649 34.927 88.1635 36.189 L88.1635 40.1553 ZM96.4255 40.3356 Q95.1635 40.3356 94.3522 39.4342 Q93.5409 38.5328 93.5409 37.0904 Q93.5409 35.6481 94.3522 34.7467 Q95.1635 33.8453 96.6058 33.8453 Q97.8678 33.8453 98.6791 34.7467 Q99.4904 35.6481 99.4904 37.0904 Q99.4904 38.5328 98.6791 39.4342 Q97.8678 40.3356 96.4255 40.3356 ZM96.6058 39.4342 Q98.2284 39.4342 98.2284 37.0904 Q98.2284 34.7467 96.6058 34.7467 Q94.8029 34.7467 94.8029 37.0904 Q94.8029 39.4342 96.6058 39.4342 ZM104.8678 40.1553 L104.8678 39.0736 Q103.9663 40.3356 102.7043 40.3356 Q101.9832 40.3356 101.5325 39.7948 Q101.0817 39.2539 101.0817 38.3525 L101.0817 34.0255 L102.1635 34.0255 L102.1635 37.9919 Q102.1635 38.713 102.3438 38.9835 Q102.524 39.2539 103.0649 39.2539 Q103.9663 39.2539 104.8678 37.9919 L104.8678 34.0255 L106.1298 34.0255 L106.1298 40.1553 ZM109.7043 40.3356 Q108.9832 40.3356 107.9014 39.9751 L107.9014 38.8933 Q108.9832 39.4342 109.7043 39.4342 Q110.2452 39.4342 110.6058 39.1638 Q110.9663 38.8933 110.9663 38.5328 Q110.9663 37.9919 110.0649 37.6313 L109.3438 37.2707 Q107.9014 36.7299 107.9014 35.6481 Q107.9014 34.7467 108.4423 34.296 Q108.9832 33.8453 110.0649 33.8453 Q110.6058 33.8453 111.3269 34.0255 L111.5072 34.0255 L111.5072 34.927 Q110.6058 34.7467 110.0649 34.7467 Q108.9832 34.7467 108.9832 35.4678 Q108.9832 36.0087 109.8846 36.3693 L110.4255 36.5496 Q111.3269 36.9102 111.6875 37.3609 Q112.0481 37.8116 112.0481 38.5328 Q112.0481 39.2539 111.4171 39.7948 Q110.7861 40.3356 109.7043 40.3356 ZM114.0817 40.1553 L114.0817 31.3212 L115.1635 31.3212 L115.1635 40.1553 ZM117.4423 42.3188 L118.524 40.1553 L116.1803 34.0255 L117.262 34.0255 L119.0649 38.713 L120.8678 34.0255 L121.9495 34.0255 L118.7043 42.3188 Z" style="clip-path:url(#clipPath9); stroke:none;" />
    </g>
    <g transform="translate(2,132)" style="font-size:11; stroke-linecap:butt; text-rendering:geometricPrecision; font-family:sans-serif; stroke-linejoin:round; font-weight:bold; stroke-miterlimit:0;">
      <rect x="0" y="0" width="320" style="clip-path:url(#clipPath10); fill:none;" height="90" />
    </g>
    <g transform="translate(2,132)" style="font-size:11; fill:white; text-rendering:geometricPrecision; font-family:sans-serif; stroke:white; font-weight:bold;">
      <path d="M34 0 L34 8 L28 16 L0 16 L0 0 Z" style="clip-path:url(#clipPath10); stroke:none;" />
    </g>
    <g transform="translate(2,132)" style="font-size:11; stroke-linecap:butt; text-rendering:geometricPrecision; font-family:sans-serif; stroke-linejoin:round; font-weight:bold; stroke-miterlimit:0;">
      <path d="M34 0 L34 8 L28 16 L0 16 L0 0 Z" style="fill:none; clip-path:url(#clipPath10);" />
    </g>
    <g transform="translate(2,132)" style="text-rendering:geometricPrecision; font-size:11; font-weight:bold; font-family:sans-serif;">
      <text x="5" y="11" style="clip-path:url(#clipPath11); stroke:none;" xml:space="preserve">loop</text>
    </g>
    <g transform="translate(53,82)" style="font-size:11; fill:rgb(122,207,245); text-rendering:geometricPrecision; font-family:sans-serif; stroke:rgb(122,207,245);">
      <rect x="0" y="0" width="8" style="clip-path:url(#clipPath12); stroke:none;" height="150" />
    </g>
    <g transform="translate(53,82)" style="font-size:11; stroke-linecap:butt; text-rendering:geometricPrecision; font-family:sans-serif; stroke-linejoin:round; stroke-miterlimit:0;">
      <rect x="0" y="0" width="8" style="clip-path:url(#clipPath12); fill:none;" height="150" />
    </g>
    <g transform="translate(188,82)" style="font-size:11; fill:rgb(122,207,245); text-rendering:geometricPrecision; font-family:sans-serif; stroke:rgb(122,207,245);">
      <rect x="0" y="0" width="8" style="clip-path:url(#clipPath5); stroke:none;" height="40" />
    </g>
    <g transform="translate(188,82)" style="font-size:11; stroke-linecap:butt; text-rendering:geometricPrecision; font-family:sans-serif; stroke-linejoin:round; stroke-miterlimit:0;">
      <rect x="0" y="0" width="8" style="clip-path:url(#clipPath5); fill:none;" height="40" />
    </g>
    <g transform="translate(2,149)" style="font-size:11; fill:white; text-rendering:geometricPrecision; font-family:sans-serif; stroke:white;">
      <rect x="28" y="5" width="139" style="clip-path:url(#clipPath13); stroke:none;" height="14" />
    </g>
    <g style="text-rendering:geometricPrecision; font-size:11; font-family:sans-serif;" transform="translate(30,154)">
      <text x="8" y="11" style="clip-path:url(#clipPath14); stroke:none;" xml:space="preserve">[processingNIOEvents]</text>
    </g>
    <g transform="translate(502,82)" style="font-size:11; fill:rgb(122,207,245); text-rendering:geometricPrecision; font-family:sans-serif; stroke:rgb(122,207,245);">
      <polygon style="clip-path:url(#clipPath16); stroke:none;" points=" 0 0 144 0 159 15 144 15 144 0 159 15 159 39 0 39" />
    </g>
    <g transform="translate(502,82)" style="font-size:11; stroke-linecap:butt; text-rendering:geometricPrecision; font-family:sans-serif; stroke-linejoin:round; stroke-miterlimit:0;">
      <polygon style="fill:none; clip-path:url(#clipPath16);" points=" 0 0 144 0 159 15 144 15 144 0 159 15 159 39 0 39" />
    </g>
    <g style="text-rendering:geometricPrecision; font-size:13; font-family:&apos;Lucida Grande&apos;;" transform="translate(502,82)">
      <path d="M4.0817 14.1553 L4.0817 5.8621 L5.1635 5.8621 L9.4904 12.1722 L9.4904 5.8621 L10.3918 5.8621 L10.3918 14.1553 L9.3101 14.1553 L5.1635 7.665 L5.1635 14.1553 ZM15.4255 14.3356 Q14.1635 14.3356 13.3522 13.4342 Q12.5409 12.5328 12.5409 11.0904 Q12.5409 9.6481 13.3522 8.7467 Q14.1635 7.8453 15.6058 7.8453 Q16.8678 7.8453 17.6791 8.7467 Q18.4904 9.6481 18.4904 11.0904 Q18.4904 12.5328 17.6791 13.4342 Q16.8678 14.3356 15.4255 14.3356 ZM15.6058 13.4342 Q17.2284 13.4342 17.2284 11.0904 Q17.2284 8.7467 15.6058 8.7467 Q13.8029 8.7467 13.8029 11.0904 Q13.8029 13.4342 15.6058 13.4342 ZM21.8846 14.3356 Q21.1635 14.3356 20.6226 13.7948 Q20.0817 13.2539 20.0817 12.5328 L20.0817 8.927 L19.3606 8.927 L19.3606 8.0255 L20.0817 8.0255 L20.0817 6.9438 L21.3438 6.7635 L21.3438 8.0255 L22.7861 8.0255 L22.7861 8.927 L21.3438 8.927 L21.3438 12.1722 Q21.3438 13.4342 22.2452 13.4342 Q22.6058 13.4342 22.7861 13.4342 L22.7861 14.1553 Q22.2452 14.3356 21.8846 14.3356 ZM24.0817 14.1553 L24.0817 8.0255 L25.1635 8.0255 L25.1635 14.1553 ZM24.0817 6.9438 L24.0817 5.8621 L25.1635 5.8621 L25.1635 6.9438 ZM28.524 8.927 L28.524 14.1553 L27.262 14.1553 L27.262 8.927 L26.5409 8.927 L26.5409 8.0255 L27.262 8.0255 L27.262 7.3044 Q27.262 5.1409 29.2452 5.1409 Q29.7861 5.1409 30.5072 5.3212 L30.5072 6.2227 Q29.7861 5.8621 29.4255 5.8621 Q28.8846 5.8621 28.7043 6.1325 Q28.524 6.4029 28.524 7.1241 L28.524 8.0255 L29.9663 8.0255 L29.9663 8.927 ZM31.4423 16.3188 L32.524 14.1553 L30.1803 8.0255 L31.262 8.0255 L33.0649 12.713 L34.8678 8.0255 L35.9495 8.0255 L32.7043 16.3188 ZM41.0817 14.1553 L41.0817 5.8621 L43.4255 5.8621 Q44.8678 5.8621 45.4988 6.3128 Q46.1298 6.7635 46.1298 8.0255 Q46.1298 9.2876 45.2284 10.0989 Q44.3269 10.9102 42.7043 10.9102 L42.1635 10.9102 L42.1635 14.1553 ZM42.1635 10.0087 L42.7043 10.0087 Q43.7861 10.0087 44.3269 9.4678 Q44.8678 8.927 44.8678 8.0255 Q44.8678 7.3044 44.4171 7.034 Q43.9663 6.7635 43.0649 6.7635 L42.1635 6.7635 ZM47.0817 14.1553 L47.0817 8.0255 L48.1635 8.0255 L48.1635 9.1073 Q48.8846 7.8453 50.1466 7.8453 Q50.3269 7.8453 50.5072 7.8453 L50.5072 8.927 Q50.1466 8.927 49.9663 8.927 Q48.8846 8.927 48.1635 10.189 L48.1635 14.1553 ZM54.4255 14.3356 Q53.1635 14.3356 52.3522 13.4342 Q51.5409 12.5328 51.5409 11.0904 Q51.5409 9.6481 52.3522 8.7467 Q53.1635 7.8453 54.6058 7.8453 Q55.8678 7.8453 56.6791 8.7467 Q57.4904 9.6481 57.4904 11.0904 Q57.4904 12.5328 56.6791 13.4342 Q55.8678 14.3356 54.4255 14.3356 ZM54.6058 13.4342 Q56.2284 13.4342 56.2284 11.0904 Q56.2284 8.7467 54.6058 8.7467 Q52.8029 8.7467 52.8029 11.0904 Q52.8029 13.4342 54.6058 13.4342 ZM61.4255 14.3356 Q60.3438 14.3356 59.4423 13.4342 Q58.5409 12.5328 58.5409 11.0904 Q58.5409 9.6481 59.3522 8.7467 Q60.1635 7.8453 61.6058 7.8453 Q62.3269 7.8453 63.2284 8.0255 L63.2284 9.1073 Q62.3269 8.7467 61.7861 8.7467 Q60.8846 8.7467 60.3438 9.3777 Q59.8029 10.0087 59.8029 11.0904 Q59.8029 12.1722 60.3438 12.8032 Q60.8846 13.4342 61.7861 13.4342 Q62.5072 13.4342 63.4087 13.0736 L63.4087 13.9751 Q62.3269 14.3356 61.4255 14.3356 ZM69.5889 13.9751 Q68.5072 14.3356 67.6058 14.3356 Q66.3438 14.3356 65.4423 13.4342 Q64.5409 12.5328 64.5409 11.0904 Q64.5409 9.6481 65.3522 8.7467 Q66.1635 7.8453 67.2452 7.8453 Q68.3269 7.8453 68.9579 8.6566 Q69.5889 9.4678 69.5889 10.9102 L69.5889 11.2707 L65.8029 11.2707 Q65.9832 13.4342 67.9663 13.4342 Q68.5072 13.4342 69.5889 13.0736 ZM65.8029 10.3693 L68.5072 10.3693 Q68.5072 8.7467 67.2452 8.7467 Q65.9832 8.7467 65.8029 10.3693 ZM72.7043 14.3356 Q71.9832 14.3356 70.9014 13.9751 L70.9014 12.8933 Q71.9832 13.4342 72.7043 13.4342 Q73.2452 13.4342 73.6058 13.1638 Q73.9663 12.8933 73.9663 12.5328 Q73.9663 11.9919 73.0649 11.6313 L72.3438 11.2707 Q70.9014 10.7299 70.9014 9.6481 Q70.9014 8.7467 71.4423 8.296 Q71.9832 7.8453 73.0649 7.8453 Q73.6058 7.8453 74.3269 8.0255 L74.5072 8.0255 L74.5072 8.927 Q73.6058 8.7467 73.0649 8.7467 Q71.9832 8.7467 71.9832 9.4678 Q71.9832 10.0087 72.8846 10.3693 L73.4255 10.5496 Q74.3269 10.9102 74.6875 11.3609 Q75.0481 11.8116 75.0481 12.5328 Q75.0481 13.2539 74.4171 13.7948 Q73.7861 14.3356 72.7043 14.3356 ZM78.7043 14.3356 Q77.9832 14.3356 76.9014 13.9751 L76.9014 12.8933 Q77.9832 13.4342 78.7043 13.4342 Q79.2452 13.4342 79.6058 13.1638 Q79.9663 12.8933 79.9663 12.5328 Q79.9663 11.9919 79.0649 11.6313 L78.3438 11.2707 Q76.9014 10.7299 76.9014 9.6481 Q76.9014 8.7467 77.4423 8.296 Q77.9832 7.8453 79.0649 7.8453 Q79.6058 7.8453 80.3269 8.0255 L80.5072 8.0255 L80.5072 8.927 Q79.6058 8.7467 79.0649 8.7467 Q77.9832 8.7467 77.9832 9.4678 Q77.9832 10.0087 78.8846 10.3693 L79.4255 10.5496 Q80.3269 10.9102 80.6875 11.3609 Q81.0481 11.8116 81.0481 12.5328 Q81.0481 13.2539 80.4171 13.7948 Q79.7861 14.3356 78.7043 14.3356 ZM85.4255 14.3356 Q84.1635 14.3356 83.3522 13.4342 Q82.5409 12.5328 82.5409 11.0904 Q82.5409 9.6481 83.3522 8.7467 Q84.1635 7.8453 85.6058 7.8453 Q86.8678 7.8453 87.6791 8.7467 Q88.4904 9.6481 88.4904 11.0904 Q88.4904 12.5328 87.6791 13.4342 Q86.8678 14.3356 85.4255 14.3356 ZM85.6058 13.4342 Q87.2284 13.4342 87.2284 11.0904 Q87.2284 8.7467 85.6058 8.7467 Q83.8029 8.7467 83.8029 11.0904 Q83.8029 13.4342 85.6058 13.4342 ZM90.0817 14.1553 L90.0817 8.0255 L91.1635 8.0255 L91.1635 9.1073 Q91.8846 7.8453 93.1466 7.8453 Q93.3269 7.8453 93.5072 7.8453 L93.5072 8.927 Q93.1466 8.927 92.9663 8.927 Q91.8846 8.927 91.1635 10.189 L91.1635 14.1553 ZM102.3269 13.4342 Q101.2452 14.3356 100.3438 14.3356 Q99.6226 14.3356 99.0817 13.7948 Q98.5409 13.2539 98.5409 12.5328 Q98.5409 11.6313 99.4423 11.0904 Q100.3438 10.5496 101.7861 10.5496 L102.1466 10.5496 L102.1466 9.8284 Q102.1466 8.7467 101.0649 8.7467 Q100.1635 8.7467 99.0817 9.2876 L99.0817 8.3861 Q100.1635 7.8453 101.2452 7.8453 Q102.3269 7.8453 102.7776 8.296 Q103.2284 8.7467 103.2284 9.8284 L103.2284 12.5328 Q103.2284 13.4342 103.7692 13.4342 Q103.9495 13.4342 103.9495 13.4342 L104.1298 14.1553 Q103.7692 14.3356 103.2284 14.3356 Q102.5072 14.3356 102.3269 13.4342 ZM102.1466 12.713 L102.1466 11.2707 L101.7861 11.0904 Q100.8846 11.0904 100.2536 11.451 Q99.6226 11.8116 99.6226 12.3525 Q99.6226 12.8933 99.9832 13.1638 Q100.3438 13.4342 100.7043 13.4342 Q101.4255 13.4342 102.1466 12.713 ZM105.0817 14.1553 L105.0817 5.3212 L106.1635 5.3212 L106.1635 9.1073 Q106.8846 7.8453 108.3269 7.8453 Q109.4087 7.8453 110.0397 8.6566 Q110.6707 9.4678 110.6707 10.9102 Q110.6707 12.3525 109.9495 13.3441 Q109.2284 14.3356 107.9663 14.3356 Q106.8846 14.3356 106.1635 13.4342 L106.1635 14.1553 ZM106.1635 12.713 Q107.0649 13.4342 107.7861 13.4342 Q109.4087 13.4342 109.4087 11.0904 Q109.4087 8.927 107.9663 8.927 Q107.0649 8.927 106.1635 9.8284 ZM114.4255 14.3356 Q113.1635 14.3356 112.3522 13.4342 Q111.5409 12.5328 111.5409 11.0904 Q111.5409 9.6481 112.3522 8.7467 Q113.1635 7.8453 114.6058 7.8453 Q115.8678 7.8453 116.6791 8.7467 Q117.4904 9.6481 117.4904 11.0904 Q117.4904 12.5328 116.6791 13.4342 Q115.8678 14.3356 114.4255 14.3356 ZM114.6058 13.4342 Q116.2284 13.4342 116.2284 11.0904 Q116.2284 8.7467 114.6058 8.7467 Q112.8029 8.7467 112.8029 11.0904 Q112.8029 13.4342 114.6058 13.4342 ZM122.8678 14.1553 L122.8678 13.0736 Q121.9663 14.3356 120.7043 14.3356 Q119.9832 14.3356 119.5325 13.7948 Q119.0817 13.2539 119.0817 12.3525 L119.0817 8.0255 L120.1635 8.0255 L120.1635 11.9919 Q120.1635 12.713 120.3438 12.9835 Q120.524 13.2539 121.0649 13.2539 Q121.9663 13.2539 122.8678 11.9919 L122.8678 8.0255 L124.1298 8.0255 L124.1298 14.1553 ZM127.8846 14.3356 Q127.1635 14.3356 126.6226 13.7948 Q126.0817 13.2539 126.0817 12.5328 L126.0817 8.927 L125.3606 8.927 L125.3606 8.0255 L126.0817 8.0255 L126.0817 6.9438 L127.3438 6.7635 L127.3438 8.0255 L128.7861 8.0255 L128.7861 8.927 L127.3438 8.927 L127.3438 12.1722 Q127.3438 13.4342 128.2452 13.4342 Q128.6058 13.4342 128.7861 13.4342 L128.7861 14.1553 Q128.2452 14.3356 127.8846 14.3356 ZM135.8846 14.3356 Q135.1635 14.3356 134.6226 13.7948 Q134.0817 13.2539 134.0817 12.5328 L134.0817 8.927 L133.3606 8.927 L133.3606 8.0255 L134.0817 8.0255 L134.0817 6.9438 L135.3438 6.7635 L135.3438 8.0255 L136.7861 8.0255 L136.7861 8.927 L135.3438 8.927 L135.3438 12.1722 Q135.3438 13.4342 136.2452 13.4342 Q136.6058 13.4342 136.7861 13.4342 L136.7861 14.1553 Q136.2452 14.3356 135.8846 14.3356 ZM138.0817 14.1553 L138.0817 5.3212 L139.1635 5.3212 L139.1635 9.1073 Q140.0649 7.8453 141.3269 7.8453 Q142.2284 7.8453 142.6791 8.3861 Q143.1298 8.927 143.1298 9.8284 L143.1298 14.1553 L142.0481 14.1553 L142.0481 10.189 Q142.0481 9.4678 141.8678 9.1974 Q141.6875 8.927 141.1466 8.927 Q140.0649 8.927 139.1635 10.189 L139.1635 14.1553 ZM149.5889 13.9751 Q148.5072 14.3356 147.6058 14.3356 Q146.3438 14.3356 145.4423 13.4342 Q144.5409 12.5328 144.5409 11.0904 Q144.5409 9.6481 145.3522 8.7467 Q146.1635 7.8453 147.2452 7.8453 Q148.3269 7.8453 148.9579 8.6566 Q149.5889 9.4678 149.5889 10.9102 L149.5889 11.2707 L145.8029 11.2707 Q145.9832 13.4342 147.9663 13.4342 Q148.5072 13.4342 149.5889 13.0736 ZM145.8029 10.3693 L148.5072 10.3693 Q148.5072 8.7467 147.2452 8.7467 Q145.9832 8.7467 145.8029 10.3693 Z" style="clip-path:url(#clipPath17); stroke:none;" />
      <path d="M6.4255 27.3356 Q5.3438 27.3356 4.4423 26.4342 Q3.5409 25.5328 3.5409 24.0904 Q3.5409 22.6481 4.3522 21.7467 Q5.1635 20.8453 6.6058 20.8453 Q7.3269 20.8453 8.2284 21.0255 L8.2284 22.1073 Q7.3269 21.7467 6.7861 21.7467 Q5.8846 21.7467 5.3438 22.3777 Q4.8029 23.0087 4.8029 24.0904 Q4.8029 25.1722 5.3438 25.8032 Q5.8846 26.4342 6.7861 26.4342 Q7.5072 26.4342 8.4087 26.0736 L8.4087 26.9751 Q7.3269 27.3356 6.4255 27.3356 ZM12.4255 27.3356 Q11.1635 27.3356 10.3522 26.4342 Q9.5409 25.5328 9.5409 24.0904 Q9.5409 22.6481 10.3522 21.7467 Q11.1635 20.8453 12.6058 20.8453 Q13.8678 20.8453 14.6791 21.7467 Q15.4904 22.6481 15.4904 24.0904 Q15.4904 25.5328 14.6791 26.4342 Q13.8678 27.3356 12.4255 27.3356 ZM12.6058 26.4342 Q14.2284 26.4342 14.2284 24.0904 Q14.2284 21.7467 12.6058 21.7467 Q10.8029 21.7467 10.8029 24.0904 Q10.8029 26.4342 12.6058 26.4342 ZM17.0817 27.1553 L17.0817 21.0255 L18.1635 21.0255 L18.1635 22.1073 Q19.0649 20.8453 20.3269 20.8453 Q21.2284 20.8453 21.6791 21.3861 Q22.1298 21.927 22.1298 22.8284 L22.1298 27.1553 L21.0481 27.1553 L21.0481 23.189 Q21.0481 22.4678 20.8678 22.1974 Q20.6875 21.927 20.1466 21.927 Q19.0649 21.927 18.1635 23.189 L18.1635 27.1553 ZM24.0817 27.1553 L24.0817 21.0255 L25.1635 21.0255 L25.1635 22.1073 Q26.0649 20.8453 27.3269 20.8453 Q28.2284 20.8453 28.6791 21.3861 Q29.1298 21.927 29.1298 22.8284 L29.1298 27.1553 L28.0481 27.1553 L28.0481 23.189 Q28.0481 22.4678 27.8678 22.1974 Q27.6875 21.927 27.1466 21.927 Q26.0649 21.927 25.1635 23.189 L25.1635 27.1553 ZM35.5889 26.9751 Q34.5072 27.3356 33.6058 27.3356 Q32.3438 27.3356 31.4423 26.4342 Q30.5409 25.5328 30.5409 24.0904 Q30.5409 22.6481 31.3522 21.7467 Q32.1635 20.8453 33.2452 20.8453 Q34.3269 20.8453 34.9579 21.6566 Q35.5889 22.4678 35.5889 23.9102 L35.5889 24.2707 L31.8029 24.2707 Q31.9832 26.4342 33.9663 26.4342 Q34.5072 26.4342 35.5889 26.0736 ZM31.8029 23.3693 L34.5072 23.3693 Q34.5072 21.7467 33.2452 21.7467 Q31.9832 21.7467 31.8029 23.3693 ZM39.4255 27.3356 Q38.3438 27.3356 37.4423 26.4342 Q36.5409 25.5328 36.5409 24.0904 Q36.5409 22.6481 37.3522 21.7467 Q38.1635 20.8453 39.6058 20.8453 Q40.3269 20.8453 41.2284 21.0255 L41.2284 22.1073 Q40.3269 21.7467 39.7861 21.7467 Q38.8846 21.7467 38.3438 22.3777 Q37.8029 23.0087 37.8029 24.0904 Q37.8029 25.1722 38.3438 25.8032 Q38.8846 26.4342 39.7861 26.4342 Q40.5072 26.4342 41.4087 26.0736 L41.4087 26.9751 Q40.3269 27.3356 39.4255 27.3356 ZM44.8846 27.3356 Q44.1635 27.3356 43.6226 26.7948 Q43.0817 26.2539 43.0817 25.5328 L43.0817 21.927 L42.3606 21.927 L42.3606 21.0255 L43.0817 21.0255 L43.0817 19.9438 L44.3438 19.7635 L44.3438 21.0255 L45.7861 21.0255 L45.7861 21.927 L44.3438 21.927 L44.3438 25.1722 Q44.3438 26.4342 45.2452 26.4342 Q45.6058 26.4342 45.7861 26.4342 L45.7861 27.1553 Q45.2452 27.3356 44.8846 27.3356 ZM51.5889 26.9751 Q50.5072 27.3356 49.6058 27.3356 Q48.3438 27.3356 47.4423 26.4342 Q46.5409 25.5328 46.5409 24.0904 Q46.5409 22.6481 47.3522 21.7467 Q48.1635 20.8453 49.2452 20.8453 Q50.3269 20.8453 50.9579 21.6566 Q51.5889 22.4678 51.5889 23.9102 L51.5889 24.2707 L47.8029 24.2707 Q47.9832 26.4342 49.9663 26.4342 Q50.5072 26.4342 51.5889 26.0736 ZM47.8029 23.3693 L50.5072 23.3693 Q50.5072 21.7467 49.2452 21.7467 Q47.9832 21.7467 47.8029 23.3693 ZM57.0481 27.1553 L57.0481 26.0736 Q56.3269 27.3356 55.0649 27.3356 Q53.9832 27.3356 53.262 26.5243 Q52.5409 25.713 52.5409 24.2707 Q52.5409 22.8284 53.262 21.8368 Q53.9832 20.8453 55.2452 20.8453 Q56.3269 20.8453 57.0481 21.7467 L57.0481 18.3212 L58.1298 18.3212 L58.1298 27.1553 ZM57.0481 22.4678 Q56.1466 21.7467 55.4255 21.7467 Q53.8029 21.7467 53.8029 24.0904 Q53.8029 26.2539 55.2452 26.2539 Q56.1466 26.2539 57.0481 25.3525 ZM67.6875 27.3356 Q65.7043 27.3356 64.6226 26.1638 Q63.5409 24.9919 63.5409 23.0087 Q63.5409 20.8453 64.6226 19.7635 Q65.7043 18.6818 67.6875 18.6818 Q68.7692 18.6818 70.3918 19.0424 L70.3918 20.1241 Q68.5889 19.4029 67.6875 19.4029 Q66.2452 19.4029 65.524 20.3945 Q64.8029 21.3861 64.8029 23.0087 Q64.8029 24.6313 65.6142 25.5328 Q66.4255 26.4342 67.8678 26.4342 Q68.9495 26.4342 70.3918 25.713 L70.3918 26.7948 Q69.1298 27.3356 67.6875 27.3356 ZM74.4255 27.3356 Q73.1635 27.3356 72.3522 26.4342 Q71.5409 25.5328 71.5409 24.0904 Q71.5409 22.6481 72.3522 21.7467 Q73.1635 20.8453 74.6058 20.8453 Q75.8678 20.8453 76.6791 21.7467 Q77.4904 22.6481 77.4904 24.0904 Q77.4904 25.5328 76.6791 26.4342 Q75.8678 27.3356 74.4255 27.3356 ZM74.6058 26.4342 Q76.2284 26.4342 76.2284 24.0904 Q76.2284 21.7467 74.6058 21.7467 Q72.8029 21.7467 72.8029 24.0904 Q72.8029 26.4342 74.6058 26.4342 ZM79.0817 27.1553 L79.0817 21.0255 L80.1635 21.0255 L80.1635 22.1073 Q81.0649 20.8453 82.3269 20.8453 Q83.2284 20.8453 83.6791 21.3861 Q84.1298 21.927 84.1298 22.8284 L84.1298 27.1553 L83.0481 27.1553 L83.0481 23.189 Q83.0481 22.4678 82.8678 22.1974 Q82.6875 21.927 82.1466 21.927 Q81.0649 21.927 80.1635 23.189 L80.1635 27.1553 ZM86.0817 27.1553 L86.0817 21.0255 L87.1635 21.0255 L87.1635 22.1073 Q88.0649 20.8453 89.3269 20.8453 Q90.2284 20.8453 90.6791 21.3861 Q91.1298 21.927 91.1298 22.8284 L91.1298 27.1553 L90.0481 27.1553 L90.0481 23.189 Q90.0481 22.4678 89.8678 22.1974 Q89.6875 21.927 89.1466 21.927 Q88.0649 21.927 87.1635 23.189 L87.1635 27.1553 ZM97.5889 26.9751 Q96.5072 27.3356 95.6058 27.3356 Q94.3438 27.3356 93.4423 26.4342 Q92.5409 25.5328 92.5409 24.0904 Q92.5409 22.6481 93.3522 21.7467 Q94.1635 20.8453 95.2452 20.8453 Q96.3269 20.8453 96.9579 21.6566 Q97.5889 22.4678 97.5889 23.9102 L97.5889 24.2707 L93.8029 24.2707 Q93.9832 26.4342 95.9663 26.4342 Q96.5072 26.4342 97.5889 26.0736 ZM93.8029 23.3693 L96.5072 23.3693 Q96.5072 21.7467 95.2452 21.7467 Q93.9832 21.7467 93.8029 23.3693 ZM101.4255 27.3356 Q100.3438 27.3356 99.4423 26.4342 Q98.5409 25.5328 98.5409 24.0904 Q98.5409 22.6481 99.3522 21.7467 Q100.1635 20.8453 101.6058 20.8453 Q102.3269 20.8453 103.2284 21.0255 L103.2284 22.1073 Q102.3269 21.7467 101.7861 21.7467 Q100.8846 21.7467 100.3438 22.3777 Q99.8029 23.0087 99.8029 24.0904 Q99.8029 25.1722 100.3438 25.8032 Q100.8846 26.4342 101.7861 26.4342 Q102.5072 26.4342 103.4087 26.0736 L103.4087 26.9751 Q102.3269 27.3356 101.4255 27.3356 ZM106.8846 27.3356 Q106.1635 27.3356 105.6226 26.7948 Q105.0817 26.2539 105.0817 25.5328 L105.0817 21.927 L104.3606 21.927 L104.3606 21.0255 L105.0817 21.0255 L105.0817 19.9438 L106.3438 19.7635 L106.3438 21.0255 L107.7861 21.0255 L107.7861 21.927 L106.3438 21.927 L106.3438 25.1722 Q106.3438 26.4342 107.2452 26.4342 Q107.6058 26.4342 107.7861 26.4342 L107.7861 27.1553 Q107.2452 27.3356 106.8846 27.3356 ZM109.0817 27.1553 L109.0817 21.0255 L110.1635 21.0255 L110.1635 27.1553 ZM109.0817 19.9438 L109.0817 18.8621 L110.1635 18.8621 L110.1635 19.9438 ZM114.4255 27.3356 Q113.1635 27.3356 112.3522 26.4342 Q111.5409 25.5328 111.5409 24.0904 Q111.5409 22.6481 112.3522 21.7467 Q113.1635 20.8453 114.6058 20.8453 Q115.8678 20.8453 116.6791 21.7467 Q117.4904 22.6481 117.4904 24.0904 Q117.4904 25.5328 116.6791 26.4342 Q115.8678 27.3356 114.4255 27.3356 ZM114.6058 26.4342 Q116.2284 26.4342 116.2284 24.0904 Q116.2284 21.7467 114.6058 21.7467 Q112.8029 21.7467 112.8029 24.0904 Q112.8029 26.4342 114.6058 26.4342 ZM119.0817 27.1553 L119.0817 21.0255 L120.1635 21.0255 L120.1635 22.1073 Q121.0649 20.8453 122.3269 20.8453 Q123.2284 20.8453 123.6791 21.3861 Q124.1298 21.927 124.1298 22.8284 L124.1298 27.1553 L123.0481 27.1553 L123.0481 23.189 Q123.0481 22.4678 122.8678 22.1974 Q122.6875 21.927 122.1466 21.927 Q121.0649 21.927 120.1635 23.189 L120.1635 27.1553 Z" style="clip-path:url(#clipPath17); stroke:none;" />
    </g>
    <g transform="translate(343,232)" style="font-size:11; fill:rgb(122,207,245); text-rendering:geometricPrecision; font-family:sans-serif; stroke:rgb(122,207,245);">
      <rect x="0" y="0" width="8" style="clip-path:url(#clipPath18); stroke:none;" height="50" />
    </g>
    <g transform="translate(343,232)" style="font-size:11; stroke-linecap:butt; text-rendering:geometricPrecision; font-family:sans-serif; stroke-linejoin:round; stroke-miterlimit:0;">
      <rect x="0" y="0" width="8" style="clip-path:url(#clipPath18); fill:none;" height="50" />
    </g>
    <g style="text-rendering:geometricPrecision; font-size:11; font-family:sans-serif;" transform="translate(552,2)">
      <text x="4" y="11" style="clip-path:url(#clipPath19); stroke:none;" xml:space="preserve">Custom code</text>
    </g>
    <g style="text-rendering:geometricPrecision; font-size:11; font-family:sans-serif;" transform="translate(442,2)">
      <text x="9" y="11" style="clip-path:url(#clipPath20); stroke:none;" xml:space="preserve">Processor</text>
    </g>
    <g style="text-rendering:geometricPrecision; font-size:11; font-family:sans-serif;" transform="translate(292,2)">
      <text x="6" y="11" style="clip-path:url(#clipPath21); stroke:none;" xml:space="preserve">ConnectorHandler</text>
    </g>
    <g style="text-rendering:geometricPrecision; font-size:11; font-family:sans-serif;" transform="translate(162,2)">
      <text x="8" y="11" style="clip-path:url(#clipPath22); stroke:none;" xml:space="preserve">Selector</text>
    </g>
    <g style="text-rendering:geometricPrecision; font-size:11; font-family:sans-serif;" transform="translate(2,2)">
      <text x="14" y="11" style="clip-path:url(#clipPath23); stroke:none;" xml:space="preserve">SelectorRunner</text>
      <text x="10" y="25" style="clip-path:url(#clipPath23); stroke:none;" xml:space="preserve">(selector thread)</text>
    </g>
    <g transform="translate(11,142)" style="font-size:11; stroke-linecap:butt; text-rendering:geometricPrecision; font-family:sans-serif; stroke-linejoin:round;">
      <line x1="50" x2="332" y1="50" style="clip-path:url(#clipPath24); fill:none;" y2="50" />
      <polygon style="clip-path:url(#clipPath24); stroke:none;" points=" 332 50 320 44 320 56" />
      <polygon style="fill:none; clip-path:url(#clipPath24);" points=" 332 50 320 44 320 56" />
    </g>
    <g transform="translate(301,152)" style="font-size:11; stroke-linecap:butt; text-rendering:geometricPrecision; font-family:sans-serif; stroke-linejoin:round;">
      <line x1="50" x2="172" y1="50" style="clip-path:url(#clipPath25); fill:none;" y2="50" />
      <line x1="172" x2="160" y1="50" style="clip-path:url(#clipPath25); fill:none;" y2="44" />
      <line x1="172" x2="160" y1="50" style="clip-path:url(#clipPath25); fill:none;" y2="56" />
    </g>
    <g transform="translate(301,182)" style="font-size:11; stroke-linecap:butt; text-rendering:geometricPrecision; font-family:sans-serif; stroke-linejoin:round;">
      <line x1="172" x2="50" y1="50" style="clip-path:url(#clipPath25); fill:none;" y2="50" />
      <polygon style="clip-path:url(#clipPath25); stroke:none;" points=" 50 50 62 56 62 44" />
      <polygon style="fill:none; clip-path:url(#clipPath25);" points=" 50 50 62 56 62 44" />
    </g>
    <g transform="translate(301,222)" style="font-size:11; stroke-linecap:butt; text-rendering:geometricPrecision; font-family:sans-serif; stroke-linejoin:round;">
      <line x1="50" x2="287" y1="50" style="clip-path:url(#clipPath26); fill:none;" y2="50" />
      <polygon style="clip-path:url(#clipPath26); stroke:none;" points=" 287 50 275 44 275 56" />
      <polygon style="fill:none; clip-path:url(#clipPath26);" points=" 287 50 275 44 275 56" />
    </g>
    <g transform="translate(362,72)" style="font-size:11; stroke-linecap:butt; text-rendering:geometricPrecision; font-family:sans-serif; stroke-linejoin:round; stroke-dasharray:4;">
      <line x1="50" x2="140" y1="130" style="clip-path:url(#clipPath27); fill:none;" y2="50" />
    </g>
    <g transform="translate(431,152)" style="font-size:11; stroke-linecap:butt; text-rendering:geometricPrecision; font-family:sans-serif; stroke-linejoin:round; stroke-dasharray:4;">
      <line x1="71" x2="50" y1="50" style="clip-path:url(#clipPath28); fill:none;" y2="71" />
    </g>
    <g transform="translate(11,32)" style="font-size:11; stroke-linecap:butt; text-rendering:geometricPrecision; font-family:sans-serif; stroke-linejoin:round;">
      <line x1="50" x2="177" y1="50" style="clip-path:url(#clipPath29); fill:none;" y2="50" />
      <polygon style="clip-path:url(#clipPath29); stroke:none;" points=" 177 50 165 44 165 56" />
      <polygon style="fill:none; clip-path:url(#clipPath29);" points=" 177 50 165 44 165 56" />
    </g>
    <g transform="translate(11,62)" style="font-size:11; stroke-linecap:butt; text-rendering:geometricPrecision; font-family:sans-serif; stroke-linejoin:round; stroke-dasharray:8,3; stroke-miterlimit:0;">
      <line x1="177" x2="50" y1="50" style="clip-path:url(#clipPath29); fill:none;" y2="50" />
      <line x1="50" x2="62" y1="50" style="clip-path:url(#clipPath29); fill:none; stroke-dasharray:none; stroke-miterlimit:10;" y2="56" />
      <line x1="50" x2="62" y1="50" style="clip-path:url(#clipPath29); fill:none; stroke-dasharray:none; stroke-miterlimit:10;" y2="44" />
    </g>
    <g style="text-rendering:geometricPrecision; font-size:11; font-family:sans-serif;" transform="translate(62,92)">
      <text x="10" y="11" style="clip-path:url(#clipPath30); stroke:none;" xml:space="preserve">2: ready NIO events</text>
    </g>
    <g style="text-rendering:geometricPrecision; font-size:11; font-family:sans-serif;" transform="translate(88,63)">
      <text x="10" y="11" style="clip-path:url(#clipPath31); stroke:none;" xml:space="preserve">1: select()</text>
    </g>
    <g style="text-rendering:geometricPrecision; font-size:11; font-family:sans-serif;" transform="translate(372,252)">
      <text x="9" y="11" style="clip-path:url(#clipPath32); stroke:none;" xml:space="preserve">3.1.1.1: notifyFuture(Connection)</text>
    </g>
    <g style="text-rendering:geometricPrecision; font-size:11; font-family:sans-serif;" transform="translate(362,212)">
      <text x="11" y="11" style="clip-path:url(#clipPath33); stroke:none;" xml:space="preserve">3.1.1: complete</text>
    </g>
    <g style="text-rendering:geometricPrecision; font-size:11; font-family:sans-serif;" transform="translate(362,182)">
      <text x="10" y="11" style="clip-path:url(#clipPath34); stroke:none;" xml:space="preserve">3.1: onConnect</text>
    </g>
    <g style="text-rendering:geometricPrecision; font-size:11; font-family:sans-serif;" transform="translate(167,172)">
      <text x="10" y="11" style="clip-path:url(#clipPath35); stroke:none;" xml:space="preserve">3: notifyConnected</text>
    </g>
  </g>
</svg>
