<?xml version="1.0" encoding="UTF-8"?>

<!DOCTYPE svg PUBLIC '-//W3C//DTD SVG 1.0//EN' 'http://www.w3.org/TR/2001/REC-SVG-20010904/DTD/svg10.dtd'>
<svg style="fill-opacity:1; color-rendering:auto; color-interpolation:auto; stroke:black; text-rendering:auto; stroke-linecap:square; stroke-miterlimit:10; stroke-opacity:1; shape-rendering:auto; fill:black; stroke-dasharray:none; font-weight:normal; stroke-width:1; font-family:&apos;Dialog&apos;; font-style:normal; stroke-linejoin:miter; font-size:12; stroke-dashoffset:0; image-rendering:auto;" xmlns="http://www.w3.org/2000/svg" width="356" xmlns:xlink="http://www.w3.org/1999/xlink" height="66">
  <defs id="genericDefs" />
  <g>
    <defs id="defs1">
      <clipPath clipPathUnits="userSpaceOnUse" id="clipPath1">
        <path d="M-3 -3 L117 -3 L117 67 L-3 67 L-3 -3 Z" />
      </clipPath>
      <clipPath clipPathUnits="userSpaceOnUse" id="clipPath2">
        <path d="M0 0 L0 60 L110 60 L110 0 Z" />
      </clipPath>
      <clipPath clipPathUnits="userSpaceOnUse" id="clipPath3">
        <path d="M-3 -3 L77 -3 L77 47 L-3 47 L-3 -3 Z" />
      </clipPath>
      <clipPath clipPathUnits="userSpaceOnUse" id="clipPath4">
        <path d="M0 0 L0 40 L70 40 L70 0 Z" />
      </clipPath>
      <clipPath clipPathUnits="userSpaceOnUse" id="clipPath5">
        <path d="M-3 -3 L87 -3 L87 47 L-3 47 L-3 -3 Z" />
      </clipPath>
      <clipPath clipPathUnits="userSpaceOnUse" id="clipPath6">
        <path d="M0 0 L0 40 L80 40 L80 0 Z" />
      </clipPath>
    </defs>
    <g style="fill:white; text-rendering:geometricPrecision; stroke:white;">
      <rect x="0" y="0" width="356" style="stroke:none;" height="66" />
    </g>
    <g transform="translate(2,2)" style="font-size:11; fill:rgb(243,231,248); text-rendering:geometricPrecision; font-family:sans-serif; stroke:rgb(243,231,248);">
      <path d="M0 0 L20 30 L0 59 L90 59 L109 30 L90 0 Z" style="clip-path:url(#clipPath2); stroke:none;" />
    </g>
    <g transform="translate(2,2)" style="stroke-linecap:butt; font-size:11; fill:rgb(204,147,225); text-rendering:geometricPrecision; font-family:sans-serif; stroke-linejoin:bevel; stroke:rgb(204,147,225); stroke-miterlimit:0;">
      <path d="M0 0 L20 30 L0 59 L90 59 L109 30 L90 0 Z" style="fill:none; clip-path:url(#clipPath2);" />
    </g>
    <g style="text-rendering:geometricPrecision; font-size:13; font-family:&apos;Lucida Grande&apos;;" transform="translate(22,12)">
      <path d="M8.0649 14.1553 L8.0649 6.9438 L5.1803 6.9438 L5.1803 5.8621 L12.7524 5.8621 L12.7524 6.9438 L9.8678 6.9438 L9.8678 14.1553 ZM14.0817 14.1553 L14.0817 8.0255 L15.7043 8.0255 L15.7043 9.1073 Q16.4255 7.8453 17.6875 7.8453 Q17.8678 7.8453 18.0481 7.8453 L18.0481 9.2876 Q17.6875 9.2876 17.3269 9.2876 Q16.4255 9.2876 15.7043 10.189 L15.7043 14.1553 ZM22.1466 13.4342 Q21.2452 14.3356 20.3438 14.3356 Q19.4423 14.3356 18.9916 13.7948 Q18.5409 13.2539 18.5409 12.5328 Q18.5409 11.451 19.3522 10.9102 Q20.1635 10.3693 21.6058 10.3693 L22.1466 10.3693 L22.1466 9.8284 Q22.1466 8.927 21.0649 8.927 Q19.9832 8.927 19.0817 9.4678 L19.0817 8.2058 Q20.1635 7.8453 21.2452 7.8453 Q23.5889 7.8453 23.5889 9.8284 L23.5889 12.5328 Q23.5889 13.2539 24.1298 13.2539 Q24.3101 13.2539 24.3101 13.2539 L24.4904 14.1553 Q23.9495 14.3356 23.4087 14.3356 Q22.5072 14.3356 22.1466 13.4342 ZM22.1466 12.5328 L22.1466 11.2707 L21.6058 11.2707 Q19.9832 11.2707 19.9832 12.3525 Q19.9832 12.713 20.2536 12.8933 Q20.524 13.0736 20.8846 13.0736 Q21.4255 13.0736 22.1466 12.5328 ZM26.0817 14.1553 L26.0817 8.0255 L27.7043 8.0255 L27.7043 9.1073 Q28.6058 7.8453 29.8678 7.8453 Q30.5889 7.8453 31.1298 8.3861 Q31.6707 8.927 31.6707 9.8284 L31.6707 14.1553 L29.8678 14.1553 L29.8678 10.189 Q29.8678 9.1073 29.3269 9.1073 Q28.4255 9.1073 27.7043 10.189 L27.7043 14.1553 ZM33.9014 13.9751 L33.9014 12.713 Q35.1635 13.2539 36.0649 13.2539 Q36.9663 13.2539 36.9663 12.5328 Q36.9663 12.1722 36.2452 11.8116 L35.7043 11.451 Q34.6226 11.0904 34.262 10.7299 Q33.9014 10.3693 33.9014 9.6481 Q33.9014 8.7467 34.5325 8.296 Q35.1635 7.8453 36.4255 7.8453 Q37.1466 7.8453 38.2284 8.0255 L38.2284 9.2876 Q37.3269 8.927 36.6058 8.927 Q35.524 8.927 35.524 9.4678 Q35.524 10.0087 36.2452 10.189 L36.7861 10.3693 Q37.8678 10.9102 38.3185 11.2707 Q38.7692 11.6313 38.7692 12.3525 Q38.7692 13.2539 38.0481 13.7948 Q37.3269 14.3356 36.0649 14.3356 Q34.9832 14.3356 33.9014 13.9751 ZM41.0817 16.3188 L41.0817 8.0255 L42.7043 8.0255 L42.7043 9.1073 Q43.4255 7.8453 44.6875 7.8453 Q45.7692 7.8453 46.4904 8.6566 Q47.2115 9.4678 47.2115 10.9102 Q47.2115 12.5328 46.4904 13.4342 Q45.7692 14.3356 44.5072 14.3356 Q43.4255 14.3356 42.7043 13.6145 L42.7043 16.3188 ZM42.7043 12.5328 Q43.2452 13.2539 43.9663 13.2539 Q44.6875 13.2539 45.0481 12.6229 Q45.4087 11.9919 45.4087 11.0904 Q45.4087 9.1073 44.1466 9.1073 Q43.4255 9.1073 42.7043 10.0087 ZM51.6058 14.3356 Q50.1635 14.3356 49.3522 13.4342 Q48.5409 12.5328 48.5409 11.0904 Q48.5409 9.6481 49.3522 8.7467 Q50.1635 7.8453 51.6058 7.8453 Q53.2284 7.8453 54.0397 8.7467 Q54.851 9.6481 54.851 11.0904 Q54.851 12.5328 54.0397 13.4342 Q53.2284 14.3356 51.6058 14.3356 ZM51.6058 13.2539 Q53.0481 13.2539 53.0481 11.0904 Q53.0481 10.0087 52.6875 9.4678 Q52.3269 8.927 51.6058 8.927 Q51.0649 8.927 50.7043 9.4678 Q50.3438 10.0087 50.3438 11.0904 Q50.3438 11.9919 50.7043 12.6229 Q51.0649 13.2539 51.6058 13.2539 ZM56.0817 14.1553 L56.0817 8.0255 L57.7043 8.0255 L57.7043 9.1073 Q58.4255 7.8453 59.6875 7.8453 Q59.8678 7.8453 60.0481 7.8453 L60.0481 9.2876 Q59.6875 9.2876 59.3269 9.2876 Q58.4255 9.2876 57.7043 10.189 L57.7043 14.1553 ZM64.1466 14.1553 Q63.6058 14.3356 63.2452 14.3356 Q61.0817 14.3356 61.0817 12.3525 L61.0817 8.927 L60.3606 8.927 L60.3606 8.0255 L61.0817 8.0255 L61.0817 6.9438 L62.7043 6.7635 L62.7043 8.0255 L64.1466 8.0255 L64.1466 8.927 L62.7043 8.927 L62.7043 11.9919 Q62.7043 13.2539 63.7861 13.2539 Q63.9663 13.2539 64.1466 13.0736 Z" style="clip-path:url(#clipPath4); stroke:none;" />
      <path d="M20.0817 27.1553 L20.0817 18.8621 L25.3101 18.8621 L25.3101 19.9438 L21.7043 19.9438 L21.7043 22.4678 L24.5889 22.4678 L24.5889 23.7299 L21.7043 23.7299 L21.7043 27.1553 ZM27.0817 27.1553 L27.0817 21.0255 L28.7043 21.0255 L28.7043 27.1553 ZM27.0817 19.9438 L27.0817 18.5015 L28.7043 18.5015 L28.7043 19.9438 ZM31.0817 27.1553 L31.0817 18.3212 L32.7043 18.3212 L32.7043 27.1553 ZM38.1466 27.1553 Q37.6058 27.3356 37.2452 27.3356 Q35.0817 27.3356 35.0817 25.3525 L35.0817 21.927 L34.3606 21.927 L34.3606 21.0255 L35.0817 21.0255 L35.0817 19.9438 L36.7043 19.7635 L36.7043 21.0255 L38.1466 21.0255 L38.1466 21.927 L36.7043 21.927 L36.7043 24.9919 Q36.7043 26.2539 37.7861 26.2539 Q37.9663 26.2539 38.1466 26.0736 ZM45.1298 26.9751 Q43.8678 27.3356 42.7861 27.3356 Q41.3438 27.3356 40.4423 26.4342 Q39.5409 25.5328 39.5409 24.0904 Q39.5409 22.6481 40.3522 21.7467 Q41.1635 20.8453 42.4255 20.8453 Q43.8678 20.8453 44.4988 21.6566 Q45.1298 22.4678 45.1298 24.451 L41.1635 24.451 Q41.3438 26.0736 43.1466 26.0736 Q44.0481 26.0736 45.1298 25.713 ZM41.1635 23.3693 L43.5072 23.3693 Q43.5072 21.927 42.4255 21.927 Q41.3438 21.927 41.1635 23.3693 ZM47.0817 27.1553 L47.0817 21.0255 L48.7043 21.0255 L48.7043 22.1073 Q49.4255 20.8453 50.6875 20.8453 Q50.8678 20.8453 51.0481 20.8453 L51.0481 22.2876 Q50.6875 22.2876 50.3269 22.2876 Q49.4255 22.2876 48.7043 23.189 L48.7043 27.1553 Z" style="clip-path:url(#clipPath4); stroke:none;" />
    </g>
    <g transform="translate(122,2)" style="font-size:11; fill:rgb(243,231,248); text-rendering:geometricPrecision; font-family:sans-serif; stroke:rgb(243,231,248);">
      <path d="M0 0 L20 30 L0 59 L90 59 L109 30 L90 0 Z" style="clip-path:url(#clipPath2); stroke:none;" />
    </g>
    <g transform="translate(122,2)" style="stroke-linecap:butt; font-size:11; fill:rgb(204,147,225); text-rendering:geometricPrecision; font-family:sans-serif; stroke-linejoin:bevel; stroke:rgb(204,147,225); stroke-miterlimit:0;">
      <path d="M0 0 L20 30 L0 59 L90 59 L109 30 L90 0 Z" style="fill:none; clip-path:url(#clipPath2);" />
    </g>
    <g style="text-rendering:geometricPrecision; font-size:13; font-family:&apos;Lucida Grande&apos;;" transform="translate(142,12)">
      <path d="M20.0817 14.1553 L20.0817 5.8621 L21.7043 5.8621 L21.7043 9.2876 L25.3101 9.2876 L25.3101 5.8621 L26.9327 5.8621 L26.9327 14.1553 L25.3101 14.1553 L25.3101 10.3693 L21.7043 10.3693 L21.7043 14.1553 ZM31.0649 14.1553 L31.0649 6.9438 L28.1803 6.9438 L28.1803 5.8621 L35.7524 5.8621 L35.7524 6.9438 L32.8678 6.9438 L32.8678 14.1553 ZM39.0649 14.1553 L39.0649 6.9438 L36.1803 6.9438 L36.1803 5.8621 L43.7524 5.8621 L43.7524 6.9438 L40.8678 6.9438 L40.8678 14.1553 ZM45.0817 14.1553 L45.0817 5.8621 L47.9663 5.8621 Q49.4087 5.8621 50.1298 6.3128 Q50.851 6.7635 50.851 8.0255 Q50.851 9.4678 49.9495 10.189 Q49.0481 10.9102 47.4255 10.9102 L46.7043 10.9102 L46.7043 14.1553 ZM46.7043 9.8284 L47.0649 9.8284 Q47.9663 9.8284 48.5072 9.3777 Q49.0481 8.927 49.0481 8.2058 Q49.0481 6.9438 47.4255 6.9438 L46.7043 6.9438 Z" style="clip-path:url(#clipPath4); stroke:none;" />
      <path d="M20.0817 27.1553 L20.0817 18.8621 L25.3101 18.8621 L25.3101 19.9438 L21.7043 19.9438 L21.7043 22.4678 L24.5889 22.4678 L24.5889 23.7299 L21.7043 23.7299 L21.7043 27.1553 ZM27.0817 27.1553 L27.0817 21.0255 L28.7043 21.0255 L28.7043 27.1553 ZM27.0817 19.9438 L27.0817 18.5015 L28.7043 18.5015 L28.7043 19.9438 ZM31.0817 27.1553 L31.0817 18.3212 L32.7043 18.3212 L32.7043 27.1553 ZM38.1466 27.1553 Q37.6058 27.3356 37.2452 27.3356 Q35.0817 27.3356 35.0817 25.3525 L35.0817 21.927 L34.3606 21.927 L34.3606 21.0255 L35.0817 21.0255 L35.0817 19.9438 L36.7043 19.7635 L36.7043 21.0255 L38.1466 21.0255 L38.1466 21.927 L36.7043 21.927 L36.7043 24.9919 Q36.7043 26.2539 37.7861 26.2539 Q37.9663 26.2539 38.1466 26.0736 ZM45.1298 26.9751 Q43.8678 27.3356 42.7861 27.3356 Q41.3438 27.3356 40.4423 26.4342 Q39.5409 25.5328 39.5409 24.0904 Q39.5409 22.6481 40.3522 21.7467 Q41.1635 20.8453 42.4255 20.8453 Q43.8678 20.8453 44.4988 21.6566 Q45.1298 22.4678 45.1298 24.451 L41.1635 24.451 Q41.3438 26.0736 43.1466 26.0736 Q44.0481 26.0736 45.1298 25.713 ZM41.1635 23.3693 L43.5072 23.3693 Q43.5072 21.927 42.4255 21.927 Q41.3438 21.927 41.1635 23.3693 ZM47.0817 27.1553 L47.0817 21.0255 L48.7043 21.0255 L48.7043 22.1073 Q49.4255 20.8453 50.6875 20.8453 Q50.8678 20.8453 51.0481 20.8453 L51.0481 22.2876 Q50.6875 22.2876 50.3269 22.2876 Q49.4255 22.2876 48.7043 23.189 L48.7043 27.1553 Z" style="clip-path:url(#clipPath4); stroke:none;" />
    </g>
    <g transform="translate(242,2)" style="font-size:11; fill:rgb(243,231,248); text-rendering:geometricPrecision; font-family:sans-serif; stroke:rgb(243,231,248);">
      <path d="M0 0 L20 30 L0 59 L90 59 L109 30 L90 0 Z" style="clip-path:url(#clipPath2); stroke:none;" />
    </g>
    <g transform="translate(242,2)" style="stroke-linecap:butt; font-size:11; fill:rgb(204,147,225); text-rendering:geometricPrecision; font-family:sans-serif; stroke-linejoin:bevel; stroke:rgb(204,147,225); stroke-miterlimit:0;">
      <path d="M0 0 L20 30 L0 59 L90 59 L109 30 L90 0 Z" style="fill:none; clip-path:url(#clipPath2);" />
    </g>
    <g style="text-rendering:geometricPrecision; font-size:13; font-family:&apos;Lucida Grande&apos;;" transform="translate(262,12)">
      <path d="M4.0817 14.1553 L4.0817 5.8621 L5.7043 5.8621 L5.7043 9.2876 L9.3101 9.2876 L9.3101 5.8621 L10.9327 5.8621 L10.9327 14.1553 L9.3101 14.1553 L9.3101 10.3693 L5.7043 10.3693 L5.7043 14.1553 ZM15.0649 14.1553 L15.0649 6.9438 L12.1803 6.9438 L12.1803 5.8621 L19.7524 5.8621 L19.7524 6.9438 L16.8678 6.9438 L16.8678 14.1553 ZM23.0649 14.1553 L23.0649 6.9438 L20.1803 6.9438 L20.1803 5.8621 L27.7524 5.8621 L27.7524 6.9438 L24.8678 6.9438 L24.8678 14.1553 ZM29.0817 14.1553 L29.0817 5.8621 L31.9663 5.8621 Q33.4087 5.8621 34.1298 6.3128 Q34.851 6.7635 34.851 8.0255 Q34.851 9.4678 33.9495 10.189 Q33.0481 10.9102 31.4255 10.9102 L30.7043 10.9102 L30.7043 14.1553 ZM30.7043 9.8284 L31.0649 9.8284 Q31.9663 9.8284 32.5072 9.3777 Q33.0481 8.927 33.0481 8.2058 Q33.0481 6.9438 31.4255 6.9438 L30.7043 6.9438 ZM39.9014 13.9751 L39.9014 12.713 Q41.1635 13.2539 42.0649 13.2539 Q42.9663 13.2539 42.9663 12.5328 Q42.9663 12.1722 42.2452 11.8116 L41.7043 11.451 Q40.6226 11.0904 40.262 10.7299 Q39.9014 10.3693 39.9014 9.6481 Q39.9014 8.7467 40.5325 8.296 Q41.1635 7.8453 42.4255 7.8453 Q43.1466 7.8453 44.2284 8.0255 L44.2284 9.2876 Q43.3269 8.927 42.6058 8.927 Q41.524 8.927 41.524 9.4678 Q41.524 10.0087 42.2452 10.189 L42.7861 10.3693 Q43.8678 10.9102 44.3185 11.2707 Q44.7692 11.6313 44.7692 12.3525 Q44.7692 13.2539 44.0481 13.7948 Q43.3269 14.3356 42.0649 14.3356 Q40.9832 14.3356 39.9014 13.9751 ZM52.1298 13.9751 Q50.8678 14.3356 49.7861 14.3356 Q48.3438 14.3356 47.4423 13.4342 Q46.5409 12.5328 46.5409 11.0904 Q46.5409 9.6481 47.3522 8.7467 Q48.1635 7.8453 49.4255 7.8453 Q50.8678 7.8453 51.4988 8.6566 Q52.1298 9.4678 52.1298 11.451 L48.1635 11.451 Q48.3438 13.0736 50.1466 13.0736 Q51.0481 13.0736 52.1298 12.713 ZM48.1635 10.3693 L50.5072 10.3693 Q50.5072 8.927 49.4255 8.927 Q48.3438 8.927 48.1635 10.3693 ZM54.0817 14.1553 L54.0817 8.0255 L55.7043 8.0255 L55.7043 9.1073 Q56.4255 7.8453 57.6875 7.8453 Q57.8678 7.8453 58.0481 7.8453 L58.0481 9.2876 Q57.6875 9.2876 57.3269 9.2876 Q56.4255 9.2876 55.7043 10.189 L55.7043 14.1553 ZM60.524 14.1553 L58.1803 8.0255 L59.9832 8.0255 L61.7861 12.3525 L63.4087 8.0255 L64.6707 8.0255 L62.3269 14.1553 ZM71.1298 13.9751 Q69.8678 14.3356 68.7861 14.3356 Q67.3438 14.3356 66.4423 13.4342 Q65.5409 12.5328 65.5409 11.0904 Q65.5409 9.6481 66.3522 8.7467 Q67.1635 7.8453 68.4255 7.8453 Q69.8678 7.8453 70.4988 8.6566 Q71.1298 9.4678 71.1298 11.451 L67.1635 11.451 Q67.3438 13.0736 69.1466 13.0736 Q70.0481 13.0736 71.1298 12.713 ZM67.1635 10.3693 L69.5072 10.3693 Q69.5072 8.927 68.4255 8.927 Q67.3438 8.927 67.1635 10.3693 ZM73.0817 14.1553 L73.0817 8.0255 L74.7043 8.0255 L74.7043 9.1073 Q75.4255 7.8453 76.6875 7.8453 Q76.8678 7.8453 77.0481 7.8453 L77.0481 9.2876 Q76.6875 9.2876 76.3269 9.2876 Q75.4255 9.2876 74.7043 10.189 L74.7043 14.1553 Z" style="clip-path:url(#clipPath6); stroke:none;" />
      <path d="M25.0817 27.1553 L25.0817 18.8621 L30.3101 18.8621 L30.3101 19.9438 L26.7043 19.9438 L26.7043 22.4678 L29.5889 22.4678 L29.5889 23.7299 L26.7043 23.7299 L26.7043 27.1553 ZM32.0817 27.1553 L32.0817 21.0255 L33.7043 21.0255 L33.7043 27.1553 ZM32.0817 19.9438 L32.0817 18.5015 L33.7043 18.5015 L33.7043 19.9438 ZM36.0817 27.1553 L36.0817 18.3212 L37.7043 18.3212 L37.7043 27.1553 ZM43.1466 27.1553 Q42.6058 27.3356 42.2452 27.3356 Q40.0817 27.3356 40.0817 25.3525 L40.0817 21.927 L39.3606 21.927 L39.3606 21.0255 L40.0817 21.0255 L40.0817 19.9438 L41.7043 19.7635 L41.7043 21.0255 L43.1466 21.0255 L43.1466 21.927 L41.7043 21.927 L41.7043 24.9919 Q41.7043 26.2539 42.7861 26.2539 Q42.9663 26.2539 43.1466 26.0736 ZM50.1298 26.9751 Q48.8678 27.3356 47.7861 27.3356 Q46.3438 27.3356 45.4423 26.4342 Q44.5409 25.5328 44.5409 24.0904 Q44.5409 22.6481 45.3522 21.7467 Q46.1635 20.8453 47.4255 20.8453 Q48.8678 20.8453 49.4988 21.6566 Q50.1298 22.4678 50.1298 24.451 L46.1635 24.451 Q46.3438 26.0736 48.1466 26.0736 Q49.0481 26.0736 50.1298 25.713 ZM46.1635 23.3693 L48.5072 23.3693 Q48.5072 21.927 47.4255 21.927 Q46.3438 21.927 46.1635 23.3693 ZM52.0817 27.1553 L52.0817 21.0255 L53.7043 21.0255 L53.7043 22.1073 Q54.4255 20.8453 55.6875 20.8453 Q55.8678 20.8453 56.0481 20.8453 L56.0481 22.2876 Q55.6875 22.2876 55.3269 22.2876 Q54.4255 22.2876 53.7043 23.189 L53.7043 27.1553 Z" style="clip-path:url(#clipPath6); stroke:none;" />
    </g>
  </g>
</svg>
