<?xml version="1.0" encoding="UTF-8"?>

<!DOCTYPE svg PUBLIC '-//W3C//DTD SVG 1.0//EN' 'http://www.w3.org/TR/2001/REC-SVG-20010904/DTD/svg10.dtd'>
<svg style="fill-opacity:1; color-rendering:auto; color-interpolation:auto; stroke:black; text-rendering:auto; stroke-linecap:square; stroke-miterlimit:10; stroke-opacity:1; shape-rendering:auto; fill:black; stroke-dasharray:none; font-weight:normal; stroke-width:1; font-family:&apos;Dialog&apos;; font-style:normal; stroke-linejoin:miter; font-size:12; stroke-dashoffset:0; image-rendering:auto;" xmlns="http://www.w3.org/2000/svg" width="486" xmlns:xlink="http://www.w3.org/1999/xlink" height="356">
  <defs id="genericDefs" />
  <g>
    <defs id="defs1">
      <clipPath clipPathUnits="userSpaceOnUse" id="clipPath1">
        <path d="M-3 -3 L107 -3 L107 77 L-3 77 L-3 -3 Z" />
      </clipPath>
      <clipPath clipPathUnits="userSpaceOnUse" id="clipPath2">
        <path d="M0 0 L0 49 L100 49 L100 0 Z" />
      </clipPath>
      <clipPath clipPathUnits="userSpaceOnUse" id="clipPath3">
        <path d="M0 0 L100 0 L100 28 L0 28 L0 0 Z" />
      </clipPath>
      <clipPath clipPathUnits="userSpaceOnUse" id="clipPath4">
        <path d="M-3 -3 L127 -3 L127 47 L-3 47 L-3 -3 Z" />
      </clipPath>
      <clipPath clipPathUnits="userSpaceOnUse" id="clipPath5">
        <path d="M0 0 L0 33 L120 33 L120 0 Z" />
      </clipPath>
      <clipPath clipPathUnits="userSpaceOnUse" id="clipPath6">
        <path d="M0 0 L120 0 L120 14 L0 14 L0 0 Z" />
      </clipPath>
      <clipPath clipPathUnits="userSpaceOnUse" id="clipPath7">
        <path d="M-3 -3 L137 -3 L137 47 L-3 47 L-3 -3 Z" />
      </clipPath>
      <clipPath clipPathUnits="userSpaceOnUse" id="clipPath8">
        <path d="M0 0 L0 33 L130 33 L130 0 Z" />
      </clipPath>
      <clipPath clipPathUnits="userSpaceOnUse" id="clipPath9">
        <path d="M0 0 L130 0 L130 14 L0 14 L0 0 Z" />
      </clipPath>
      <clipPath clipPathUnits="userSpaceOnUse" id="clipPath10">
        <path d="M-3 -3 L35 -3 L35 21 L-3 21 L-3 -3 Z" />
      </clipPath>
      <clipPath clipPathUnits="userSpaceOnUse" id="clipPath11">
        <path d="M-3 -3 L157 -3 L157 47 L-3 47 L-3 -3 Z" />
      </clipPath>
      <clipPath clipPathUnits="userSpaceOnUse" id="clipPath12">
        <path d="M0 0 L0 33 L150 33 L150 0 Z" />
      </clipPath>
      <clipPath clipPathUnits="userSpaceOnUse" id="clipPath13">
        <path d="M0 0 L150 0 L150 14 L0 14 L0 0 Z" />
      </clipPath>
      <clipPath clipPathUnits="userSpaceOnUse" id="clipPath14">
        <path d="M-3 -3 L33 -3 L33 21 L-3 21 L-3 -3 Z" />
      </clipPath>
      <clipPath clipPathUnits="userSpaceOnUse" id="clipPath15">
        <path d="M-3 -3 L37 -3 L37 27 L-3 27 L-3 -3 Z" />
      </clipPath>
      <clipPath clipPathUnits="userSpaceOnUse" id="clipPath16">
        <path d="M-30 -20 L60 -20 L60 40 L-30 40 L-30 -20 Z" />
      </clipPath>
      <clipPath clipPathUnits="userSpaceOnUse" id="clipPath17">
        <path d="M0 0 L174 0 L174 143 L0 143 L0 0 Z" />
      </clipPath>
      <clipPath clipPathUnits="userSpaceOnUse" id="clipPath18">
        <path d="M0 0 L104 0 L104 143 L0 143 L0 0 Z" />
      </clipPath>
      <clipPath clipPathUnits="userSpaceOnUse" id="clipPath19">
        <path d="M0 0 L143 0 L143 104 L0 104 L0 0 Z" />
      </clipPath>
      <clipPath clipPathUnits="userSpaceOnUse" id="clipPath20">
        <path d="M0 0 L144 0 L144 104 L0 104 L0 0 Z" />
      </clipPath>
      <clipPath clipPathUnits="userSpaceOnUse" id="clipPath21">
        <path d="M-28 -14 L56 -14 L56 28 L-28 28 L-28 -14 Z" />
      </clipPath>
      <clipPath clipPathUnits="userSpaceOnUse" id="clipPath22">
        <path d="M-26 -14 L52 -14 L52 28 L-26 28 L-26 -14 Z" />
      </clipPath>
    </defs>
    <g style="fill:white; text-rendering:geometricPrecision; stroke:white;">
      <rect x="0" y="0" width="486" style="stroke:none;" height="356" />
    </g>
    <g transform="translate(192,12)" style="font-size:11; fill:rgb(122,207,245); text-rendering:geometricPrecision; font-family:sans-serif; stroke:rgb(122,207,245); font-weight:bold;">
      <rect x="0" y="0" width="100" style="clip-path:url(#clipPath1); stroke:none;" height="70" />
    </g>
    <g transform="translate(192,12)" style="font-size:11; stroke-linecap:butt; text-rendering:geometricPrecision; font-family:sans-serif; stroke-linejoin:round; font-weight:bold; stroke-miterlimit:0;">
      <rect x="0" y="0" width="100" style="clip-path:url(#clipPath1); fill:none;" height="70" />
      <line x1="0" x2="100" y1="28" style="clip-path:url(#clipPath1); fill:none;" y2="28" />
    </g>
    <g style="text-rendering:geometricPrecision; font-size:11; font-family:sans-serif;" transform="translate(192,12)">
      <text x="9" y="11" style="clip-path:url(#clipPath3); stroke:none;" xml:space="preserve">&lt;&lt;Interface&gt;&gt;</text>
      <text x="21" y="25" style="clip-path:url(#clipPath3); stroke:none; font-weight:bold;" xml:space="preserve">Transport</text>
    </g>
    <g transform="translate(192,202)" style="font-size:11; fill:rgb(122,207,245); text-rendering:geometricPrecision; font-family:sans-serif; stroke:rgb(122,207,245); font-weight:bold;">
      <rect x="0" y="0" width="100" style="clip-path:url(#clipPath1); stroke:none;" height="70" />
    </g>
    <g transform="translate(192,202)" style="font-size:11; stroke-linecap:butt; text-rendering:geometricPrecision; font-family:sans-serif; stroke-linejoin:round; font-weight:bold; stroke-miterlimit:0;">
      <rect x="0" y="0" width="100" style="clip-path:url(#clipPath1); fill:none;" height="70" />
      <line x1="0" x2="100" y1="28" style="clip-path:url(#clipPath1); fill:none;" y2="28" />
    </g>
    <g style="text-rendering:geometricPrecision; font-size:11; font-family:sans-serif;" transform="translate(192,202)">
      <text x="10" y="11" style="clip-path:url(#clipPath3); stroke:none;" xml:space="preserve">&lt;&lt;abstract&gt;&gt;</text>
      <text x="10" y="25" style="clip-path:url(#clipPath3); font-style:italic; stroke:none; font-weight:bold;" xml:space="preserve">NIOTransport</text>
    </g>
    <g transform="translate(112,312)" style="font-size:11; fill:rgb(122,207,245); text-rendering:geometricPrecision; font-family:sans-serif; stroke:rgb(122,207,245); font-weight:bold;">
      <rect x="0" y="0" width="120" style="clip-path:url(#clipPath4); stroke:none;" height="40" />
    </g>
    <g transform="translate(112,312)" style="font-size:11; stroke-linecap:butt; text-rendering:geometricPrecision; font-family:sans-serif; stroke-linejoin:round; font-weight:bold; stroke-miterlimit:0;">
      <rect x="0" y="0" width="120" style="clip-path:url(#clipPath4); fill:none;" height="40" />
      <line x1="0" x2="120" y1="14" style="clip-path:url(#clipPath4); fill:none;" y2="14" />
    </g>
    <g transform="translate(112,312)" style="text-rendering:geometricPrecision; font-size:11; font-weight:bold; font-family:sans-serif;">
      <text x="10" y="11" style="clip-path:url(#clipPath6); stroke:none;" xml:space="preserve">TCPNIOTransport</text>
    </g>
    <g transform="translate(252,312)" style="font-size:11; fill:rgb(122,207,245); text-rendering:geometricPrecision; font-family:sans-serif; stroke:rgb(122,207,245); font-weight:bold;">
      <rect x="0" y="0" width="130" style="clip-path:url(#clipPath7); stroke:none;" height="40" />
    </g>
    <g transform="translate(252,312)" style="font-size:11; stroke-linecap:butt; text-rendering:geometricPrecision; font-family:sans-serif; stroke-linejoin:round; font-weight:bold; stroke-miterlimit:0;">
      <rect x="0" y="0" width="130" style="clip-path:url(#clipPath7); fill:none;" height="40" />
      <line x1="0" x2="130" y1="14" style="clip-path:url(#clipPath7); fill:none;" y2="14" />
    </g>
    <g transform="translate(252,312)" style="text-rendering:geometricPrecision; font-size:11; font-weight:bold; font-family:sans-serif;">
      <text x="14" y="11" style="clip-path:url(#clipPath9); stroke:none;" xml:space="preserve">UDPNIOTransport</text>
    </g>
    <g transform="translate(32,12)" style="font-size:11; fill:rgb(122,207,245); text-rendering:geometricPrecision; font-family:sans-serif; stroke:rgb(122,207,245); font-weight:bold;">
      <rect x="0" y="0" width="120" style="clip-path:url(#clipPath4); stroke:none;" height="40" />
    </g>
    <g transform="translate(32,12)" style="font-size:11; stroke-linecap:butt; text-rendering:geometricPrecision; font-family:sans-serif; stroke-linejoin:round; font-weight:bold; stroke-miterlimit:0;">
      <rect x="0" y="0" width="120" style="clip-path:url(#clipPath4); fill:none;" height="40" />
      <line x1="0" x2="120" y1="14" style="clip-path:url(#clipPath4); fill:none;" y2="14" />
    </g>
    <g transform="translate(32,12)" style="text-rendering:geometricPrecision; font-size:11; font-weight:bold; font-family:sans-serif;">
      <text x="12" y="11" style="clip-path:url(#clipPath6); stroke:none;" xml:space="preserve">MemoryManager</text>
    </g>
    <g transform="translate(32,62)" style="font-size:11; fill:rgb(122,207,245); text-rendering:geometricPrecision; font-family:sans-serif; stroke:rgb(122,207,245); font-weight:bold;">
      <rect x="0" y="0" width="120" style="clip-path:url(#clipPath4); stroke:none;" height="40" />
    </g>
    <g transform="translate(32,62)" style="font-size:11; stroke-linecap:butt; text-rendering:geometricPrecision; font-family:sans-serif; stroke-linejoin:round; font-weight:bold; stroke-miterlimit:0;">
      <rect x="0" y="0" width="120" style="clip-path:url(#clipPath4); fill:none;" height="40" />
      <line x1="0" x2="120" y1="14" style="clip-path:url(#clipPath4); fill:none;" y2="14" />
    </g>
    <g transform="translate(32,62)" style="font-size:11; stroke-linecap:butt; text-rendering:geometricPrecision; font-family:sans-serif; stroke-linejoin:round; font-weight:bold; stroke-miterlimit:0;">
      <text x="14" y="11" style="clip-path:url(#clipPath6); stroke:none;" xml:space="preserve">ExecutorService</text>
    </g>
    <g transform="translate(182,122)" style="font-size:11; fill:rgb(122,207,245); text-rendering:geometricPrecision; font-family:sans-serif; stroke:rgb(122,207,245); font-weight:bold;">
      <rect x="0" y="0" width="120" style="clip-path:url(#clipPath4); stroke:none;" height="40" />
    </g>
    <g transform="translate(182,122)" style="font-size:11; stroke-linecap:butt; text-rendering:geometricPrecision; font-family:sans-serif; stroke-linejoin:round; font-weight:bold; stroke-miterlimit:0;">
      <rect x="0" y="0" width="120" style="clip-path:url(#clipPath4); fill:none;" height="40" />
      <line x1="0" x2="120" y1="14" style="clip-path:url(#clipPath4); fill:none;" y2="14" />
    </g>
    <g transform="translate(182,122)" style="font-size:11; stroke-linecap:butt; text-rendering:geometricPrecision; font-family:sans-serif; stroke-linejoin:round; font-weight:bold; stroke-miterlimit:0;">
      <text x="7" y="11" style="clip-path:url(#clipPath6); stroke:none;" xml:space="preserve">AbstractTransport</text>
    </g>
    <g transform="translate(332,172)" style="font-size:11; fill:rgb(122,207,245); text-rendering:geometricPrecision; font-family:sans-serif; stroke:rgb(122,207,245); font-weight:bold;">
      <rect x="0" y="0" width="150" style="clip-path:url(#clipPath11); stroke:none;" height="40" />
    </g>
    <g transform="translate(332,172)" style="font-size:11; stroke-linecap:butt; text-rendering:geometricPrecision; font-family:sans-serif; stroke-linejoin:round; font-weight:bold; stroke-miterlimit:0;">
      <rect x="0" y="0" width="150" style="clip-path:url(#clipPath11); fill:none;" height="40" />
      <line x1="0" x2="150" y1="14" style="clip-path:url(#clipPath11); fill:none;" y2="14" />
    </g>
    <g transform="translate(332,172)" style="font-size:11; stroke-linecap:butt; text-rendering:geometricPrecision; font-family:sans-serif; stroke-linejoin:round; font-weight:bold; stroke-miterlimit:0;">
      <text x="16" y="11" style="clip-path:url(#clipPath13); stroke:none;" xml:space="preserve">SelectionKeyHandler</text>
    </g>
    <g transform="translate(332,242)" style="font-size:11; fill:rgb(122,207,245); text-rendering:geometricPrecision; font-family:sans-serif; stroke:rgb(122,207,245); font-weight:bold;">
      <rect x="0" y="0" width="150" style="clip-path:url(#clipPath11); stroke:none;" height="40" />
    </g>
    <g transform="translate(332,242)" style="font-size:11; stroke-linecap:butt; text-rendering:geometricPrecision; font-family:sans-serif; stroke-linejoin:round; font-weight:bold; stroke-miterlimit:0;">
      <rect x="0" y="0" width="150" style="clip-path:url(#clipPath11); fill:none;" height="40" />
      <line x1="0" x2="150" y1="14" style="clip-path:url(#clipPath11); fill:none;" y2="14" />
    </g>
    <g transform="translate(332,242)" style="font-size:11; stroke-linecap:butt; text-rendering:geometricPrecision; font-family:sans-serif; stroke-linejoin:round; font-weight:bold; stroke-miterlimit:0;">
      <text x="30" y="11" style="clip-path:url(#clipPath13); stroke:none;" xml:space="preserve">SelectorHandler</text>
    </g>
    <g transform="translate(2,242)" style="font-size:11; fill:rgb(122,207,245); text-rendering:geometricPrecision; font-family:sans-serif; stroke:rgb(122,207,245); font-weight:bold;">
      <rect x="0" y="0" width="150" style="clip-path:url(#clipPath11); stroke:none;" height="40" />
    </g>
    <g transform="translate(2,242)" style="font-size:11; stroke-linecap:butt; text-rendering:geometricPrecision; font-family:sans-serif; stroke-linejoin:round; font-weight:bold; stroke-miterlimit:0;">
      <rect x="0" y="0" width="150" style="clip-path:url(#clipPath11); fill:none;" height="40" />
      <line x1="0" x2="150" y1="14" style="clip-path:url(#clipPath11); fill:none;" y2="14" />
    </g>
    <g transform="translate(2,242)" style="font-size:11; stroke-linecap:butt; text-rendering:geometricPrecision; font-family:sans-serif; stroke-linejoin:round; font-weight:bold; stroke-miterlimit:0;">
      <text x="32" y="11" style="clip-path:url(#clipPath13); stroke:none;" xml:space="preserve">SelectorRunner</text>
    </g>
    <g transform="translate(2,172)" style="font-size:11; fill:rgb(122,207,245); text-rendering:geometricPrecision; font-family:sans-serif; stroke:rgb(122,207,245); font-weight:bold;">
      <rect x="0" y="0" width="150" style="clip-path:url(#clipPath11); stroke:none;" height="40" />
    </g>
    <g transform="translate(2,172)" style="font-size:11; stroke-linecap:butt; text-rendering:geometricPrecision; font-family:sans-serif; stroke-linejoin:round; font-weight:bold; stroke-miterlimit:0;">
      <rect x="0" y="0" width="150" style="clip-path:url(#clipPath11); fill:none;" height="40" />
      <line x1="0" x2="150" y1="14" style="clip-path:url(#clipPath11); fill:none;" y2="14" />
    </g>
    <g transform="translate(2,172)" style="font-size:11; stroke-linecap:butt; text-rendering:geometricPrecision; font-family:sans-serif; stroke-linejoin:round; font-weight:bold; stroke-miterlimit:0;">
      <text x="10" y="11" style="clip-path:url(#clipPath13); stroke:none;" xml:space="preserve">NIOChannelDistributor</text>
    </g>
    <g transform="translate(332,12)" style="font-size:11; fill:rgb(122,207,245); text-rendering:geometricPrecision; font-family:sans-serif; stroke:rgb(122,207,245); font-weight:bold;">
      <rect x="0" y="0" width="120" style="clip-path:url(#clipPath4); stroke:none;" height="40" />
    </g>
    <g transform="translate(332,12)" style="font-size:11; stroke-linecap:butt; text-rendering:geometricPrecision; font-family:sans-serif; stroke-linejoin:round; font-weight:bold; stroke-miterlimit:0;">
      <rect x="0" y="0" width="120" style="clip-path:url(#clipPath4); fill:none;" height="40" />
      <line x1="0" x2="120" y1="14" style="clip-path:url(#clipPath4); fill:none;" y2="14" />
    </g>
    <g transform="translate(332,12)" style="font-size:11; stroke-linecap:butt; text-rendering:geometricPrecision; font-family:sans-serif; stroke-linejoin:round; font-weight:bold; stroke-miterlimit:0;">
      <text x="32" y="11" style="clip-path:url(#clipPath6); stroke:none;" xml:space="preserve">Processor</text>
    </g>
    <g transform="translate(332,62)" style="font-size:11; fill:rgb(122,207,245); text-rendering:geometricPrecision; font-family:sans-serif; stroke:rgb(122,207,245); font-weight:bold;">
      <rect x="0" y="0" width="120" style="clip-path:url(#clipPath4); stroke:none;" height="40" />
    </g>
    <g transform="translate(332,62)" style="font-size:11; stroke-linecap:butt; text-rendering:geometricPrecision; font-family:sans-serif; stroke-linejoin:round; font-weight:bold; stroke-miterlimit:0;">
      <rect x="0" y="0" width="120" style="clip-path:url(#clipPath4); fill:none;" height="40" />
      <line x1="0" x2="120" y1="14" style="clip-path:url(#clipPath4); fill:none;" y2="14" />
    </g>
    <g transform="translate(332,62)" style="font-size:11; stroke-linecap:butt; text-rendering:geometricPrecision; font-family:sans-serif; stroke-linejoin:round; font-weight:bold; stroke-miterlimit:0;">
      <text x="36" y="11" style="clip-path:url(#clipPath6); stroke:none;" xml:space="preserve">Strategy</text>
    </g>
    <g transform="translate(122,222)" style="font-size:11; stroke-linecap:butt; text-rendering:geometricPrecision; font-family:sans-serif; stroke-linejoin:round;">
      <line x1="120" x2="120" y1="50" style="clip-path:url(#clipPath17); fill:none;" y2="80" />
      <line x1="120" x2="50" y1="80" style="clip-path:url(#clipPath17); fill:none;" y2="80" />
      <line x1="50" x2="50" y1="80" style="clip-path:url(#clipPath17); fill:none;" y2="89" />
      <polygon style="fill:white; clip-path:url(#clipPath17); stroke:none;" points=" 120 50 114 62 126 62" />
      <polygon style="fill:none; clip-path:url(#clipPath17);" points=" 120 50 114 62 126 62" />
    </g>
    <g transform="translate(192,222)" style="font-size:11; stroke-linecap:butt; text-rendering:geometricPrecision; font-family:sans-serif; stroke-linejoin:round;">
      <line x1="50" x2="50" y1="50" style="clip-path:url(#clipPath17); fill:none;" y2="80" />
      <line x1="50" x2="120" y1="80" style="clip-path:url(#clipPath17); fill:none;" y2="80" />
      <line x1="120" x2="120" y1="80" style="clip-path:url(#clipPath17); fill:none;" y2="89" />
      <polygon style="fill:white; clip-path:url(#clipPath17); stroke:none;" points=" 50 50 44 62 56 62" />
      <polygon style="fill:none; clip-path:url(#clipPath17);" points=" 50 50 44 62 56 62" />
    </g>
    <g transform="translate(192,112)" style="font-size:11; stroke-linecap:butt; text-rendering:geometricPrecision; font-family:sans-serif; stroke-linejoin:round;">
      <line x1="50" x2="50" y1="50" style="clip-path:url(#clipPath18); fill:none;" y2="89" />
      <polygon style="fill:white; clip-path:url(#clipPath18); stroke:none;" points=" 50 50 44 62 56 62" />
      <polygon style="fill:none; clip-path:url(#clipPath18);" points=" 50 50 44 62 56 62" />
    </g>
    <g transform="translate(192,32)" style="font-size:11; stroke-linecap:butt; text-rendering:geometricPrecision; font-family:sans-serif; stroke-linejoin:round;">
      <line x1="50" x2="50" y1="50" style="clip-path:url(#clipPath18); fill:none;" y2="89" />
      <polygon style="fill:white; clip-path:url(#clipPath18); stroke:none;" points=" 50 50 44 62 56 62" />
      <polygon style="fill:none; clip-path:url(#clipPath18);" points=" 50 50 44 62 56 62" />
    </g>
    <g transform="translate(102,-28)" style="font-size:11; stroke-linecap:butt; text-rendering:geometricPrecision; font-family:sans-serif; stroke-linejoin:round;">
      <line x1="50" x2="89" y1="50" style="clip-path:url(#clipPath19); fill:none;" y2="50" />
    </g>
    <g transform="translate(102,22)" style="font-size:11; stroke-linecap:butt; text-rendering:geometricPrecision; font-family:sans-serif; stroke-linejoin:round;">
      <line x1="50" x2="89" y1="50" style="clip-path:url(#clipPath19); fill:none;" y2="50" />
    </g>
    <g transform="translate(102,161)" style="font-size:11; stroke-linecap:butt; text-rendering:geometricPrecision; font-family:sans-serif; stroke-linejoin:round;">
      <line x1="50" x2="89" y1="50" style="clip-path:url(#clipPath19); fill:none;" y2="50" />
    </g>
    <g transform="translate(242,161)" style="font-size:11; stroke-linecap:butt; text-rendering:geometricPrecision; font-family:sans-serif; stroke-linejoin:round;">
      <line x1="90" x2="50" y1="50" style="clip-path:url(#clipPath20); fill:none;" y2="50" />
    </g>
    <g transform="translate(242,202)" style="font-size:11; stroke-linecap:butt; text-rendering:geometricPrecision; font-family:sans-serif; stroke-linejoin:round;">
      <line x1="89" x2="50" y1="50" style="clip-path:url(#clipPath19); fill:none;" y2="50" />
    </g>
    <g transform="translate(102,202)" style="font-size:11; stroke-linecap:butt; text-rendering:geometricPrecision; font-family:sans-serif; stroke-linejoin:round;">
      <line x1="74" x2="89" y1="50" style="clip-path:url(#clipPath19); fill:none;" y2="50" />
      <polygon style="clip-path:url(#clipPath19); stroke:none;" points=" 50 50 62 56 74 50 62 44" />
      <polygon style="fill:none; clip-path:url(#clipPath19);" points=" 50 50 62 56 74 50 62 44" />
    </g>
    <g transform="translate(242,-28)" style="font-size:11; stroke-linecap:butt; text-rendering:geometricPrecision; font-family:sans-serif; stroke-linejoin:round;">
      <line x1="89" x2="50" y1="50" style="clip-path:url(#clipPath19); fill:none;" y2="50" />
    </g>
    <g transform="translate(242,23)" style="font-size:11; stroke-linecap:butt; text-rendering:geometricPrecision; font-family:sans-serif; stroke-linejoin:round;">
      <line x1="89" x2="50" y1="50" style="clip-path:url(#clipPath19); fill:none;" y2="50" />
    </g>
    <g style="text-rendering:geometricPrecision; font-size:11; font-family:sans-serif;" transform="translate(302,52)">
      <text x="10" y="11" style="clip-path:url(#clipPath21); stroke:none;" xml:space="preserve">1</text>
    </g>
    <g style="text-rendering:geometricPrecision; font-size:11; font-family:sans-serif;" transform="translate(302,2)">
      <text x="10" y="11" style="clip-path:url(#clipPath21); stroke:none;" xml:space="preserve">1</text>
    </g>
    <g style="text-rendering:geometricPrecision; font-size:11; font-family:sans-serif;" transform="translate(162,232)">
      <text x="10" y="11" style="clip-path:url(#clipPath22); stroke:none;" xml:space="preserve">*</text>
    </g>
    <g style="text-rendering:geometricPrecision; font-size:11; font-family:sans-serif;" transform="translate(302,232)">
      <text x="10" y="11" style="clip-path:url(#clipPath21); stroke:none;" xml:space="preserve">1</text>
    </g>
    <g style="text-rendering:geometricPrecision; font-size:11; font-family:sans-serif;" transform="translate(302,192)">
      <text x="10" y="11" style="clip-path:url(#clipPath21); stroke:none;" xml:space="preserve">1</text>
    </g>
    <g style="text-rendering:geometricPrecision; font-size:11; font-family:sans-serif;" transform="translate(162,192)">
      <text x="10" y="11" style="clip-path:url(#clipPath21); stroke:none;" xml:space="preserve">1</text>
    </g>
    <g style="text-rendering:geometricPrecision; font-size:11; font-family:sans-serif;" transform="translate(152,52)">
      <text x="10" y="11" style="clip-path:url(#clipPath21); stroke:none;" xml:space="preserve">1</text>
    </g>
    <g style="text-rendering:geometricPrecision; font-size:11; font-family:sans-serif;" transform="translate(162,2)">
      <text x="10" y="11" style="clip-path:url(#clipPath21); stroke:none;" xml:space="preserve">1</text>
    </g>
  </g>
</svg>
